<svg preserveAspectRatio="none" width="100%" height="100%" overflow="visible" style="display: block;" viewBox="0 0 40 40" fill="none" xmlns="http://www.w3.org/2000/svg">
<g id="Frame">
<path id="Vector" d="M22.5 21.6641L25 24.1641" stroke="var(--stroke-0, #F26949)" stroke-width="1.5" stroke-linecap="round" stroke-linejoin="round"/>
<path id="Vector_2" d="M15 18.3307C15 20.6319 16.8655 22.4974 19.1667 22.4974C20.3193 22.4974 21.3625 22.0294 22.1168 21.2731C22.8685 20.5194 23.3333 19.4794 23.3333 18.3307C23.3333 16.0295 21.4678 14.1641 19.1667 14.1641C16.8655 14.1641 15 16.0295 15 18.3307Z" stroke="var(--stroke-0, #F26949)" stroke-width="1.5" stroke-linecap="round" stroke-linejoin="round"/>
<path id="Vector_3" d="M8.33218 29.9994L5.21612 8.18697C5.09295 7.32482 5.65533 6.5202 6.50548 6.33129L19.2757 3.49344C19.752 3.3876 20.2457 3.3876 20.722 3.49344L33.4922 6.33129C34.3423 6.5202 34.9047 7.32482 34.7815 8.18695L31.6655 29.9994C31.5477 30.8244 30.8322 35.8328 19.9988 35.8328C9.16552 35.8328 8.45003 30.8244 8.33218 29.9994Z" stroke="var(--stroke-0, #F26949)" stroke-width="1.5" stroke-linecap="round" stroke-linejoin="round"/>
</g>
</svg>
