<svg preserveAspectRatio="none" width="100%" height="100%" overflow="visible" style="display: block;" viewBox="0 0 40 40" fill="none" xmlns="http://www.w3.org/2000/svg">
<g id="Frame">
<path id="Vector" d="M20.0007 19.9974C23.6825 19.9974 26.6673 17.0126 26.6673 13.3307C26.6673 9.64883 23.6825 6.66406 20.0007 6.66406C16.3188 6.66406 13.334 9.64883 13.334 13.3307C13.334 17.0126 16.3188 19.9974 20.0007 19.9974Z" stroke="var(--stroke-0, #F26949)" stroke-width="1.5" stroke-linecap="round" stroke-linejoin="round"/>
<path id="Vector_2" d="M36.6673 28.7997C36.6673 29.802 36.2715 30.7647 35.5645 31.4768C33.9372 33.1168 32.359 34.8268 30.6708 36.4072C30.284 36.7642 29.6702 36.7512 29.2998 36.378L24.4365 31.4768C22.9665 29.9953 22.9665 27.6038 24.4365 26.1223C25.921 24.6263 28.3393 24.6263 29.8237 26.1223L30.0005 26.3005L30.1772 26.1223C30.889 25.4048 31.8583 25 32.8708 25C33.8835 25 34.8528 25.4047 35.5645 26.1223C36.2715 26.8345 36.6673 27.7973 36.6673 28.7997Z" stroke="var(--stroke-0, #F26949)" stroke-width="1.5" stroke-linejoin="round"/>
<path id="Vector_3" d="M8.33398 33.3333V31.6667C8.33398 25.2233 13.5573 20 20.0007 20C21.79 20 23.4852 20.4028 25.0007 21.1227" stroke="var(--stroke-0, #F26949)" stroke-width="1.5" stroke-linecap="round" stroke-linejoin="round"/>
</g>
</svg>
