<svg preserveAspectRatio="none" width="100%" height="100%" overflow="visible" style="display: block;" viewBox="0 0 40 40" fill="none" xmlns="http://www.w3.org/2000/svg">
<g id="Frame">
<path id="Vector" d="M13.334 25.6693V14.3359C13.334 13.7837 13.7817 13.3359 14.334 13.3359H25.6673C26.2197 13.3359 26.6673 13.7837 26.6673 14.3359V25.6693C26.6673 26.2216 26.2197 26.6693 25.6673 26.6693H14.334C13.7817 26.6693 13.334 26.2216 13.334 25.6693Z" stroke="var(--stroke-0, #F26949)" stroke-width="1.5" stroke-linecap="round" stroke-linejoin="round"/>
<path id="Vector_2" d="M33.3327 7.66406V32.3307C33.3327 32.8831 32.885 33.3307 32.3327 33.3307H7.66602C7.11373 33.3307 6.66602 32.8831 6.66602 32.3307V7.66406C6.66602 7.11178 7.11373 6.66406 7.66602 6.66406H32.3327C32.885 6.66406 33.3327 7.11178 33.3327 7.66406Z" stroke="var(--stroke-0, #F26949)" stroke-width="1.5" stroke-linecap="round" stroke-linejoin="round"/>
<path id="Vector_3" d="M28.334 6.66927V3.33594" stroke="var(--stroke-0, #F26949)" stroke-width="1.5" stroke-linecap="round" stroke-linejoin="round"/>
<path id="Vector_4" d="M20 6.66927V3.33594" stroke="var(--stroke-0, #F26949)" stroke-width="1.5" stroke-linecap="round" stroke-linejoin="round"/>
<path id="Vector_5" d="M11.666 6.66927V3.33594" stroke="var(--stroke-0, #F26949)" stroke-width="1.5" stroke-linecap="round" stroke-linejoin="round"/>
<path id="Vector_6" d="M11.666 33.3359V36.6693" stroke="var(--stroke-0, #F26949)" stroke-width="1.5" stroke-linecap="round" stroke-linejoin="round"/>
<path id="Vector_7" d="M20 33.3359V36.6693" stroke="var(--stroke-0, #F26949)" stroke-width="1.5" stroke-linecap="round" stroke-linejoin="round"/>
<path id="Vector_8" d="M28.334 33.3359V36.6693" stroke="var(--stroke-0, #F26949)" stroke-width="1.5" stroke-linecap="round" stroke-linejoin="round"/>
<path id="Vector_9" d="M33.334 28.3359H36.6673" stroke="var(--stroke-0, #F26949)" stroke-width="1.5" stroke-linecap="round" stroke-linejoin="round"/>
<path id="Vector_10" d="M33.334 20H36.6673" stroke="var(--stroke-0, #F26949)" stroke-width="1.5" stroke-linecap="round" stroke-linejoin="round"/>
<path id="Vector_11" d="M33.334 11.6641H36.6673" stroke="var(--stroke-0, #F26949)" stroke-width="1.5" stroke-linecap="round" stroke-linejoin="round"/>
<path id="Vector_12" d="M6.66732 28.3359H3.33398" stroke="var(--stroke-0, #F26949)" stroke-width="1.5" stroke-linecap="round" stroke-linejoin="round"/>
<path id="Vector_13" d="M6.66732 20H3.33398" stroke="var(--stroke-0, #F26949)" stroke-width="1.5" stroke-linecap="round" stroke-linejoin="round"/>
<path id="Vector_14" d="M6.66732 11.6641H3.33398" stroke="var(--stroke-0, #F26949)" stroke-width="1.5" stroke-linecap="round" stroke-linejoin="round"/>
</g>
</svg>
