<svg preserveAspectRatio="none" width="100%" height="100%" overflow="visible" style="display: block;" viewBox="0 0 1164 193" fill="none" xmlns="http://www.w3.org/2000/svg">
<g id="Frame 714" clip-path="url(#clip0_0_6)">
<rect width="1164" height="193" fill="#0542A7"/>
<path id="Vector 4" d="M3.7528 22.961L3.75281 -49.4375L248.037 -49.4375C332.124 -17.9277 317.626 55.1395 248.037 96.0325C350.68 157.707 290.805 220.052 248.037 243.516C283.991 267.113 304.578 287.761 304.578 317.257L304.578 390.328L65.3676 390.328C-25.9673 344.743 -4.2209 301.839 55.944 243.516C-25.9676 185.863 3.75271 138.937 55.944 96.0325C13.0311 63.8543 3.26953 33.9106 3.7528 22.961Z" fill="var(--fill-0, #5880C4)"/>
<g id="linkedin-svgrepo-com 1" clip-path="url(#clip1_0_6)">
<rect width="273" height="196" transform="translate(891 -3.28125)" fill="#5880C4"/>
<path id="Vector" d="M1114.4 -3.27788L895.506 -27.6365C882.155 -27.6365 871.332 -36.8624 871.332 -23.5115V239.79C871.332 253.141 882.155 263.965 895.506 263.965H1114.4C1127.75 263.965 1174.41 247.864 1174.41 234.512V5.53843C1174.41 -7.81251 1127.75 -3.27788 1114.4 -3.27788ZM954.028 227.477C954.028 231.363 950.879 234.512 946.993 234.512H917.047C913.161 234.512 910.012 231.363 910.012 227.477V101.942C910.012 98.0567 913.161 94.9072 917.047 94.9072H946.993C950.879 94.9072 954.028 98.0567 954.028 101.942V227.477ZM932.02 83.0737C916.308 83.0737 903.57 70.3363 903.57 54.6243C903.57 38.9122 916.308 26.1748 932.02 26.1748C947.732 26.1748 960.469 38.9122 960.469 54.6243C960.469 70.3363 947.733 83.0737 932.02 83.0737ZM1110.53 228.044C1110.53 231.616 1107.63 234.512 1104.06 234.512H1071.92C1068.35 234.512 1065.46 231.616 1065.46 228.044V169.161C1065.46 160.377 1068.03 130.669 1042.5 130.669C1022.7 130.669 1018.68 151.003 1017.87 160.128V228.044C1017.87 231.616 1014.98 234.512 1011.4 234.512H980.324C976.752 234.512 973.856 231.616 973.856 228.044V101.376C973.856 97.8035 976.752 94.9072 980.324 94.9072H1011.4C1014.98 94.9072 1017.87 97.8035 1017.87 101.376V112.328C1025.22 101.307 1036.13 92.8008 1059.37 92.8008C1110.82 92.8008 1110.53 140.874 1110.53 167.287V228.044Z" fill="var(--fill-0, #0542A7)"/>
</g>
</g>
<defs>
<clipPath id="clip0_0_6">
<rect width="1164" height="193" fill="white"/>
</clipPath>
<clipPath id="clip1_0_6">
<rect width="273" height="196" fill="white" transform="translate(891 -3.28125)"/>
</clipPath>
</defs>
</svg>
