<svg width="420" height="446" viewBox="0 0 420 446" fill="none" xmlns="http://www.w3.org/2000/svg">
<path d="M18.4842 286.637L82.769 107.882C83.88 104.793 86.4365 102.446 89.6092 101.602L263.72 55.3035C267.742 54.234 272.006 55.7674 274.426 59.1537L379.172 205.736C381.08 208.407 381.556 211.845 380.445 214.934L316.161 393.689C314.292 398.886 308.564 401.584 303.367 399.715L24.5102 299.431C19.3132 297.562 16.6153 291.834 18.4842 286.637Z" fill="white"/>
<g filter="url(#filter0_dd_841_210)">
<g clip-path="url(#clip0_841_210)">
<path d="M139.209 46.5262C141.078 41.3292 146.807 38.6313 152.004 40.5003L368.085 118.208C373.282 120.077 375.979 125.806 374.11 131.003L318.181 286.523L83.2804 202.047L139.209 46.5262Z" fill="#E5A27C"/>
<rect width="179.527" height="11" transform="translate(151.629 64.6494) rotate(19.7799)" fill="#F2F2F2"/>
<rect width="143.292" height="11" transform="translate(142.338 90.4912) rotate(19.7799)" fill="#F2F2F2"/>
<rect width="143.292" height="11" transform="translate(114.441 168.057) rotate(19.7799)" fill="#F2F2F2"/>
<rect width="126.822" height="11" transform="translate(133.037 116.346) rotate(19.7799)" fill="#F2F2F2"/>
<rect width="158.115" height="11" transform="translate(123.742 142.202) rotate(19.7799)" fill="#F2F2F2"/>
<rect width="126.822" height="11" transform="translate(105.15 193.898) rotate(19.7799)" fill="#F2F2F2"/>
</g>
</g>
<path d="M79.908 115.855L205.184 238.287L377.585 222.908L299.713 439.444C298.592 442.562 295.155 444.18 292.037 443.059L5.65177 340.068C2.53357 338.946 0.914833 335.509 2.03622 332.391L79.908 115.855Z" fill="white"/>
<defs>
<filter id="filter0_dd_841_210" x="53.281" y="17.1162" width="354.213" height="309.407" filterUnits="userSpaceOnUse" color-interpolation-filters="sRGB">
<feFlood flood-opacity="0" result="BackgroundImageFix"/>
<feColorMatrix in="SourceAlpha" type="matrix" values="0 0 0 0 0 0 0 0 0 0 0 0 0 0 0 0 0 0 127 0" result="hardAlpha"/>
<feOffset dy="4"/>
<feGaussianBlur stdDeviation="2"/>
<feComposite in2="hardAlpha" operator="out"/>
<feColorMatrix type="matrix" values="0 0 0 0 0.67451 0 0 0 0 0.694118 0 0 0 0 0.733333 0 0 0 0.2 0"/>
<feBlend mode="normal" in2="BackgroundImageFix" result="effect1_dropShadow_841_210"/>
<feColorMatrix in="SourceAlpha" type="matrix" values="0 0 0 0 0 0 0 0 0 0 0 0 0 0 0 0 0 0 127 0" result="hardAlpha"/>
<feOffset dy="10"/>
<feGaussianBlur stdDeviation="15"/>
<feComposite in2="hardAlpha" operator="out"/>
<feColorMatrix type="matrix" values="0 0 0 0 0.672988 0 0 0 0 0.695397 0 0 0 0 0.734238 0 0 0 0.35 0"/>
<feBlend mode="normal" in2="effect1_dropShadow_841_210" result="effect2_dropShadow_841_210"/>
<feBlend mode="normal" in="SourceGraphic" in2="effect2_dropShadow_841_210" result="shape"/>
</filter>
<clipPath id="clip0_841_210">
<path d="M139.209 46.5262C141.078 41.3292 146.807 38.6313 152.004 40.5003L368.085 118.208C373.282 120.077 375.979 125.806 374.11 131.003L318.181 286.523L83.2804 202.047L139.209 46.5262Z" fill="white"/>
</clipPath>
</defs>
</svg>
