<svg width="586" height="402" viewBox="0 -24 586 402" fill="none" xmlns="http://www.w3.org/2000/svg">
<g clip-path="url(#clip0_579_1675)">
<rect y="-24" width="586" height="402" rx="16" fill="#CFECE7"/>
<g filter="url(#filter0_di_579_1675)">
<path d="M610.306 52.4102H78.5132C67.6102 52.4102 58.7715 61.0535 58.7715 71.7156V396.288C58.7715 406.95 67.6102 415.594 78.5132 415.594H610.306C621.209 415.594 630.048 406.95 630.048 396.288V71.7156C630.048 61.0535 621.209 52.4102 610.306 52.4102Z" fill="white"/>
<path d="M561.874 158.715H83.9288C81.4149 158.715 79.377 160.753 79.377 163.267V198.544C79.377 201.058 81.4149 203.095 83.9288 203.095H561.874C564.388 203.095 566.426 201.058 566.426 198.544V163.267C566.426 160.753 564.388 158.715 561.874 158.715Z" fill="#F2F2F2"/>
<path d="M98.4746 185.456V175.1H99.7173V185.456H98.4746ZM101.868 185.456V178H102.992L103.051 179.302C103.288 178.839 103.623 178.478 104.057 178.222C104.501 177.955 105.004 177.822 105.566 177.822C106.148 177.822 106.651 177.941 107.075 178.177C107.499 178.404 107.83 178.754 108.066 179.228C108.303 179.691 108.421 180.283 108.421 181.003V185.456H107.179V181.136C107.179 180.386 107.011 179.824 106.676 179.45C106.35 179.075 105.887 178.887 105.285 178.887C104.871 178.887 104.501 178.991 104.176 179.198C103.85 179.395 103.589 179.686 103.392 180.071C103.204 180.445 103.11 180.914 103.11 181.476V185.456H101.868ZM110.481 185.456V178H111.724V185.456H110.481ZM111.102 176.417C110.856 176.417 110.649 176.338 110.481 176.18C110.323 176.013 110.244 175.806 110.244 175.559C110.244 175.312 110.323 175.115 110.481 174.967C110.649 174.809 110.856 174.73 111.102 174.73C111.339 174.73 111.541 174.809 111.709 174.967C111.876 175.115 111.96 175.312 111.96 175.559C111.96 175.806 111.876 176.013 111.709 176.18C111.541 176.338 111.339 176.417 111.102 176.417ZM117.275 185.633C116.574 185.633 115.943 185.471 115.381 185.145C114.829 184.82 114.395 184.366 114.079 183.784C113.764 183.192 113.606 182.512 113.606 181.743C113.606 180.954 113.764 180.268 114.079 179.686C114.395 179.105 114.829 178.651 115.381 178.325C115.943 177.99 116.574 177.822 117.275 177.822C118.162 177.822 118.902 178.054 119.494 178.518C120.085 178.972 120.46 179.583 120.618 180.352H119.346C119.247 179.889 119.005 179.528 118.621 179.272C118.236 179.016 117.782 178.887 117.26 178.887C116.836 178.887 116.441 178.996 116.076 179.213C115.711 179.42 115.42 179.735 115.203 180.16C114.986 180.584 114.878 181.106 114.878 181.728C114.878 182.191 114.942 182.605 115.07 182.97C115.199 183.326 115.371 183.621 115.588 183.858C115.805 184.095 116.057 184.277 116.343 184.405C116.638 184.524 116.944 184.583 117.26 184.583C117.615 184.583 117.935 184.528 118.221 184.42C118.507 184.302 118.749 184.129 118.946 183.902C119.143 183.676 119.277 183.41 119.346 183.104H120.618C120.46 183.854 120.08 184.465 119.479 184.938C118.887 185.401 118.152 185.633 117.275 185.633ZM122.501 185.456V178H123.743V185.456H122.501ZM123.122 176.417C122.875 176.417 122.668 176.338 122.501 176.18C122.343 176.013 122.264 175.806 122.264 175.559C122.264 175.312 122.343 175.115 122.501 174.967C122.668 174.809 122.875 174.73 123.122 174.73C123.359 174.73 123.561 174.809 123.729 174.967C123.896 175.115 123.98 175.312 123.98 175.559C123.98 175.806 123.896 176.013 123.729 176.18C123.561 176.338 123.359 176.417 123.122 176.417ZM128.362 185.633C127.761 185.633 127.258 185.53 126.853 185.323C126.449 185.105 126.148 184.824 125.951 184.479C125.754 184.124 125.655 183.74 125.655 183.326C125.655 182.823 125.783 182.398 126.04 182.053C126.306 181.698 126.676 181.432 127.149 181.254C127.633 181.067 128.2 180.973 128.851 180.973H130.818C130.818 180.51 130.744 180.126 130.596 179.819C130.458 179.504 130.251 179.268 129.975 179.109C129.709 178.951 129.373 178.873 128.969 178.873C128.495 178.873 128.086 178.991 127.741 179.228C127.396 179.464 127.184 179.815 127.105 180.278H125.833C125.892 179.745 126.069 179.302 126.365 178.947C126.671 178.581 127.056 178.306 127.519 178.118C127.983 177.921 128.466 177.822 128.969 177.822C129.659 177.822 130.231 177.951 130.685 178.207C131.149 178.454 131.494 178.803 131.72 179.257C131.947 179.701 132.061 180.229 132.061 180.84V185.456H130.951L130.877 184.139C130.779 184.346 130.65 184.543 130.493 184.731C130.345 184.908 130.167 185.067 129.96 185.204C129.753 185.333 129.516 185.436 129.25 185.515C128.994 185.593 128.698 185.633 128.362 185.633ZM128.555 184.583C128.9 184.583 129.21 184.514 129.487 184.376C129.773 184.228 130.014 184.031 130.212 183.784C130.409 183.528 130.557 183.247 130.655 182.941C130.764 182.635 130.818 182.315 130.818 181.979V181.935H128.954C128.471 181.935 128.081 181.994 127.785 182.112C127.49 182.221 127.278 182.379 127.149 182.586C127.021 182.783 126.957 183.01 126.957 183.266C126.957 183.533 127.016 183.765 127.134 183.962C127.263 184.159 127.445 184.312 127.682 184.42C127.928 184.528 128.219 184.583 128.555 184.583ZM136.71 185.456C136.266 185.456 135.882 185.386 135.556 185.249C135.231 185.111 134.979 184.879 134.802 184.553C134.634 184.218 134.55 183.769 134.55 183.207V179.05H133.248V178H134.55L134.713 176.195H135.793V178H137.953V179.05H135.793V183.207C135.793 183.67 135.886 183.987 136.074 184.154C136.261 184.312 136.592 184.391 137.065 184.391H137.864V185.456H136.71ZM139.692 185.456V178H140.935V185.456H139.692ZM140.313 176.417C140.068 176.417 139.861 176.338 139.692 176.18C139.535 176.013 139.455 175.806 139.455 175.559C139.455 175.312 139.535 175.115 139.692 174.967C139.861 174.809 140.068 174.73 140.313 174.73C140.55 174.73 140.753 174.809 140.92 174.967C141.088 175.115 141.171 175.312 141.171 175.559C141.171 175.806 141.088 176.013 140.92 176.18C140.753 176.338 140.55 176.417 140.313 176.417ZM145.273 185.456L142.447 178H143.749L145.998 184.257L148.261 178H149.533L146.708 185.456H145.273ZM152.98 185.633C152.378 185.633 151.875 185.53 151.471 185.323C151.066 185.105 150.766 184.824 150.569 184.479C150.371 184.124 150.273 183.74 150.273 183.326C150.273 182.823 150.4 182.398 150.658 182.053C150.924 181.698 151.294 181.432 151.767 181.254C152.25 181.067 152.817 180.973 153.468 180.973H155.436C155.436 180.51 155.362 180.126 155.214 179.819C155.075 179.504 154.868 179.268 154.593 179.109C154.326 178.951 153.991 178.873 153.587 178.873C153.113 178.873 152.704 178.991 152.359 179.228C152.013 179.464 151.801 179.815 151.723 180.278H150.45C150.51 179.745 150.687 179.302 150.983 178.947C151.288 178.581 151.673 178.306 152.137 178.118C152.6 177.921 153.084 177.822 153.587 177.822C154.276 177.822 154.849 177.951 155.303 178.207C155.766 178.454 156.111 178.803 156.338 179.257C156.565 179.701 156.679 180.229 156.679 180.84V185.456H155.569L155.495 184.139C155.396 184.346 155.267 184.543 155.11 184.731C154.962 184.908 154.785 185.067 154.578 185.204C154.371 185.333 154.134 185.436 153.868 185.515C153.611 185.593 153.315 185.633 152.98 185.633ZM153.172 184.583C153.517 184.583 153.828 184.514 154.104 184.376C154.39 184.228 154.631 184.031 154.829 183.784C155.026 183.528 155.174 183.247 155.273 182.941C155.381 182.635 155.436 182.315 155.436 181.979V181.935H153.572C153.088 181.935 152.699 181.994 152.403 182.112C152.107 182.221 151.895 182.379 151.767 182.586C151.638 182.783 151.575 183.01 151.575 183.266C151.575 183.533 151.634 183.765 151.752 183.962C151.88 184.159 152.063 184.312 152.3 184.42C152.545 184.528 152.837 184.583 153.172 184.583ZM163.743 185.456V176.491L161.968 176.935V176.047L164.157 175.1H165V185.456H163.743Z" fill="#0542A7"/>
<path d="M346.229 166.109H299.573C291.403 166.109 284.779 172.733 284.779 180.903C284.779 189.073 291.403 195.696 299.573 195.696H346.229C354.4 195.696 361.023 189.073 361.023 180.903C361.023 172.733 354.4 166.109 346.229 166.109Z" fill="#5880C4"/>
<path d="M224.914 163.93H198.741C194.342 163.93 190.775 167.496 190.775 171.895V190.103C190.775 194.502 194.342 198.069 198.741 198.069H224.914C229.314 198.069 232.88 194.502 232.88 190.103V171.895C232.88 167.496 229.314 163.93 224.914 163.93Z" fill="#0542A7"/>
<path d="M202.599 185.549L206.415 175.193H207.732L211.534 185.549H210.217L207.066 176.746L203.9 185.549H202.599ZM204.344 182.886L204.699 181.88H209.389L209.744 182.886H204.344ZM216.024 185.726C215.363 185.726 214.762 185.608 214.22 185.371C213.687 185.124 213.262 184.76 212.947 184.276C212.632 183.793 212.464 183.192 212.444 182.472H213.702C213.712 182.866 213.805 183.231 213.983 183.566C214.171 183.892 214.437 184.153 214.782 184.35C215.126 184.547 215.541 184.646 216.024 184.646C216.508 184.646 216.912 184.553 217.237 184.365C217.563 184.177 217.81 183.932 217.977 183.625C218.144 183.31 218.229 182.96 218.229 182.575C218.229 182.091 218.11 181.702 217.874 181.406C217.647 181.1 217.336 180.878 216.942 180.741C216.557 180.593 216.132 180.519 215.669 180.519H214.9V179.468H215.669C216.35 179.468 216.882 179.31 217.267 178.995C217.652 178.68 217.844 178.245 217.844 177.693C217.844 177.239 217.691 176.86 217.385 176.554C217.089 176.248 216.635 176.096 216.024 176.096C215.443 176.096 214.979 176.263 214.634 176.599C214.289 176.934 214.091 177.363 214.042 177.886H212.785C212.814 177.323 212.967 176.825 213.243 176.391C213.52 175.958 213.894 175.622 214.367 175.385C214.841 175.139 215.398 175.016 216.039 175.016C216.709 175.016 217.272 175.134 217.726 175.371C218.18 175.607 218.52 175.923 218.746 176.317C218.983 176.712 219.101 177.146 219.101 177.619C219.101 177.974 219.038 178.31 218.909 178.625C218.78 178.931 218.588 179.202 218.332 179.439C218.076 179.676 217.751 179.843 217.356 179.942C217.76 180.02 218.12 180.174 218.436 180.4C218.761 180.627 219.017 180.923 219.205 181.288C219.393 181.653 219.486 182.082 219.486 182.575C219.486 183.137 219.353 183.66 219.087 184.143C218.831 184.617 218.446 185.001 217.933 185.297C217.419 185.583 216.783 185.726 216.024 185.726Z" fill="white"/>
<path d="M561.312 212.863H83.3673C80.8534 212.863 78.8154 214.901 78.8154 217.415V252.692C78.8154 255.206 80.8534 257.244 83.3673 257.244H561.312C563.826 257.244 565.864 255.206 565.864 252.692V217.415C565.864 214.901 563.826 212.863 561.312 212.863Z" fill="#F2F4FB"/>
<path d="M227.287 218.035H201.114C196.715 218.035 193.148 221.602 193.148 226.001V244.208C193.148 248.608 196.715 252.174 201.114 252.174H227.287C231.687 252.174 235.253 248.608 235.253 244.208V226.001C235.253 221.602 231.687 218.035 227.287 218.035Z" fill="#0542A7"/>
<path d="M204.972 239.65L208.788 229.295H210.105L213.907 239.65H212.59L209.439 230.848L206.274 239.65H204.972ZM206.717 236.987L207.072 235.981H211.762L212.117 236.987H206.717ZM215.299 239.65V238.777C216 238.225 216.665 237.668 217.296 237.106C217.938 236.544 218.504 235.986 218.997 235.434C219.491 234.872 219.876 234.325 220.151 233.792C220.438 233.259 220.58 232.746 220.58 232.253C220.58 231.888 220.516 231.554 220.388 231.247C220.26 230.932 220.053 230.675 219.766 230.478C219.491 230.281 219.115 230.182 218.642 230.182C218.179 230.182 217.794 230.286 217.488 230.493C217.183 230.69 216.951 230.956 216.793 231.292C216.645 231.617 216.571 231.977 216.571 232.372H215.373C215.383 231.691 215.526 231.11 215.802 230.626C216.088 230.133 216.478 229.758 216.97 229.502C217.464 229.246 218.026 229.117 218.657 229.117C219.278 229.117 219.826 229.236 220.299 229.472C220.772 229.699 221.142 230.039 221.408 230.493C221.685 230.947 221.823 231.518 221.823 232.209C221.823 232.693 221.719 233.175 221.512 233.659C221.315 234.142 221.049 234.616 220.713 235.079C220.379 235.533 220.003 235.971 219.589 236.396C219.185 236.82 218.766 237.219 218.331 237.594C217.908 237.968 217.509 238.309 217.133 238.615H222.178V239.65H215.299Z" fill="white"/>
<path d="M98.5723 239.557V229.202H99.8149V239.557H98.5723ZM101.966 239.557V232.101H103.09L103.149 233.403C103.386 232.94 103.721 232.579 104.155 232.323C104.599 232.057 105.102 231.924 105.664 231.924C106.246 231.924 106.749 232.042 107.173 232.279C107.597 232.505 107.927 232.856 108.164 233.329C108.401 233.792 108.519 234.384 108.519 235.104V239.557H107.276V235.238C107.276 234.488 107.109 233.926 106.773 233.551C106.448 233.177 105.984 232.989 105.383 232.989C104.969 232.989 104.599 233.093 104.273 233.3C103.948 233.497 103.687 233.788 103.489 234.173C103.302 234.547 103.208 235.016 103.208 235.578V239.557H101.966ZM110.579 239.557V232.101H111.821V239.557H110.579ZM111.2 230.519C110.953 230.519 110.746 230.44 110.579 230.282C110.421 230.115 110.342 229.907 110.342 229.66C110.342 229.414 110.421 229.217 110.579 229.069C110.746 228.911 110.953 228.832 111.2 228.832C111.437 228.832 111.639 228.911 111.806 229.069C111.974 229.217 112.058 229.414 112.058 229.66C112.058 229.907 111.974 230.115 111.806 230.282C111.639 230.44 111.437 230.519 111.2 230.519ZM117.372 239.735C116.672 239.735 116.041 239.572 115.479 239.247C114.926 238.921 114.492 238.467 114.177 237.886C113.861 237.294 113.704 236.613 113.704 235.844C113.704 235.056 113.861 234.369 114.177 233.788C114.492 233.206 114.926 232.752 115.479 232.427C116.041 232.091 116.672 231.924 117.372 231.924C118.26 231.924 119 232.156 119.591 232.619C120.183 233.073 120.558 233.684 120.716 234.454H119.443C119.345 233.99 119.103 233.63 118.719 233.374C118.334 233.118 117.88 232.989 117.358 232.989C116.933 232.989 116.539 233.097 116.174 233.314C115.809 233.522 115.518 233.837 115.301 234.261C115.084 234.686 114.976 235.208 114.976 235.829C114.976 236.293 115.04 236.707 115.168 237.072C115.296 237.427 115.469 237.723 115.686 237.96C115.903 238.196 116.154 238.378 116.44 238.507C116.736 238.625 117.042 238.685 117.358 238.685C117.713 238.685 118.033 238.63 118.319 238.522C118.605 238.403 118.847 238.23 119.044 238.004C119.241 237.778 119.374 237.511 119.443 237.205H120.716C120.558 237.955 120.178 238.566 119.577 239.04C118.985 239.503 118.25 239.735 117.372 239.735ZM122.598 239.557V232.101H123.841V239.557H122.598ZM123.22 230.519C122.973 230.519 122.766 230.44 122.598 230.282C122.441 230.115 122.362 229.907 122.362 229.66C122.362 229.414 122.441 229.217 122.598 229.069C122.766 228.911 122.973 228.832 123.22 228.832C123.456 228.832 123.659 228.911 123.826 229.069C123.994 229.217 124.078 229.414 124.078 229.66C124.078 229.907 123.994 230.115 123.826 230.282C123.659 230.44 123.456 230.519 123.22 230.519ZM128.46 239.735C127.858 239.735 127.355 239.631 126.951 239.424C126.547 239.207 126.246 238.926 126.049 238.581C125.851 238.226 125.753 237.841 125.753 237.427C125.753 236.924 125.881 236.5 126.138 236.155C126.404 235.8 126.774 235.534 127.247 235.356C127.73 235.168 128.297 235.075 128.948 235.075H130.916C130.916 234.612 130.842 234.227 130.694 233.921C130.556 233.606 130.349 233.369 130.073 233.211C129.806 233.053 129.471 232.974 129.067 232.974C128.593 232.974 128.184 233.093 127.839 233.329C127.494 233.566 127.282 233.916 127.203 234.38H125.93C125.99 233.847 126.167 233.403 126.463 233.048C126.769 232.683 127.153 232.408 127.617 232.22C128.08 232.023 128.564 231.924 129.067 231.924C129.757 231.924 130.329 232.052 130.783 232.309C131.246 232.555 131.591 232.905 131.818 233.359C132.045 233.803 132.158 234.331 132.158 234.942V239.557H131.049L130.975 238.241C130.876 238.448 130.748 238.645 130.59 238.832C130.442 239.01 130.265 239.168 130.058 239.306C129.851 239.434 129.614 239.538 129.348 239.617C129.091 239.695 128.795 239.735 128.46 239.735ZM128.652 238.685C128.998 238.685 129.308 238.615 129.584 238.477C129.87 238.329 130.112 238.133 130.309 237.886C130.507 237.63 130.654 237.349 130.753 237.042C130.862 236.736 130.916 236.417 130.916 236.081V236.036H129.052C128.569 236.036 128.179 236.096 127.883 236.214C127.587 236.322 127.375 236.48 127.247 236.687C127.119 236.884 127.055 237.112 127.055 237.368C127.055 237.634 127.114 237.866 127.232 238.063C127.36 238.26 127.543 238.414 127.78 238.522C128.026 238.63 128.317 238.685 128.652 238.685ZM136.808 239.557C136.364 239.557 135.979 239.488 135.654 239.35C135.328 239.213 135.077 238.98 134.899 238.655C134.732 238.319 134.648 237.871 134.648 237.309V233.152H133.346V232.101H134.648L134.811 230.297H135.89V232.101H138.05V233.152H135.89V237.309C135.89 237.772 135.984 238.088 136.172 238.256C136.359 238.414 136.689 238.492 137.163 238.492H137.962V239.557H136.808ZM139.79 239.557V232.101H141.033V239.557H139.79ZM140.412 230.519C140.165 230.519 139.958 230.44 139.79 230.282C139.632 230.115 139.554 229.907 139.554 229.66C139.554 229.414 139.632 229.217 139.79 229.069C139.958 228.911 140.165 228.832 140.412 228.832C140.648 228.832 140.85 228.911 141.018 229.069C141.186 229.217 141.27 229.414 141.27 229.66C141.27 229.907 141.186 230.115 141.018 230.282C140.85 230.44 140.648 230.519 140.412 230.519ZM145.371 239.557L142.545 232.101H143.847L146.096 238.359L148.359 232.101H149.632L146.806 239.557H145.371ZM153.077 239.735C152.475 239.735 151.972 239.631 151.568 239.424C151.164 239.207 150.863 238.926 150.666 238.581C150.469 238.226 150.37 237.841 150.37 237.427C150.37 236.924 150.499 236.5 150.755 236.155C151.021 235.8 151.391 235.534 151.864 235.356C152.348 235.168 152.915 235.075 153.566 235.075H155.533C155.533 234.612 155.459 234.227 155.311 233.921C155.173 233.606 154.966 233.369 154.69 233.211C154.424 233.053 154.088 232.974 153.684 232.974C153.21 232.974 152.801 233.093 152.456 233.329C152.111 233.566 151.898 233.916 151.82 234.38H150.548C150.607 233.847 150.784 233.403 151.08 233.048C151.386 232.683 151.771 232.408 152.234 232.22C152.697 232.023 153.181 231.924 153.684 231.924C154.375 231.924 154.946 232.052 155.4 232.309C155.863 232.555 156.209 232.905 156.435 233.359C156.662 233.803 156.776 234.331 156.776 234.942V239.557H155.666L155.592 238.241C155.493 238.448 155.366 238.645 155.208 238.832C155.06 239.01 154.882 239.168 154.675 239.306C154.468 239.434 154.231 239.538 153.965 239.617C153.709 239.695 153.413 239.735 153.077 239.735ZM153.27 238.685C153.614 238.685 153.925 238.615 154.202 238.477C154.487 238.329 154.73 238.133 154.927 237.886C155.123 237.63 155.271 237.349 155.37 237.042C155.478 236.736 155.533 236.417 155.533 236.081V236.036H153.669C153.185 236.036 152.796 236.096 152.5 236.214C152.205 236.322 151.993 236.48 151.864 236.687C151.736 236.884 151.672 237.112 151.672 237.368C151.672 237.634 151.731 237.866 151.849 238.063C151.978 238.26 152.16 238.414 152.397 238.522C152.644 238.63 152.934 238.685 153.27 238.685ZM162.538 239.557V238.685C163.239 238.133 163.905 237.575 164.536 237.013C165.177 236.451 165.744 235.893 166.237 235.341C166.731 234.779 167.115 234.232 167.391 233.699C167.677 233.167 167.82 232.653 167.82 232.161C167.82 231.795 167.756 231.461 167.627 231.155C167.5 230.839 167.293 230.582 167.006 230.385C166.731 230.188 166.355 230.089 165.882 230.089C165.419 230.089 165.034 230.193 164.728 230.4C164.423 230.597 164.191 230.863 164.033 231.199C163.885 231.524 163.811 231.884 163.811 232.279H162.612C162.623 231.598 162.766 231.017 163.041 230.533C163.328 230.041 163.717 229.665 164.21 229.409C164.704 229.153 165.266 229.024 165.897 229.024C166.518 229.024 167.065 229.143 167.539 229.379C168.012 229.606 168.382 229.946 168.648 230.4C168.925 230.854 169.062 231.425 169.062 232.116C169.062 232.6 168.959 233.082 168.752 233.566C168.555 234.05 168.289 234.523 167.953 234.986C167.618 235.44 167.243 235.878 166.828 236.303C166.425 236.727 166.006 237.127 165.571 237.501C165.148 237.875 164.748 238.216 164.373 238.522H169.417V239.557H162.538Z" fill="#0542A7"/>
<path d="M346.327 220.211H299.67C291.5 220.211 284.877 226.834 284.877 235.004C284.877 243.175 291.5 249.798 299.67 249.798H346.327C354.497 249.798 361.121 243.175 361.121 235.004C361.121 226.834 354.497 220.211 346.327 220.211Z" fill="#5880C4"/>
<path d="M429.748 220.211H383.091C374.921 220.211 368.298 226.834 368.298 235.004C368.298 243.175 374.921 249.798 383.091 249.798H429.748C437.918 249.798 444.541 243.175 444.541 235.004C444.541 226.834 437.918 220.211 429.748 220.211Z" fill="#5880C4"/>
<path d="M561.313 267.012H83.3683C80.8543 267.012 78.8164 269.05 78.8164 271.564V306.84C78.8164 309.354 80.8543 311.392 83.3683 311.392H561.313C563.827 311.392 565.865 309.354 565.865 306.84V271.564C565.865 269.05 563.827 267.012 561.313 267.012Z" fill="#F2F2F2"/>
<path d="M98.5723 293.757V283.401H99.8149V293.757H98.5723ZM101.966 293.757V286.301H103.09L103.149 287.602C103.386 287.139 103.721 286.779 104.155 286.523C104.599 286.256 105.102 286.123 105.664 286.123C106.246 286.123 106.749 286.241 107.173 286.478C107.597 286.705 107.927 287.055 108.164 287.528C108.401 287.992 108.519 288.583 108.519 289.304V293.757H107.276V289.437C107.276 288.687 107.109 288.125 106.773 287.75C106.448 287.376 105.984 287.188 105.383 287.188C104.969 287.188 104.599 287.292 104.273 287.499C103.948 287.696 103.687 287.987 103.489 288.372C103.302 288.746 103.208 289.215 103.208 289.777V293.757H101.966ZM110.579 293.757V286.301H111.821V293.757H110.579ZM111.2 284.718C110.953 284.718 110.746 284.639 110.579 284.481C110.421 284.314 110.342 284.107 110.342 283.86C110.342 283.613 110.421 283.416 110.579 283.268C110.746 283.11 110.953 283.031 111.2 283.031C111.437 283.031 111.639 283.11 111.806 283.268C111.974 283.416 112.058 283.613 112.058 283.86C112.058 284.107 111.974 284.314 111.806 284.481C111.639 284.639 111.437 284.718 111.2 284.718ZM117.372 293.934C116.672 293.934 116.041 293.771 115.479 293.446C114.926 293.12 114.492 292.666 114.177 292.085C113.861 291.493 113.704 290.813 113.704 290.043C113.704 289.255 113.861 288.569 114.177 287.987C114.492 287.406 114.926 286.952 115.479 286.626C116.041 286.29 116.672 286.123 117.372 286.123C118.26 286.123 119 286.355 119.591 286.818C120.183 287.272 120.558 287.884 120.716 288.653H119.443C119.345 288.19 119.103 287.829 118.719 287.573C118.334 287.317 117.88 287.188 117.358 287.188C116.933 287.188 116.539 287.296 116.174 287.514C115.809 287.721 115.518 288.036 115.301 288.46C115.084 288.885 114.976 289.407 114.976 290.029C114.976 290.492 115.04 290.906 115.168 291.271C115.296 291.626 115.469 291.922 115.686 292.159C115.903 292.396 116.154 292.578 116.44 292.706C116.736 292.825 117.042 292.884 117.358 292.884C117.713 292.884 118.033 292.829 118.319 292.721C118.605 292.603 118.847 292.43 119.044 292.203C119.241 291.977 119.374 291.711 119.443 291.404H120.716C120.558 292.154 120.178 292.765 119.577 293.239C118.985 293.702 118.25 293.934 117.372 293.934ZM122.598 293.757V286.301H123.841V293.757H122.598ZM123.22 284.718C122.973 284.718 122.766 284.639 122.598 284.481C122.441 284.314 122.362 284.107 122.362 283.86C122.362 283.613 122.441 283.416 122.598 283.268C122.766 283.11 122.973 283.031 123.22 283.031C123.456 283.031 123.659 283.11 123.826 283.268C123.994 283.416 124.078 283.613 124.078 283.86C124.078 284.107 123.994 284.314 123.826 284.481C123.659 284.639 123.456 284.718 123.22 284.718ZM128.46 293.934C127.858 293.934 127.355 293.831 126.951 293.623C126.547 293.406 126.246 293.125 126.049 292.78C125.851 292.425 125.753 292.041 125.753 291.626C125.753 291.123 125.881 290.699 126.138 290.354C126.404 289.999 126.774 289.733 127.247 289.555C127.73 289.367 128.297 289.274 128.948 289.274H130.916C130.916 288.811 130.842 288.426 130.694 288.12C130.556 287.805 130.349 287.568 130.073 287.41C129.806 287.252 129.471 287.173 129.067 287.173C128.593 287.173 128.184 287.292 127.839 287.528C127.494 287.765 127.282 288.116 127.203 288.579H125.93C125.99 288.046 126.167 287.602 126.463 287.247C126.769 286.882 127.153 286.607 127.617 286.419C128.08 286.222 128.564 286.123 129.067 286.123C129.757 286.123 130.329 286.252 130.783 286.508C131.246 286.755 131.591 287.104 131.818 287.558C132.045 288.002 132.158 288.53 132.158 289.141V293.757H131.049L130.975 292.44C130.876 292.647 130.748 292.844 130.59 293.032C130.442 293.209 130.265 293.367 130.058 293.505C129.851 293.634 129.614 293.737 129.348 293.816C129.091 293.894 128.795 293.934 128.46 293.934ZM128.652 292.884C128.998 292.884 129.308 292.814 129.584 292.677C129.87 292.529 130.112 292.332 130.309 292.085C130.507 291.829 130.654 291.548 130.753 291.242C130.862 290.936 130.916 290.616 130.916 290.28V290.236H129.052C128.569 290.236 128.179 290.295 127.883 290.413C127.587 290.521 127.375 290.68 127.247 290.887C127.119 291.083 127.055 291.311 127.055 291.567C127.055 291.833 127.114 292.066 127.232 292.262C127.36 292.459 127.543 292.613 127.78 292.721C128.026 292.829 128.317 292.884 128.652 292.884ZM136.808 293.757C136.364 293.757 135.979 293.687 135.654 293.549C135.328 293.412 135.077 293.18 134.899 292.854C134.732 292.518 134.648 292.07 134.648 291.508V287.351H133.346V286.301H134.648L134.811 284.496H135.89V286.301H138.05V287.351H135.89V291.508C135.89 291.971 135.984 292.287 136.172 292.455C136.359 292.613 136.689 292.691 137.163 292.691H137.962V293.757H136.808ZM139.79 293.757V286.301H141.033V293.757H139.79ZM140.412 284.718C140.165 284.718 139.958 284.639 139.79 284.481C139.632 284.314 139.554 284.107 139.554 283.86C139.554 283.613 139.632 283.416 139.79 283.268C139.958 283.11 140.165 283.031 140.412 283.031C140.648 283.031 140.85 283.11 141.018 283.268C141.186 283.416 141.27 283.613 141.27 283.86C141.27 284.107 141.186 284.314 141.018 284.481C140.85 284.639 140.648 284.718 140.412 284.718ZM145.371 293.757L142.545 286.301H143.847L146.096 292.558L148.359 286.301H149.632L146.806 293.757H145.371ZM153.077 293.934C152.475 293.934 151.972 293.831 151.568 293.623C151.164 293.406 150.863 293.125 150.666 292.78C150.469 292.425 150.37 292.041 150.37 291.626C150.37 291.123 150.499 290.699 150.755 290.354C151.021 289.999 151.391 289.733 151.864 289.555C152.348 289.367 152.915 289.274 153.566 289.274H155.533C155.533 288.811 155.459 288.426 155.311 288.12C155.173 287.805 154.966 287.568 154.69 287.41C154.424 287.252 154.088 287.173 153.684 287.173C153.21 287.173 152.801 287.292 152.456 287.528C152.111 287.765 151.898 288.116 151.82 288.579H150.548C150.607 288.046 150.784 287.602 151.08 287.247C151.386 286.882 151.771 286.607 152.234 286.419C152.697 286.222 153.181 286.123 153.684 286.123C154.375 286.123 154.946 286.252 155.4 286.508C155.863 286.755 156.209 287.104 156.435 287.558C156.662 288.002 156.776 288.53 156.776 289.141V293.757H155.666L155.592 292.44C155.493 292.647 155.366 292.844 155.208 293.032C155.06 293.209 154.882 293.367 154.675 293.505C154.468 293.634 154.231 293.737 153.965 293.816C153.709 293.894 153.413 293.934 153.077 293.934ZM153.27 292.884C153.614 292.884 153.925 292.814 154.202 292.677C154.487 292.529 154.73 292.332 154.927 292.085C155.123 291.829 155.271 291.548 155.37 291.242C155.478 290.936 155.533 290.616 155.533 290.28V290.236H153.669C153.185 290.236 152.796 290.295 152.5 290.413C152.205 290.521 151.993 290.68 151.864 290.887C151.736 291.083 151.672 291.311 151.672 291.567C151.672 291.833 151.731 292.066 151.849 292.262C151.978 292.459 152.16 292.613 152.397 292.721C152.644 292.829 152.934 292.884 153.27 292.884ZM165.926 293.934C165.266 293.934 164.664 293.816 164.121 293.579C163.589 293.332 163.165 292.968 162.849 292.484C162.534 292.001 162.367 291.4 162.346 290.68H163.604C163.614 291.074 163.707 291.439 163.885 291.774C164.072 292.1 164.339 292.361 164.683 292.558C165.029 292.755 165.444 292.854 165.926 292.854C166.41 292.854 166.814 292.761 167.139 292.573C167.465 292.385 167.712 292.14 167.879 291.833C168.047 291.518 168.13 291.168 168.13 290.783C168.13 290.299 168.012 289.91 167.775 289.614C167.549 289.308 167.238 289.086 166.843 288.949C166.459 288.801 166.035 288.727 165.571 288.727H164.802V287.676H165.571C166.252 287.676 166.784 287.518 167.169 287.203C167.553 286.888 167.746 286.453 167.746 285.901C167.746 285.447 167.593 285.068 167.287 284.762C166.991 284.456 166.538 284.304 165.926 284.304C165.345 284.304 164.881 284.471 164.536 284.806C164.191 285.142 163.994 285.571 163.944 286.094H162.686C162.716 285.531 162.87 285.033 163.145 284.599C163.421 284.166 163.796 283.83 164.269 283.593C164.743 283.346 165.3 283.224 165.941 283.224C166.612 283.224 167.174 283.342 167.627 283.579C168.081 283.815 168.422 284.131 168.648 284.525C168.885 284.92 169.003 285.354 169.003 285.827C169.003 286.182 168.939 286.518 168.811 286.833C168.683 287.139 168.491 287.41 168.234 287.647C167.978 287.884 167.652 288.051 167.258 288.15C167.663 288.228 168.022 288.382 168.337 288.608C168.663 288.835 168.92 289.131 169.107 289.496C169.294 289.861 169.388 290.29 169.388 290.783C169.388 291.345 169.255 291.868 168.988 292.351C168.732 292.825 168.348 293.209 167.834 293.505C167.322 293.791 166.686 293.934 165.926 293.934Z" fill="#0542A7"/>
<path d="M227.287 272.137H201.114C196.715 272.137 193.148 275.703 193.148 280.102V298.31C193.148 302.709 196.715 306.276 201.114 306.276H227.287C231.687 306.276 235.253 302.709 235.253 298.31V280.102C235.253 275.703 231.687 272.137 227.287 272.137Z" fill="#0542A7"/>
<path d="M207.247 293.754L211.064 283.398H212.38L216.182 293.754H214.866L211.715 284.952L208.549 293.754H207.247ZM208.993 291.091L209.348 290.085H214.037L214.392 291.091H208.993ZM218.429 293.754V284.789L216.653 285.233V284.345L218.843 283.398H219.686V293.754H218.429Z" fill="white"/>
<path d="M435.438 274.41H388.782C380.612 274.41 373.988 281.033 373.988 289.204C373.988 297.374 380.612 303.997 388.782 303.997H435.438C443.609 303.997 450.232 297.374 450.232 289.204C450.232 281.033 443.609 274.41 435.438 274.41Z" fill="#5880C4"/>
<path d="M518.858 274.41H472.202C464.031 274.41 457.408 281.033 457.408 289.204C457.408 297.374 464.031 303.997 472.202 303.997H518.858C527.029 303.997 533.652 297.374 533.652 289.204C533.652 281.033 527.029 274.41 518.858 274.41Z" fill="#5880C4"/>
<mask id="mask0_579_1675" style="mask-type:luminance" maskUnits="userSpaceOnUse" x="78" y="321" width="488" height="45">
<path d="M560.751 321.168H82.8058C80.2918 321.168 78.2539 323.206 78.2539 325.72V360.997C78.2539 363.511 80.2918 365.549 82.8058 365.549H560.751C563.265 365.549 565.303 363.511 565.303 360.997V325.72C565.303 323.206 563.265 321.168 560.751 321.168Z" fill="white"/>
</mask>
<g mask="url(#mask0_579_1675)">
<path d="M560.751 321.168H82.8058C80.2918 321.168 78.2539 323.206 78.2539 325.72V360.997C78.2539 363.511 80.2918 365.549 82.8058 365.549H560.751C563.265 365.549 565.303 363.511 565.303 360.997V325.72C565.303 323.206 563.265 321.168 560.751 321.168Z" fill="#F2F4FB"/>
<path d="M98.5723 348.378V338.022H99.8149V348.378H98.5723ZM101.966 348.378V340.922H103.09L103.149 342.224C103.386 341.76 103.721 341.4 104.155 341.144C104.599 340.877 105.102 340.744 105.664 340.744C106.246 340.744 106.749 340.863 107.173 341.099C107.597 341.326 107.927 341.676 108.164 342.15C108.401 342.613 108.519 343.204 108.519 343.925V348.378H107.276V344.058C107.276 343.308 107.109 342.746 106.773 342.371C106.448 341.997 105.984 341.809 105.383 341.809C104.969 341.809 104.599 341.913 104.273 342.12C103.948 342.317 103.687 342.608 103.489 342.993C103.302 343.367 103.208 343.836 103.208 344.398V348.378H101.966ZM110.579 348.378V340.922H111.821V348.378H110.579ZM111.2 339.339C110.953 339.339 110.746 339.26 110.579 339.102C110.421 338.935 110.342 338.728 110.342 338.481C110.342 338.234 110.421 338.037 110.579 337.889C110.746 337.731 110.953 337.652 111.2 337.652C111.437 337.652 111.639 337.731 111.806 337.889C111.974 338.037 112.058 338.234 112.058 338.481C112.058 338.728 111.974 338.935 111.806 339.102C111.639 339.26 111.437 339.339 111.2 339.339ZM117.372 348.555C116.672 348.555 116.041 348.392 115.479 348.067C114.926 347.742 114.492 347.287 114.177 346.706C113.861 346.114 113.704 345.434 113.704 344.664C113.704 343.876 113.861 343.19 114.177 342.608C114.492 342.027 114.926 341.573 115.479 341.247C116.041 340.911 116.672 340.744 117.372 340.744C118.26 340.744 119 340.976 119.591 341.439C120.183 341.894 120.558 342.505 120.716 343.274H119.443C119.345 342.811 119.103 342.45 118.719 342.194C118.334 341.938 117.88 341.809 117.358 341.809C116.933 341.809 116.539 341.917 116.174 342.135C115.809 342.342 115.518 342.657 115.301 343.082C115.084 343.506 114.976 344.028 114.976 344.65C114.976 345.113 115.04 345.527 115.168 345.892C115.296 346.247 115.469 346.543 115.686 346.78C115.903 347.017 116.154 347.199 116.44 347.327C116.736 347.446 117.042 347.505 117.358 347.505C117.713 347.505 118.033 347.45 118.319 347.342C118.605 347.224 118.847 347.051 119.044 346.824C119.241 346.598 119.374 346.332 119.443 346.025H120.716C120.558 346.775 120.178 347.386 119.577 347.86C118.985 348.323 118.25 348.555 117.372 348.555ZM122.598 348.378V340.922H123.841V348.378H122.598ZM123.22 339.339C122.973 339.339 122.766 339.26 122.598 339.102C122.441 338.935 122.362 338.728 122.362 338.481C122.362 338.234 122.441 338.037 122.598 337.889C122.766 337.731 122.973 337.652 123.22 337.652C123.456 337.652 123.659 337.731 123.826 337.889C123.994 338.037 124.078 338.234 124.078 338.481C124.078 338.728 123.994 338.935 123.826 339.102C123.659 339.26 123.456 339.339 123.22 339.339ZM128.46 348.555C127.858 348.555 127.355 348.452 126.951 348.244C126.547 348.027 126.246 347.746 126.049 347.401C125.851 347.046 125.753 346.662 125.753 346.247C125.753 345.744 125.881 345.32 126.138 344.975C126.404 344.62 126.774 344.354 127.247 344.176C127.73 343.989 128.297 343.895 128.948 343.895H130.916C130.916 343.432 130.842 343.047 130.694 342.741C130.556 342.426 130.349 342.189 130.073 342.031C129.806 341.873 129.471 341.795 129.067 341.795C128.593 341.795 128.184 341.913 127.839 342.15C127.494 342.386 127.282 342.737 127.203 343.2H125.93C125.99 342.667 126.167 342.224 126.463 341.868C126.769 341.503 127.153 341.228 127.617 341.04C128.08 340.843 128.564 340.744 129.067 340.744C129.757 340.744 130.329 340.873 130.783 341.129C131.246 341.376 131.591 341.725 131.818 342.179C132.045 342.623 132.158 343.151 132.158 343.762V348.378H131.049L130.975 347.061C130.876 347.268 130.748 347.465 130.59 347.653C130.442 347.83 130.265 347.988 130.058 348.126C129.851 348.255 129.614 348.358 129.348 348.437C129.091 348.515 128.795 348.555 128.46 348.555ZM128.652 347.505C128.998 347.505 129.308 347.435 129.584 347.298C129.87 347.15 130.112 346.953 130.309 346.706C130.507 346.45 130.654 346.169 130.753 345.863C130.862 345.557 130.916 345.237 130.916 344.901V344.857H129.052C128.569 344.857 128.179 344.916 127.883 345.034C127.587 345.142 127.375 345.301 127.247 345.508C127.119 345.705 127.055 345.932 127.055 346.188C127.055 346.454 127.114 346.687 127.232 346.884C127.36 347.08 127.543 347.234 127.78 347.342C128.026 347.45 128.317 347.505 128.652 347.505ZM136.808 348.378C136.364 348.378 135.979 348.308 135.654 348.171C135.328 348.033 135.077 347.801 134.899 347.475C134.732 347.14 134.648 346.691 134.648 346.129V341.972H133.346V340.922H134.648L134.811 339.117H135.89V340.922H138.05V341.972H135.89V346.129C135.89 346.592 135.984 346.909 136.172 347.076C136.359 347.234 136.689 347.313 137.163 347.313H137.962V348.378H136.808ZM139.79 348.378V340.922H141.033V348.378H139.79ZM140.412 339.339C140.165 339.339 139.958 339.26 139.79 339.102C139.632 338.935 139.554 338.728 139.554 338.481C139.554 338.234 139.632 338.037 139.79 337.889C139.958 337.731 140.165 337.652 140.412 337.652C140.648 337.652 140.85 337.731 141.018 337.889C141.186 338.037 141.27 338.234 141.27 338.481C141.27 338.728 141.186 338.935 141.018 339.102C140.85 339.26 140.648 339.339 140.412 339.339ZM145.371 348.378L142.545 340.922H143.847L146.096 347.179L148.359 340.922H149.632L146.806 348.378H145.371ZM153.077 348.555C152.475 348.555 151.972 348.452 151.568 348.244C151.164 348.027 150.863 347.746 150.666 347.401C150.469 347.046 150.37 346.662 150.37 346.247C150.37 345.744 150.499 345.32 150.755 344.975C151.021 344.62 151.391 344.354 151.864 344.176C152.348 343.989 152.915 343.895 153.566 343.895H155.533C155.533 343.432 155.459 343.047 155.311 342.741C155.173 342.426 154.966 342.189 154.69 342.031C154.424 341.873 154.088 341.795 153.684 341.795C153.21 341.795 152.801 341.913 152.456 342.15C152.111 342.386 151.898 342.737 151.82 343.2H150.548C150.607 342.667 150.784 342.224 151.08 341.868C151.386 341.503 151.771 341.228 152.234 341.04C152.697 340.843 153.181 340.744 153.684 340.744C154.375 340.744 154.946 340.873 155.4 341.129C155.863 341.376 156.209 341.725 156.435 342.179C156.662 342.623 156.776 343.151 156.776 343.762V348.378H155.666L155.592 347.061C155.493 347.268 155.366 347.465 155.208 347.653C155.06 347.83 154.882 347.988 154.675 348.126C154.468 348.255 154.231 348.358 153.965 348.437C153.709 348.515 153.413 348.555 153.077 348.555ZM153.27 347.505C153.614 347.505 153.925 347.435 154.202 347.298C154.487 347.15 154.73 346.953 154.927 346.706C155.123 346.45 155.271 346.169 155.37 345.863C155.478 345.557 155.533 345.237 155.533 344.901V344.857H153.669C153.185 344.857 152.796 344.916 152.5 345.034C152.205 345.142 151.993 345.301 151.864 345.508C151.736 345.705 151.672 345.932 151.672 346.188C151.672 346.454 151.731 346.687 151.849 346.884C151.978 347.08 152.16 347.234 152.397 347.342C152.644 347.45 152.934 347.505 153.27 347.505ZM167.391 348.378V346.159H162.139V345.197L167.169 338.022H168.619V345.064H170.157V346.159H168.619V348.378H167.391ZM163.515 345.064H167.45V339.398L163.515 345.064Z" fill="#0542A7"/>
<path d="M227.287 326.758H201.114C196.715 326.758 193.148 330.324 193.148 334.724V352.931C193.148 357.33 196.715 360.897 201.114 360.897H227.287C231.687 360.897 235.253 357.33 235.253 352.931V334.724C235.253 330.324 231.687 326.758 227.287 326.758Z" fill="#0542A7"/>
<path d="M207.247 348.379L211.064 338.023H212.38L216.182 348.379H214.866L211.715 339.577L208.549 348.379H207.247ZM208.993 345.716L209.348 344.71H214.037L214.392 345.716H208.993ZM222.152 348.379V346.16H216.9V345.198L221.93 338.023H223.38V345.065H224.919V346.16H223.38V348.379H222.152ZM218.276 345.065H222.211V339.399L218.276 345.065Z" fill="white"/>
<path d="M550.372 328.938H471.852C463.682 328.938 457.059 335.561 457.059 343.731C457.059 351.901 463.682 358.525 471.852 358.525H550.372C558.542 358.525 565.165 351.901 565.165 343.731C565.165 335.561 558.542 328.938 550.372 328.938Z" fill="#5880C4"/>
</g>
<path d="M275.107 72.8945H83.9288C81.4149 72.8945 79.377 74.9325 79.377 77.4464V102.482C79.377 104.996 81.4149 107.033 83.9288 107.033H275.107C277.621 107.033 279.659 104.996 279.659 102.482V77.4464C279.659 74.9325 277.621 72.8945 275.107 72.8945Z" fill="#AFE0D6"/>
<path d="M100.916 94.6919C99.9102 94.6919 99.0374 94.47 98.2977 94.0262C97.568 93.5725 97.0058 92.9463 96.6113 92.1474C96.2167 91.3387 96.0195 90.4018 96.0195 89.3366C96.0195 88.2715 96.2167 87.3395 96.6113 86.5407C97.0058 85.7319 97.568 85.1057 98.2977 84.6619C99.0374 84.2082 99.9102 83.9814 100.916 83.9814C102.1 83.9814 103.061 84.2625 103.801 84.8246C104.541 85.3868 105.014 86.1807 105.221 87.2064H103.845C103.687 86.5654 103.367 86.0525 102.884 85.6678C102.4 85.2733 101.745 85.0761 100.916 85.0761C100.177 85.0761 99.5355 85.2487 98.993 85.5939C98.4506 85.9292 98.0315 86.4174 97.7356 87.0584C97.4397 87.6897 97.2918 88.449 97.2918 89.3366C97.2918 90.2243 97.4397 90.9886 97.7356 91.6296C98.0315 92.2609 98.4506 92.749 98.993 93.0942C99.5355 93.4296 100.177 93.5972 100.916 93.5972C101.745 93.5972 102.4 93.4098 102.884 93.035C103.367 92.6504 103.687 92.1425 103.845 91.5113H105.221C105.014 92.5073 104.541 93.2865 103.801 93.8487C103.061 94.4108 102.1 94.6919 100.916 94.6919ZM109.375 94.6919C108.773 94.6919 108.271 94.5883 107.866 94.3812C107.462 94.1642 107.161 93.8831 106.964 93.538C106.766 93.183 106.668 92.7983 106.668 92.3841C106.668 91.8811 106.796 91.457 107.053 91.1119C107.319 90.7568 107.689 90.4905 108.162 90.313C108.645 90.1256 109.212 90.0319 109.863 90.0319H111.831C111.831 89.5684 111.757 89.1838 111.609 88.878C111.471 88.5625 111.264 88.3258 110.988 88.1679C110.721 88.0101 110.386 87.9313 109.982 87.9313C109.508 87.9313 109.099 88.0496 108.754 88.2863C108.409 88.523 108.197 88.8731 108.118 89.3366H106.845C106.905 88.8041 107.082 88.3603 107.378 88.0052C107.684 87.6403 108.068 87.3642 108.532 87.1768C108.995 86.9796 109.479 86.8809 109.982 86.8809C110.672 86.8809 111.244 87.0092 111.698 87.2655C112.161 87.5121 112.506 87.8622 112.733 88.3159C112.96 88.7597 113.074 89.2874 113.074 89.8988V94.5144H111.964L111.89 93.1977C111.791 93.4049 111.663 93.6021 111.505 93.7895C111.357 93.967 111.18 94.1248 110.973 94.2629C110.766 94.3911 110.529 94.4947 110.263 94.5735C110.006 94.6524 109.71 94.6919 109.375 94.6919ZM109.567 93.6416C109.913 93.6416 110.223 93.5725 110.499 93.4344C110.785 93.2865 111.027 93.0893 111.224 92.8427C111.422 92.5863 111.569 92.3052 111.668 91.9995C111.777 91.6937 111.831 91.3733 111.831 91.0379V90.9935H109.967C109.484 90.9935 109.094 91.0527 108.798 91.171C108.502 91.2795 108.29 91.4373 108.162 91.6444C108.034 91.8416 107.97 92.0685 107.97 92.3249C107.97 92.5912 108.029 92.823 108.147 93.0202C108.275 93.2174 108.458 93.3704 108.695 93.4788C108.941 93.5873 109.232 93.6416 109.567 93.6416ZM114.996 94.5144V83.863H116.239V94.5144H114.996ZM121.559 94.6919C120.859 94.6919 120.238 94.5292 119.695 94.2037C119.163 93.8783 118.743 93.4245 118.438 92.8427C118.132 92.251 117.979 91.5656 117.979 90.7864C117.979 89.9975 118.127 89.3119 118.423 88.7301C118.729 88.1483 119.153 87.6946 119.695 87.3691C120.247 87.0436 120.879 86.8809 121.589 86.8809C122.318 86.8809 122.935 87.0436 123.438 87.3691C123.951 87.6946 124.34 88.1236 124.607 88.6561C124.883 89.1788 125.021 89.7558 125.021 90.387C125.021 90.4856 125.021 90.5892 125.021 90.6976C125.021 90.8061 125.016 90.9294 125.006 91.0675H118.911V90.1059H123.808C123.778 89.4254 123.551 88.8928 123.127 88.5082C122.713 88.1236 122.19 87.9313 121.559 87.9313C121.135 87.9313 120.741 88.0299 120.376 88.2271C120.021 88.4145 119.735 88.6956 119.518 89.0704C119.301 89.4353 119.192 89.8939 119.192 90.4462V90.8604C119.192 91.4718 119.301 91.9847 119.518 92.3989C119.744 92.8131 120.035 93.1238 120.39 93.3309C120.755 93.538 121.145 93.6416 121.559 93.6416C122.082 93.6416 122.511 93.5281 122.846 93.3013C123.191 93.0646 123.438 92.7491 123.586 92.3545H124.814C124.695 92.7983 124.488 93.1977 124.192 93.5528C123.896 93.9078 123.527 94.1889 123.083 94.396C122.649 94.5932 122.141 94.6919 121.559 94.6919ZM126.698 94.5144V87.0584H127.822L127.881 88.3603C128.118 87.8968 128.453 87.5367 128.887 87.2803C129.331 87.0141 129.834 86.8809 130.396 86.8809C130.978 86.8809 131.481 86.9993 131.905 87.236C132.329 87.4628 132.66 87.8129 132.896 88.2863C133.133 88.7498 133.251 89.3415 133.251 90.0615V94.5144H132.009V90.1947C132.009 89.4451 131.841 88.8829 131.506 88.5082C131.18 88.1335 130.717 87.946 130.115 87.946C129.701 87.946 129.331 88.0496 129.006 88.2567C128.68 88.4539 128.419 88.7449 128.222 89.1295C128.034 89.5043 127.94 89.9728 127.94 90.5349V94.5144H126.698ZM138.477 94.6919C137.757 94.6919 137.126 94.5243 136.583 94.1889C136.041 93.8438 135.621 93.3753 135.326 92.7835C135.03 92.1918 134.882 91.5212 134.882 90.7716C134.882 90.022 135.03 89.3563 135.326 88.7745C135.621 88.1827 136.041 87.7192 136.583 87.3839C137.135 87.0485 137.771 86.8809 138.492 86.8809C139.103 86.8809 139.636 87.0042 140.09 87.2507C140.553 87.4973 140.908 87.8425 141.155 88.2863V83.863H142.397V94.5144H141.273L141.17 93.2865C141.011 93.5331 140.809 93.7648 140.563 93.9818C140.316 94.1889 140.02 94.3615 139.675 94.4996C139.329 94.6278 138.93 94.6919 138.477 94.6919ZM138.625 93.612C139.118 93.612 139.551 93.4936 139.927 93.2569C140.301 93.0202 140.593 92.6948 140.8 92.2805C141.007 91.8564 141.11 91.3585 141.11 90.7864C141.11 90.2242 141.007 89.7312 140.8 89.3071C140.593 88.8829 140.301 88.5526 139.927 88.3159C139.551 88.0792 139.118 87.9608 138.625 87.9608C138.141 87.9608 137.712 88.0792 137.338 88.3159C136.963 88.5526 136.672 88.8829 136.465 89.3071C136.258 89.7312 136.154 90.2242 136.154 90.7864C136.154 91.3585 136.258 91.8564 136.465 92.2805C136.672 92.6948 136.963 93.0202 137.338 93.2569C137.712 93.4936 138.141 93.612 138.625 93.612ZM146.893 94.6919C146.291 94.6919 145.789 94.5883 145.385 94.3812C144.981 94.1642 144.679 93.8831 144.482 93.538C144.285 93.183 144.186 92.7983 144.186 92.3841C144.186 91.8811 144.315 91.457 144.571 91.1119C144.837 90.7568 145.207 90.4905 145.68 90.313C146.164 90.1256 146.731 90.0319 147.382 90.0319H149.349C149.349 89.5684 149.275 89.1838 149.127 88.878C148.99 88.5625 148.783 88.3258 148.506 88.1679C148.24 88.0101 147.904 87.9313 147.5 87.9313C147.027 87.9313 146.617 88.0496 146.272 88.2863C145.927 88.523 145.715 88.8731 145.636 89.3366H144.364C144.423 88.8041 144.6 88.3603 144.896 88.0052C145.202 87.6403 145.587 87.3642 146.05 87.1768C146.513 86.9796 146.997 86.8809 147.5 86.8809C148.191 86.8809 148.762 87.0092 149.216 87.2655C149.679 87.5121 150.025 87.8622 150.252 88.3159C150.478 88.7597 150.592 89.2874 150.592 89.8988V94.5144H149.482L149.408 93.1977C149.309 93.4049 149.182 93.6021 149.024 93.7895C148.876 93.967 148.698 94.1248 148.491 94.2629C148.284 94.3911 148.047 94.4947 147.781 94.5735C147.525 94.6524 147.229 94.6919 146.893 94.6919ZM147.086 93.6416C147.431 93.6416 147.741 93.5725 148.018 93.4344C148.303 93.2865 148.546 93.0893 148.743 92.8427C148.94 92.5863 149.087 92.3052 149.186 91.9995C149.295 91.6937 149.349 91.3733 149.349 91.0379V90.9935H147.485C147.002 90.9935 146.612 91.0527 146.317 91.171C146.021 91.2795 145.809 91.4373 145.68 91.6444C145.552 91.8416 145.488 92.0685 145.488 92.3249C145.488 92.5912 145.547 92.823 145.666 93.0202C145.794 93.2174 145.976 93.3704 146.213 93.4788C146.46 93.5873 146.75 93.6416 147.086 93.6416ZM152.514 94.5144V87.0584H153.638L153.727 88.4786C153.895 88.1433 154.107 87.8573 154.363 87.6206C154.629 87.3839 154.946 87.2015 155.31 87.0732C155.685 86.945 156.109 86.8809 156.582 86.8809V88.1827H156.124C155.808 88.1827 155.508 88.2271 155.221 88.3159C154.935 88.3947 154.679 88.5279 154.452 88.7153C154.236 88.9027 154.063 89.1591 153.934 89.4846C153.816 89.8001 153.757 90.1947 153.757 90.6681V94.5144H152.514ZM158.108 94.5144V87.0584H159.351V94.5144H158.108ZM158.729 85.4755C158.482 85.4755 158.275 85.3967 158.108 85.2388C157.95 85.0712 157.871 84.8641 157.871 84.6175C157.871 84.3709 157.95 84.1737 158.108 84.0258C158.275 83.8679 158.482 83.7891 158.729 83.7891C158.966 83.7891 159.168 83.8679 159.336 84.0258C159.503 84.1737 159.587 84.3709 159.587 84.6175C159.587 84.8641 159.503 85.0712 159.336 85.2388C159.168 85.3967 158.966 85.4755 158.729 85.4755ZM164.872 94.6919C164.181 94.6919 163.56 94.5341 163.008 94.2185C162.456 93.893 162.022 93.4393 161.706 92.8575C161.391 92.2658 161.233 91.5804 161.233 90.8012C161.233 90.0023 161.391 89.3119 161.706 88.7301C162.032 88.1384 162.471 87.6847 163.023 87.3691C163.585 87.0436 164.211 86.8809 164.902 86.8809C165.612 86.8809 166.238 87.0436 166.781 87.3691C167.332 87.6847 167.767 88.1384 168.082 88.7301C168.408 89.3119 168.571 89.9975 168.571 90.7864C168.571 91.5754 168.408 92.2658 168.082 92.8575C167.757 93.4393 167.318 93.893 166.766 94.2185C166.214 94.5341 165.582 94.6919 164.872 94.6919ZM164.887 93.6268C165.311 93.6268 165.705 93.5232 166.07 93.3161C166.436 93.0991 166.732 92.7786 166.958 92.3545C167.185 91.9304 167.298 91.4077 167.298 90.7864C167.298 90.1552 167.185 89.6325 166.958 89.2183C166.741 88.7942 166.451 88.4786 166.085 88.2715C165.73 88.0545 165.335 87.946 164.902 87.946C164.488 87.946 164.093 88.0545 163.718 88.2715C163.353 88.4786 163.057 88.7942 162.831 89.2183C162.613 89.6325 162.505 90.1552 162.505 90.7864C162.505 91.4077 162.613 91.9304 162.831 92.3545C163.057 92.7786 163.348 93.0991 163.703 93.3161C164.069 93.5232 164.463 93.6268 164.887 93.6268ZM177.526 94.6919C176.806 94.6919 176.176 94.5243 175.633 94.1889C175.09 93.8438 174.671 93.3753 174.375 92.7835C174.079 92.1918 173.932 91.5212 173.932 90.7716C173.932 90.022 174.079 89.3563 174.375 88.7745C174.671 88.1827 175.09 87.7192 175.633 87.3839C176.185 87.0485 176.821 86.8809 177.541 86.8809C178.152 86.8809 178.685 87.0042 179.139 87.2507C179.602 87.4973 179.957 87.8425 180.204 88.2863V83.863H181.447V94.5144H180.322L180.219 93.2865C180.061 93.5331 179.859 93.7648 179.612 93.9818C179.365 94.1889 179.069 94.3615 178.725 94.4996C178.38 94.6278 177.98 94.6919 177.526 94.6919ZM177.674 93.612C178.167 93.612 178.602 93.4936 178.976 93.2569C179.35 93.0202 179.642 92.6948 179.849 92.2805C180.056 91.8564 180.16 91.3585 180.16 90.7864C180.16 90.2242 180.056 89.7312 179.849 89.3071C179.642 88.8829 179.35 88.5526 178.976 88.3159C178.602 88.0792 178.167 87.9608 177.674 87.9608C177.191 87.9608 176.762 88.0792 176.387 88.3159C176.013 88.5526 175.722 88.8829 175.514 89.3071C175.307 89.7312 175.204 90.2242 175.204 90.7864C175.204 91.3585 175.307 91.8564 175.514 92.2805C175.722 92.6948 176.013 93.0202 176.387 93.2569C176.762 93.4936 177.191 93.612 177.674 93.612ZM186.786 94.6919C186.086 94.6919 185.465 94.5292 184.922 94.2037C184.389 93.8783 183.971 93.4245 183.665 92.8427C183.36 92.251 183.206 91.5656 183.206 90.7864C183.206 89.9975 183.354 89.3119 183.65 88.7301C183.956 88.1483 184.38 87.6946 184.922 87.3691C185.475 87.0436 186.105 86.8809 186.816 86.8809C187.546 86.8809 188.162 87.0436 188.665 87.3691C189.178 87.6946 189.567 88.1236 189.833 88.6561C190.11 89.1788 190.248 89.7558 190.248 90.387C190.248 90.4856 190.248 90.5892 190.248 90.6976C190.248 90.8061 190.243 90.9294 190.233 91.0675H184.138V90.1059H189.035C189.005 89.4254 188.779 88.8928 188.354 88.5082C187.94 88.1236 187.418 87.9313 186.786 87.9313C186.363 87.9313 185.968 88.0299 185.602 88.2271C185.247 88.4145 184.962 88.6956 184.744 89.0704C184.528 89.4353 184.419 89.8939 184.419 90.4462V90.8604C184.419 91.4718 184.528 91.9847 184.744 92.3989C184.972 92.8131 185.262 93.1238 185.617 93.3309C185.983 93.538 186.372 93.6416 186.786 93.6416C187.309 93.6416 187.738 93.5281 188.073 93.3013C188.419 93.0646 188.665 92.7491 188.813 92.3545H190.041C189.922 92.7983 189.715 93.1977 189.419 93.5528C189.123 93.9078 188.753 94.1889 188.31 94.396C187.876 94.5932 187.369 94.6919 186.786 94.6919ZM199.139 94.6919C198.419 94.6919 197.788 94.5243 197.245 94.1889C196.703 93.8438 196.283 93.3753 195.988 92.7835C195.692 92.1918 195.544 91.5212 195.544 90.7716C195.544 90.022 195.692 89.3563 195.988 88.7745C196.283 88.1827 196.703 87.7192 197.245 87.3839C197.798 87.0485 198.434 86.8809 199.153 86.8809C199.766 86.8809 200.298 87.0042 200.751 87.2507C201.215 87.4973 201.57 87.8425 201.816 88.2863V83.863H203.059V94.5144H201.935L201.831 93.2865C201.674 93.5331 201.471 93.7648 201.224 93.9818C200.979 94.1889 200.683 94.3615 200.337 94.4996C199.992 94.6278 199.593 94.6919 199.139 94.6919ZM199.286 93.612C199.78 93.612 200.214 93.4936 200.588 93.2569C200.964 93.0202 201.254 92.6948 201.461 92.2805C201.668 91.8564 201.772 91.3585 201.772 90.7864C201.772 90.2242 201.668 89.7312 201.461 89.3071C201.254 88.8829 200.964 88.5526 200.588 88.3159C200.214 88.0792 199.78 87.9608 199.286 87.9608C198.804 87.9608 198.375 88.0792 197.999 88.3159C197.625 88.5526 197.334 88.8829 197.127 89.3071C196.92 89.7312 196.816 90.2242 196.816 90.7864C196.816 91.3585 196.92 91.8564 197.127 92.2805C197.334 92.6948 197.625 93.0202 197.999 93.2569C198.375 93.4936 198.804 93.612 199.286 93.612ZM208.399 94.6919C207.698 94.6919 207.077 94.5292 206.535 94.2037C206.003 93.8783 205.583 93.4245 205.278 92.8427C204.972 92.251 204.819 91.5656 204.819 90.7864C204.819 89.9975 204.967 89.3119 205.263 88.7301C205.568 88.1483 205.993 87.6946 206.535 87.3691C207.087 87.0436 207.719 86.8809 208.429 86.8809C209.158 86.8809 209.775 87.0436 210.278 87.3691C210.79 87.6946 211.18 88.1236 211.447 88.6561C211.722 89.1788 211.861 89.7558 211.861 90.387C211.861 90.4856 211.861 90.5892 211.861 90.6976C211.861 90.8061 211.855 90.9294 211.846 91.0675H205.751V90.1059H210.648C210.618 89.4254 210.391 88.8928 209.967 88.5082C209.553 88.1236 209.03 87.9313 208.399 87.9313C207.975 87.9313 207.58 88.0299 207.216 88.2271C206.861 88.4145 206.574 88.6956 206.358 89.0704C206.14 89.4353 206.032 89.8939 206.032 90.4462V90.8604C206.032 91.4718 206.14 91.9847 206.358 92.3989C206.584 92.8131 206.876 93.1238 207.231 93.3309C207.595 93.538 207.985 93.6416 208.399 93.6416C208.922 93.6416 209.351 93.5281 209.686 93.3013C210.031 93.0646 210.278 92.7491 210.426 92.3545H211.654C211.536 92.7983 211.328 93.1977 211.033 93.5528C210.737 93.9078 210.367 94.1889 209.923 94.396C209.488 94.5932 208.981 94.6919 208.399 94.6919ZM216.348 94.6919C215.727 94.6919 215.185 94.5883 214.721 94.3812C214.268 94.1741 213.902 93.8882 213.626 93.5232C213.36 93.1485 213.197 92.7096 213.138 92.2066H214.41C214.46 92.463 214.564 92.6997 214.721 92.9167C214.879 93.1337 215.091 93.3112 215.357 93.4492C215.633 93.5775 215.969 93.6416 216.363 93.6416C216.709 93.6416 216.994 93.5923 217.221 93.4936C217.448 93.3852 217.616 93.2421 217.724 93.0646C217.842 92.8871 217.901 92.6948 217.901 92.4877C217.901 92.1819 217.827 91.9502 217.679 91.7924C217.542 91.6345 217.335 91.5113 217.058 91.4225C216.783 91.3239 216.447 91.2401 216.052 91.171C215.727 91.1119 215.407 91.033 215.091 90.9343C214.775 90.8357 214.494 90.7075 214.247 90.5497C214.002 90.3821 213.803 90.1799 213.656 89.9432C213.518 89.7065 213.448 89.4155 213.448 89.0704C213.448 88.6462 213.558 88.2715 213.774 87.946C213.991 87.6107 214.302 87.3494 214.706 87.162C215.12 86.9746 215.599 86.8809 216.141 86.8809C216.94 86.8809 217.586 87.0732 218.079 87.4579C218.573 87.8425 218.863 88.3998 218.952 89.1295H217.724C217.675 88.7548 217.512 88.4638 217.236 88.2567C216.969 88.0397 216.599 87.9313 216.126 87.9313C215.663 87.9313 215.308 88.0249 215.061 88.2123C214.824 88.3998 214.706 88.6462 214.706 88.952C214.706 89.1492 214.771 89.3267 214.898 89.4846C215.037 89.6325 215.234 89.7608 215.49 89.8692C215.756 89.9777 216.082 90.0664 216.466 90.1355C216.96 90.2242 217.409 90.3426 217.813 90.4905C218.218 90.6385 218.543 90.8604 218.789 91.1562C219.046 91.4422 219.174 91.8515 219.174 92.3841C219.174 92.8476 219.055 93.252 218.819 93.5972C218.592 93.9423 218.267 94.2136 217.842 94.4108C217.419 94.5982 216.92 94.6919 216.348 94.6919ZM223.39 94.6919C222.788 94.6919 222.285 94.5883 221.881 94.3812C221.476 94.1642 221.175 93.8831 220.978 93.538C220.78 93.183 220.682 92.7983 220.682 92.3841C220.682 91.8811 220.81 91.457 221.067 91.1119C221.333 90.7568 221.703 90.4905 222.177 90.313C222.659 90.1256 223.227 90.0319 223.878 90.0319H225.845C225.845 89.5684 225.771 89.1838 225.624 88.878C225.485 88.5625 225.278 88.3258 225.002 88.1679C224.736 88.0101 224.4 87.9313 223.996 87.9313C223.523 87.9313 223.113 88.0496 222.768 88.2863C222.422 88.523 222.211 88.8731 222.132 89.3366H220.86C220.919 88.8041 221.097 88.3603 221.393 88.0052C221.698 87.6403 222.082 87.3642 222.546 87.1768C223.01 86.9796 223.493 86.8809 223.996 86.8809C224.686 86.8809 225.258 87.0092 225.712 87.2655C226.175 87.5121 226.52 87.8622 226.748 88.3159C226.974 88.7597 227.088 89.2874 227.088 89.8988V94.5144H225.979L225.905 93.1977C225.806 93.4049 225.677 93.6021 225.52 93.7895C225.372 93.967 225.195 94.1248 224.987 94.2629C224.78 94.3911 224.544 94.4947 224.277 94.5735C224.02 94.6524 223.724 94.6919 223.39 94.6919ZM223.582 93.6416C223.927 93.6416 224.237 93.5725 224.514 93.4344C224.8 93.2865 225.041 93.0893 225.239 92.8427C225.436 92.5863 225.584 92.3052 225.683 91.9995C225.791 91.6937 225.845 91.3733 225.845 91.0379V90.9935H223.981C223.498 90.9935 223.109 91.0527 222.813 91.171C222.517 91.2795 222.304 91.4373 222.177 91.6444C222.048 91.8416 221.984 92.0685 221.984 92.3249C221.984 92.5912 222.043 92.823 222.162 93.0202C222.289 93.2174 222.473 93.3704 222.709 93.4788C222.955 93.5873 223.246 93.6416 223.582 93.6416ZM229.01 94.5144V87.0584H230.134L230.223 88.4786C230.39 88.1433 230.603 87.8573 230.859 87.6206C231.126 87.3839 231.441 87.2015 231.806 87.0732C232.18 86.945 232.605 86.8809 233.078 86.8809V88.1827H232.62C232.305 88.1827 232.003 88.2271 231.717 88.3159C231.432 88.3947 231.175 88.5279 230.948 88.7153C230.731 88.9027 230.559 89.1591 230.43 89.4846C230.312 89.8001 230.253 90.1947 230.253 90.6681V94.5144H229.01ZM234.485 94.5144V87.0584H235.609L235.698 88.4786C235.866 88.1433 236.078 87.8573 236.334 87.6206C236.6 87.3839 236.917 87.2015 237.281 87.0732C237.656 86.945 238.08 86.8809 238.553 86.8809V88.1827H238.094C237.779 88.1827 237.479 88.2271 237.192 88.3159C236.906 88.3947 236.65 88.5279 236.423 88.7153C236.207 88.9027 236.034 89.1591 235.905 89.4846C235.787 89.8001 235.728 90.1947 235.728 90.6681V94.5144H234.485ZM243.015 94.6919C242.324 94.6919 241.703 94.5341 241.151 94.2185C240.598 93.893 240.164 93.4393 239.849 92.8575C239.533 92.2658 239.376 91.5804 239.376 90.8012C239.376 90.0023 239.533 89.3119 239.849 88.7301C240.175 88.1384 240.613 87.6847 241.166 87.3691C241.728 87.0436 242.354 86.8809 243.045 86.8809C243.755 86.8809 244.381 87.0436 244.923 87.3691C245.475 87.6847 245.909 88.1384 246.225 88.7301C246.551 89.3119 246.713 89.9975 246.713 90.7864C246.713 91.5754 246.551 92.2658 246.225 92.8575C245.9 93.4393 245.461 93.893 244.909 94.2185C244.356 94.5341 243.725 94.6919 243.015 94.6919ZM243.03 93.6268C243.453 93.6268 243.848 93.5232 244.213 93.3161C244.577 93.0991 244.873 92.7786 245.101 92.3545C245.327 91.9304 245.441 91.4077 245.441 90.7864C245.441 90.1552 245.327 89.6325 245.101 89.2183C244.884 88.7942 244.592 88.4786 244.228 88.2715C243.873 88.0545 243.478 87.946 243.045 87.946C242.63 87.946 242.236 88.0545 241.861 88.2715C241.496 88.4786 241.2 88.7942 240.974 89.2183C240.756 89.6325 240.648 90.1552 240.648 90.7864C240.648 91.4077 240.756 91.9304 240.974 92.3545C241.2 92.7786 241.491 93.0991 241.846 93.3161C242.21 93.5232 242.605 93.6268 243.03 93.6268ZM248.456 94.5144V83.863H249.698V94.5144H248.456ZM251.749 94.5144V83.863H252.992V94.5144H251.749ZM258.372 94.6919C257.681 94.6919 257.06 94.5341 256.508 94.2185C255.956 93.893 255.521 93.4393 255.206 92.8575C254.891 92.2658 254.733 91.5804 254.733 90.8012C254.733 90.0023 254.891 89.3119 255.206 88.7301C255.532 88.1384 255.971 87.6847 256.523 87.3691C257.085 87.0436 257.711 86.8809 258.401 86.8809C259.112 86.8809 259.737 87.0436 260.28 87.3691C260.832 87.6847 261.267 88.1384 261.582 88.7301C261.908 89.3119 262.07 89.9975 262.07 90.7864C262.07 91.5754 261.908 92.2658 261.582 92.8575C261.257 93.4393 260.817 93.893 260.265 94.2185C259.714 94.5341 259.082 94.6919 258.372 94.6919ZM258.387 93.6268C258.811 93.6268 259.205 93.5232 259.57 93.3161C259.935 93.0991 260.231 92.7786 260.458 92.3545C260.684 91.9304 260.798 91.4077 260.798 90.7864C260.798 90.1552 260.684 89.6325 260.458 89.2183C260.24 88.7942 259.95 88.4786 259.585 88.2715C259.23 88.0545 258.835 87.946 258.401 87.946C257.987 87.946 257.592 88.0545 257.218 88.2715C256.853 88.4786 256.557 88.7942 256.33 89.2183C256.113 89.6325 256.005 90.1552 256.005 90.7864C256.005 91.4077 256.113 91.9304 256.33 92.3545C256.557 92.7786 256.848 93.0991 257.203 93.3161C257.568 93.5232 257.962 93.6268 258.387 93.6268Z" fill="#012C97"/>
<path d="M280.001 145.055L282.937 137.09H283.95L286.874 145.055H285.861L283.438 138.285L281.002 145.055H280.001ZM281.344 143.007L281.617 142.233H285.224L285.497 143.007H281.344ZM288.07 145.055V137.09H290.87C291.431 137.09 291.894 137.181 292.258 137.363C292.629 137.537 292.907 137.78 293.089 138.091C293.271 138.395 293.362 138.736 293.362 139.115C293.362 139.525 293.271 139.866 293.089 140.14C292.913 140.413 292.682 140.621 292.395 140.765C292.113 140.91 291.814 140.997 291.496 141.027L291.655 140.913C291.996 140.921 292.31 141.012 292.599 141.187C292.887 141.361 293.115 141.596 293.282 141.892C293.456 142.188 293.544 142.518 293.544 142.882C293.544 143.284 293.445 143.652 293.248 143.986C293.05 144.312 292.759 144.574 292.372 144.771C291.992 144.961 291.522 145.055 290.961 145.055H288.07ZM289.026 144.259H290.858C291.397 144.259 291.814 144.134 292.11 143.883C292.413 143.625 292.565 143.269 292.565 142.814C292.565 142.366 292.409 142.01 292.099 141.744C291.795 141.471 291.374 141.334 290.836 141.334H289.026V144.259ZM289.026 140.572H290.801C291.317 140.572 291.707 140.451 291.973 140.208C292.247 139.965 292.383 139.635 292.383 139.218C292.383 138.816 292.247 138.493 291.973 138.251C291.707 138.008 291.306 137.886 290.767 137.886H289.026V140.572ZM294.927 145.055V137.09H297.498C298.121 137.09 298.628 137.196 299.023 137.408C299.418 137.613 299.709 137.89 299.899 138.239C300.089 138.588 300.184 138.983 300.184 139.423C300.184 139.847 300.085 140.238 299.888 140.595C299.698 140.951 299.402 141.236 299 141.448C298.599 141.661 298.082 141.767 297.453 141.767H295.882V145.055H294.927ZM299.137 145.055L297.385 141.494H298.454L300.264 145.055H299.137ZM295.882 141.016H297.43C298.037 141.016 298.48 140.868 298.761 140.572C299.049 140.276 299.194 139.897 299.194 139.434C299.194 138.964 299.054 138.592 298.773 138.319C298.5 138.038 298.048 137.898 297.419 137.898H295.882V141.016Z" fill="#011853" fill-opacity="0.3"/>
<path d="M330.355 145.055V137.09H331.471L334.281 142.654L337.104 137.09H338.23V145.055H337.274V138.797L334.646 143.94H333.929L331.311 138.82V145.055H330.355ZM339.411 145.055L342.347 137.09H343.36L346.285 145.055H345.272L342.848 138.285L340.413 145.055H339.411ZM340.754 143.007L341.027 142.233H344.635L344.908 143.007H340.754ZM348.615 145.055V142.029L346.021 137.09H347.102L349.241 141.403H348.957L351.085 137.09H352.154L349.571 142.029V145.055H348.615Z" fill="#011853" fill-opacity="0.3"/>
<path d="M384.25 145.192C383.772 145.192 383.358 145.101 383.009 144.919C382.668 144.737 382.403 144.475 382.213 144.134C382.03 143.792 381.939 143.387 381.939 142.916H382.907C382.907 143.182 382.949 143.424 383.032 143.644C383.123 143.857 383.263 144.028 383.453 144.156C383.65 144.278 383.912 144.339 384.238 144.339C384.557 144.339 384.807 144.278 384.989 144.156C385.179 144.035 385.311 143.872 385.387 143.667C385.471 143.454 385.513 143.216 385.513 142.95V137.09H386.469V142.95C386.469 143.664 386.272 144.217 385.877 144.612C385.49 144.999 384.947 145.192 384.25 145.192ZM391.043 145.192C390.497 145.192 390 145.082 389.552 144.862C389.112 144.642 388.759 144.308 388.494 143.861C388.228 143.406 388.096 142.825 388.096 142.12V137.09H389.052V142.131C389.052 142.647 389.135 143.068 389.302 143.394C389.476 143.721 389.715 143.96 390.019 144.111C390.322 144.262 390.671 144.339 391.066 144.339C391.468 144.339 391.817 144.262 392.113 144.111C392.409 143.96 392.64 143.721 392.807 143.394C392.973 143.068 393.057 142.647 393.057 142.131V137.09H394.013V142.12C394.013 142.825 393.88 143.406 393.615 143.861C393.349 144.308 392.993 144.642 392.545 144.862C392.097 145.082 391.596 145.192 391.043 145.192ZM395.633 145.055V137.09H396.588L400.833 143.474V137.09H401.789V145.055H400.833L396.588 138.672V145.055H395.633Z" fill="#011853" fill-opacity="0.3"/>
<path d="M434.093 145.192C433.615 145.192 433.201 145.101 432.853 144.919C432.512 144.737 432.245 144.475 432.056 144.134C431.874 143.792 431.783 143.387 431.783 142.916H432.75C432.75 143.182 432.791 143.424 432.876 143.644C432.967 143.857 433.107 144.028 433.297 144.156C433.494 144.278 433.755 144.339 434.082 144.339C434.401 144.339 434.651 144.278 434.833 144.156C435.022 144.035 435.155 143.872 435.231 143.667C435.314 143.454 435.356 143.216 435.356 142.95V137.09H436.312V142.95C436.312 143.664 436.114 144.217 435.721 144.612C435.334 144.999 434.791 145.192 434.093 145.192ZM440.887 145.192C440.341 145.192 439.843 145.082 439.396 144.862C438.956 144.642 438.603 144.308 438.338 143.861C438.072 143.406 437.94 142.825 437.94 142.12V137.09H438.895V142.131C438.895 142.647 438.979 143.068 439.146 143.394C439.32 143.721 439.559 143.96 439.863 144.111C440.165 144.262 440.515 144.339 440.91 144.339C441.311 144.339 441.661 144.262 441.957 144.111C442.252 143.96 442.484 143.721 442.651 143.394C442.817 143.068 442.901 142.647 442.901 142.131V137.09H443.857V142.12C443.857 142.825 443.724 143.406 443.459 143.861C443.192 144.308 442.836 144.642 442.389 144.862C441.941 145.082 441.44 145.192 440.887 145.192ZM445.475 145.055V137.09H446.431V144.293H450.141V145.055H445.475Z" fill="#011853" fill-opacity="0.3"/>
<path d="M479.372 145.055L482.308 137.09H483.321L486.245 145.055H485.233L482.809 138.285L480.373 145.055H479.372ZM480.715 143.007L480.988 142.233H484.595L484.868 143.007H480.715ZM490.41 145.192C489.667 145.192 489.015 145.021 488.453 144.68C487.892 144.33 487.456 143.849 487.144 143.235C486.834 142.62 486.678 141.903 486.678 141.084C486.678 140.272 486.834 139.555 487.144 138.933C487.463 138.311 487.911 137.825 488.487 137.477C489.072 137.128 489.758 136.953 490.547 136.953C491.442 136.953 492.19 137.169 492.789 137.602C493.388 138.027 493.772 138.622 493.938 139.388H492.834C492.728 138.91 492.478 138.531 492.083 138.25C491.689 137.97 491.177 137.829 490.547 137.829C489.963 137.829 489.451 137.962 489.011 138.228C488.578 138.486 488.245 138.857 488.009 139.343C487.775 139.828 487.656 140.409 487.656 141.084C487.656 141.759 487.775 142.343 488.009 142.836C488.245 143.322 488.571 143.693 488.988 143.951C489.413 144.21 489.898 144.338 490.444 144.338C491.295 144.338 491.935 144.088 492.368 143.587C492.8 143.087 493.047 142.408 493.107 141.551H490.809V140.799H494.086V145.055H493.21L493.13 143.747C492.941 144.057 492.72 144.324 492.47 144.543C492.228 144.756 491.94 144.919 491.605 145.033C491.272 145.138 490.873 145.192 490.41 145.192ZM499.159 145.192C498.393 145.192 497.718 145.021 497.133 144.68C496.558 144.33 496.106 143.849 495.779 143.235C495.461 142.613 495.301 141.892 495.301 141.073C495.301 140.261 495.461 139.548 495.779 138.933C496.106 138.311 496.558 137.825 497.133 137.477C497.718 137.128 498.393 136.953 499.159 136.953C499.941 136.953 500.62 137.128 501.196 137.477C501.773 137.825 502.22 138.311 502.539 138.933C502.865 139.548 503.028 140.261 503.028 141.073C503.028 141.892 502.865 142.613 502.539 143.235C502.22 143.849 501.773 144.33 501.196 144.68C500.62 145.021 499.941 145.192 499.159 145.192ZM499.159 144.35C499.736 144.35 500.24 144.221 500.672 143.963C501.113 143.698 501.451 143.322 501.685 142.836C501.929 142.343 502.049 141.755 502.049 141.073C502.049 140.39 501.929 139.806 501.685 139.32C501.451 138.827 501.113 138.451 500.672 138.194C500.24 137.936 499.736 137.807 499.159 137.807C498.59 137.807 498.086 137.936 497.645 138.194C497.213 138.451 496.876 138.827 496.633 139.32C496.398 139.806 496.28 140.39 496.28 141.073C496.28 141.755 496.398 142.343 496.633 142.836C496.876 143.322 497.213 143.698 497.645 143.963C498.086 144.221 498.59 144.35 499.159 144.35Z" fill="#011853" fill-opacity="0.3"/>
<path d="M535.679 145.192C535.095 145.192 534.586 145.086 534.154 144.873C533.722 144.66 533.388 144.365 533.153 143.986C532.917 143.607 532.8 143.166 532.8 142.666H533.801C533.801 142.977 533.873 143.265 534.017 143.53C534.162 143.789 534.37 143.997 534.643 144.156C534.924 144.308 535.269 144.384 535.679 144.384C536.035 144.384 536.339 144.327 536.589 144.213C536.848 144.091 537.041 143.929 537.17 143.724C537.306 143.519 537.374 143.288 537.374 143.03C537.374 142.719 537.306 142.468 537.17 142.279C537.041 142.081 536.862 141.922 536.635 141.801C536.407 141.679 536.142 141.573 535.838 141.482C535.542 141.384 535.232 141.281 534.905 141.175C534.276 140.963 533.813 140.697 533.517 140.378C533.221 140.06 533.073 139.646 533.073 139.138C533.073 138.706 533.172 138.326 533.369 138C533.574 137.674 533.862 137.42 534.234 137.238C534.613 137.048 535.061 136.953 535.576 136.953C536.085 136.953 536.524 137.048 536.896 137.238C537.275 137.427 537.571 137.689 537.784 138.023C537.997 138.349 538.103 138.728 538.103 139.161H537.101C537.101 138.941 537.044 138.724 536.931 138.512C536.817 138.3 536.643 138.125 536.407 137.989C536.18 137.844 535.892 137.772 535.542 137.772C535.254 137.765 534.996 137.814 534.768 137.92C534.549 138.019 534.374 138.163 534.245 138.353C534.123 138.542 534.063 138.774 534.063 139.047C534.063 139.305 534.116 139.514 534.222 139.673C534.336 139.832 534.495 139.969 534.7 140.083C534.913 140.189 535.159 140.287 535.44 140.378C535.721 140.469 536.032 140.572 536.373 140.686C536.76 140.815 537.101 140.974 537.397 141.164C537.701 141.346 537.935 141.581 538.103 141.869C538.277 142.157 538.364 142.525 538.364 142.973C538.364 143.352 538.262 143.713 538.057 144.054C537.86 144.387 537.564 144.66 537.17 144.873C536.775 145.086 536.279 145.192 535.679 145.192ZM539.743 145.055V137.09H544.67V137.875H540.698V140.652H544.328V141.425H540.698V144.27H544.67V145.055H539.743ZM546.177 145.055V137.09H548.771C549.4 137.09 549.917 137.196 550.319 137.408C550.728 137.613 551.028 137.89 551.218 138.239C551.415 138.588 551.514 138.986 551.514 139.434C551.514 139.866 551.415 140.261 551.218 140.617C551.028 140.966 550.732 141.247 550.33 141.459C549.928 141.672 549.408 141.778 548.771 141.778H547.132V145.055H546.177ZM547.132 140.97H548.76C549.397 140.97 549.852 140.83 550.125 140.549C550.398 140.268 550.535 139.897 550.535 139.434C550.535 138.941 550.398 138.561 550.125 138.296C549.852 138.023 549.397 137.886 548.76 137.886H547.132V140.97Z" fill="#011853" fill-opacity="0.3"/>
</g>
</g>
<defs>
<filter id="filter0_di_579_1675" x="28.7715" y="32.4102" width="631.276" height="423.184" filterUnits="userSpaceOnUse" color-interpolation-filters="sRGB">
<feFlood flood-opacity="0" result="BackgroundImageFix"/>
<feColorMatrix in="SourceAlpha" type="matrix" values="0 0 0 0 0 0 0 0 0 0 0 0 0 0 0 0 0 0 127 0" result="hardAlpha"/>
<feOffset dy="10"/>
<feGaussianBlur stdDeviation="15"/>
<feComposite in2="hardAlpha" operator="out"/>
<feColorMatrix type="matrix" values="0 0 0 0 0.672988 0 0 0 0 0.695397 0 0 0 0 0.734238 0 0 0 0.35 0"/>
<feBlend mode="normal" in2="BackgroundImageFix" result="effect1_dropShadow_579_1675"/>
<feBlend mode="normal" in="SourceGraphic" in2="effect1_dropShadow_579_1675" result="shape"/>
<feColorMatrix in="SourceAlpha" type="matrix" values="0 0 0 0 0 0 0 0 0 0 0 0 0 0 0 0 0 0 127 0" result="hardAlpha"/>
<feOffset dy="-4"/>
<feGaussianBlur stdDeviation="2"/>
<feComposite in2="hardAlpha" operator="arithmetic" k2="-1" k3="1"/>
<feColorMatrix type="matrix" values="0 0 0 0 0.67451 0 0 0 0 0.694118 0 0 0 0 0.733333 0 0 0 0.2 0"/>
<feBlend mode="normal" in2="shape" result="effect2_innerShadow_579_1675"/>
</filter>
<clipPath id="clip0_579_1675">
<rect y="-24" width="586" height="402" rx="16" fill="white"/>
</clipPath>
</defs>
</svg>
