<?xml version="1.0" encoding="UTF-8"?>
<svg id="Capa_2" data-name="Capa 2" xmlns="http://www.w3.org/2000/svg" viewBox="0 0 540 340.5">
  <defs>
    <style>
      .cls-1 {
        fill: #fff;
      }
    </style>
  </defs>
  <g id="Capa_1-2" data-name="Capa 1">
    <path class="cls-1" d="M223.75,141.55c-3.1,0-4.84-1.17-4.84-3.26s1.64-3.07,4.73-3.07h7.73v.81c0,3.17-3.23,5.52-7.61,5.52ZM92.85,209.99c-3.48,0-5.46,2.46-5.46,7.03s1.97,7.04,5.46,7.04,5.43-2.47,5.43-7.04-1.95-7.03-5.43-7.03ZM177.67,166.82c-3.17,0-5.15,1.86-5.68,5.26h11.22c-.59-3.5-2.46-5.26-5.54-5.26ZM111.88,176.59h-11.15c-4.83,0-7.2,1.47-7.2,4.47,0,3.15,2.6,4.99,7.05,4.99,6.28,0,11.3-3.66,11.3-8.23v-1.24ZM98.11,138.3c0,2.09,1.75,3.26,4.84,3.26,4.38,0,7.61-2.35,7.61-5.52v-.81h-7.73c-3.1,0-4.73,1.06-4.73,3.07ZM540,0v256.45c0,46.42-37.86,84.05-84.56,84.05h0c-21.2,0-41.54-8.37-56.53-23.28l-38.19-35.97-34.19,35.97c-14.99,14.9-35.33,23.28-56.54,23.28s-41.54-8.37-56.54-23.28l-34.19-35.97-38.19,35.97c-14.99,14.9-35.33,23.28-56.53,23.28H0V84.05C0,37.63,37.86,0,84.56,0h0c21.2,0,41.54,8.37,56.53,23.28l38.19,35.97,34.19-35.97C228.46,8.37,248.79,0,270,0s41.54,8.37,56.54,23.28l34.19,35.97,38.19-35.97c14.99-14.9,35.33-23.28,56.53-23.28h84.56ZM152.61,132.61c0,8.79,5.73,14.52,13.96,14.52s13.96-5.73,13.96-14.52-5.73-14.51-13.96-14.51-13.96,5.72-13.96,14.51ZM154.83,161.02v-.72c0-2.52,1.39-3.7,4.46-3.7,1,0,2.21.11,3.46.32v-6.47c-1.77-.31-3.57-.49-5.14-.49-7.17,0-11.06,3.58-11.06,10.2v.85h-3.47l3.47,6.79v20.73h8.69v-20.73h7.51v-6.79h-7.91ZM143.04,113.24c0,.87.34,1.7.96,2.31.61.61,1.44.96,2.31.96h0c.87,0,1.7-.34,2.31-.96.61-.61.96-1.44.96-2.31v-1.09c0-.87-.34-1.7-.96-2.31-.61-.61-1.44-.96-2.31-.96h0c-.87,0-1.7.34-2.31.96-.61.61-.96,1.44-.96,2.31v1.09ZM142.57,146.38h7.48v-27.53h-7.48v27.53ZM121.66,146.38h7.48v-12.57c0-5.42,1.82-7.92,7.95-7.92h2.9v-7.04h-1.65c-5.38,0-8.2,3.67-9.2,9.56v-9.56h-7.48v27.53ZM138.72,181.05c0,3.21-3.25,5-8.38,5-5.52,0-8.59-2.05-8.59-5.63h-3.65c0,5.65,4.43,8.88,12.25,8.88s12-3.02,12-8.34c0-6.34-6.28-7.36-10.92-8.11l-1.74-.27c-3.57-.57-7.45-1.19-7.45-4.28,0-2.86,3.3-4.77,7.66-4.77,4.71,0,7.79,2.17,7.79,5.42h3.63c0-5.27-4.44-8.66-11.42-8.66s-11.31,3.18-11.31,8.1c0,5.63,5.93,6.6,10.31,7.35l1.71.29c3.94.66,8.1,1.4,8.1,5.03ZM110.57,130.05v.64h-8.5c-7.18,0-11.43,3.1-11.43,8.31,0,4.88,3.75,8.13,9.37,8.13s9.33-2.97,10.56-7.79v7.04h7.48v-16.33c0-7.53-4.97-11.95-13.37-11.95-7.13,0-11.88,3.16-12.99,8.39l6.81,2.24c.48-2.94,2.23-4.74,6-4.74s6.07,2.27,6.07,6.06ZM44.8,146.38h7.48v-14.44c0-4.73,1.98-7.32,5.47-7.32,3.28,0,4.89,2.32,4.89,7.02v14.74h7.48v-14.44c0-4.73,1.99-7.32,5.47-7.32,3.28,0,4.89,2.32,4.89,7.02v14.74h7.48v-15.99c0-7.95-3.03-12.28-8.68-12.28-5.04,0-8.33,3.43-9.31,9.61-.65-6.29-3.56-9.61-8.53-9.61s-8.03,3.13-9.16,8.85v-8.1h-7.48v27.53ZM48.53,203.2h-3.72v27.52h3.72v-27.52ZM48.86,196.37c0-1.21-.98-2.18-2.19-2.18s-2.18.98-2.18,2.18v.71c0,1.21.98,2.18,2.18,2.18s2.19-.98,2.19-2.18v-.71ZM56.78,163.69c4.62,0,7.15,3.33,7.15,9.34v15.55h3.72v-14.93c0-6.07,3.25-9.96,8.24-9.96,4.62,0,7.15,3.33,7.15,9.34v15.55h3.72v-15.55c0-7.81-3.6-12.72-9.4-12.72-5.07,0-8.83,3.76-9.93,9.62-.82-5.99-4.19-9.62-9.19-9.62s-8.41,3.36-9.72,8.68v-7.93h-3.72v27.53h3.72v-14.93c0-6.07,3.26-9.96,8.25-9.96ZM77.84,192.67c-1.77-.31-3.57-.49-5.14-.49-7.17,0-11.06,3.58-11.06,10.2v.85h-3.47l3.47,6.79v20.73h8.69v-20.73h7.52v-6.79h-7.91v-.72c0-2.52,1.39-3.7,4.46-3.7,1,0,2.21.11,3.46.32v-6.47ZM107.05,217.02c0-8.82-5.89-14.51-14.21-14.51s-14.21,5.68-14.21,14.51,5.91,14.52,14.21,14.52,14.21-5.69,14.21-14.52ZM111.88,180.9v7.68h3.72v-16.32c0-7.48-4.79-11.95-12.76-11.95-6.86,0-11.43,3.31-12.09,8.57l3.64,1.34c0-3.94,2.91-6.53,8.39-6.53s9.1,3.23,9.1,8.56v1.17h-11.12c-6.98,0-10.9,2.8-10.9,7.73s3.88,8.16,9.79,8.16,10.87-3.41,12.23-8.43ZM136.2,214.55c0-7.94-2.93-11.98-8.7-11.98-5.09,0-8.33,3.15-9.4,9.17v-8.43h-8.69v27.53h8.69v-14.22c0-4.31,1.75-6.58,4.92-6.58s4.49,2.1,4.49,6.38v14.42h8.69v-16.29ZM165.43,222.78c0-6.53-6.52-7.68-10.86-8.45l-1.85-.32c-2.98-.52-5.33-.92-5.33-2.87,0-1.51,1.72-2.52,4.23-2.52,2.92,0,4.46,1.4,4.46,3.82h8.6c0-6.13-4.89-9.84-13.28-9.84-7.89,0-12.6,3.28-12.6,8.7,0,6.38,6.53,7.53,10.52,8.24l1.85.34c3.52.62,5.65,1.01,5.65,3.03,0,1.62-1.85,2.62-4.81,2.62-3.45,0-5.14-1.39-5.14-3.96h-8.6c0,6.46,4.84,10.05,13.82,10.05,8.51,0,13.33-3.22,13.33-8.84ZM191.37,174.74c0-8.7-5.49-14.47-13.77-14.47s-13.94,5.84-13.94,14.49,5.69,14.53,14.09,14.53c6.8,0,11.96-3.86,13.49-10.17h-8c-.97,2.32-2.7,3.48-5.24,3.48-3.46,0-5.67-2.13-6.09-5.79h19.35c.07-.69.11-1.4.11-2.07ZM196.48,124.62c3.58,0,5.34,2.32,5.34,7.02v14.74h7.48v-15.99c0-1.52-.12-2.92-.35-4.17-.98-5.28-3.99-8.11-8.79-8.11-5.1,0-8.51,3.2-9.67,9.03v-8.28h-7.48v27.53h7.48v-14.44c0-4.73,2.17-7.32,5.99-7.32ZM212.63,161.16h-1.84c-5.18,0-7.63,3.86-8.48,9.95v-9.95h-8.69v27.53h8.69v-12.05c0-5.07,1.44-7.34,6.59-7.34h3.72v-8.14ZM220.81,147.11c5.38,0,9.33-2.97,10.56-7.79v7.04h7.48v-16.33c0-7.53-4.97-11.95-13.37-11.95-7.13,0-11.88,3.16-12.99,8.39l6.81,2.24c.48-2.94,2.23-4.74,6-4.74s6.07,2.27,6.07,6.05v.64h-8.5c-7.18,0-11.44,3.1-11.44,8.31,0,4.88,3.75,8.13,9.37,8.13ZM233.9,161.02h-1.83c-5.18,0-7.63,3.86-8.48,9.95v-9.95h-8.69v27.53h8.69v-12.05c0-5.07,1.44-7.34,6.59-7.34h3.72v-8.14ZM262.67,174.74c0-8.7-5.49-14.47-13.77-14.47s-13.95,5.84-13.95,14.49,5.69,14.53,14.09,14.53c6.8,0,11.96-3.86,13.49-10.17h-8c-.97,2.32-2.7,3.48-5.24,3.48-3.46,0-5.67-2.13-6.09-5.79h19.35c.07-.69.11-1.4.11-2.07ZM283.81,161.02h-1.83c-5.18,0-7.63,3.86-8.48,9.95v-9.95h-8.69v27.53h8.69v-12.05c0-5.07,1.44-7.34,6.59-7.34h3.72v-8.14ZM166.57,140.61c4.06,0,6.43-2.9,6.43-8s-2.37-7.99-6.43-7.99-6.43,2.9-6.43,7.99,2.38,8,6.43,8ZM248.97,166.82c-3.17,0-5.16,1.86-5.68,5.26h11.22c-.59-3.5-2.46-5.26-5.54-5.26Z"/>
  </g>
</svg>