<svg preserveAspectRatio="none" width="100%" height="100%" overflow="visible" style="display: block;" viewBox="0 0 32 32" fill="none" xmlns="http://www.w3.org/2000/svg">
<g id="Frame">
<path id="Vector" fill-rule="evenodd" clip-rule="evenodd" d="M16.0003 1.6665C8.08425 1.6665 1.66699 8.08376 1.66699 15.9998C1.66699 23.916 8.08425 30.3332 16.0003 30.3332C23.9165 30.3332 30.3337 23.916 30.3337 15.9998C30.3337 8.08376 23.9165 1.6665 16.0003 1.6665ZM10.0409 15.9594C9.65039 15.5689 9.01723 15.5689 8.6267 15.9594C8.23618 16.35 8.23618 16.983 8.6267 17.3736L12.6267 21.3736C13.0172 21.7641 13.6505 21.7641 14.0409 21.3736L23.3742 12.0403C23.7647 11.6498 23.7647 11.0166 23.3742 10.6261C22.9837 10.2355 22.3506 10.2355 21.9601 10.6261L13.3338 19.2522L10.0409 15.9594Z" fill="var(--fill-0, #0542A7)"/>
</g>
</svg>
