<svg preserveAspectRatio="none" width="100%" height="100%" overflow="visible" style="display: block;" viewBox="0 0 32 32" fill="none" xmlns="http://www.w3.org/2000/svg">
<g id="Frame">
<path id="Vector" fill-rule="evenodd" clip-rule="evenodd" d="M15.9993 1.66675C8.08327 1.66675 1.66602 8.084 1.66602 16.0001C1.66602 23.9162 8.08327 30.3334 15.9993 30.3334C23.9155 30.3334 30.3327 23.9162 30.3327 16.0001C30.3327 8.084 23.9155 1.66675 15.9993 1.66675ZM10.0399 15.9597C9.64941 15.5691 9.01626 15.5691 8.62572 15.9597C8.2352 16.3502 8.2352 16.9833 8.62572 17.3738L12.6257 21.3738C13.0163 21.7643 13.6495 21.7643 14.0399 21.3738L23.3732 12.0405C23.7637 11.65 23.7637 11.0168 23.3732 10.6263C22.9827 10.2358 22.3496 10.2358 21.9591 10.6263L13.3328 19.2525L10.0399 15.9597Z" fill="var(--fill-0, #0542A7)"/>
</g>
</svg>
