<svg preserveAspectRatio="none" width="100%" height="100%" overflow="visible" style="display: block;" viewBox="0 0 32 32" fill="none" xmlns="http://www.w3.org/2000/svg">
<g id="Frame">
<path id="Vector" d="M10.666 20.5334V11.4667C10.666 11.0249 11.0242 10.6667 11.466 10.6667H20.5327C20.9745 10.6667 21.3327 11.0249 21.3327 11.4667V20.5334C21.3327 20.9753 20.9745 21.3334 20.5327 21.3334H11.466C11.0242 21.3334 10.666 20.9753 10.666 20.5334Z" stroke="var(--stroke-0, #EC9A37)" stroke-width="1.5" stroke-linecap="round" stroke-linejoin="round"/>
<path id="Vector_2" d="M26.6673 6.13325V25.8666C26.6673 26.3085 26.3092 26.6666 25.8673 26.6666H6.13398C5.69216 26.6666 5.33398 26.3085 5.33398 25.8666V6.13325C5.33398 5.69143 5.69216 5.33325 6.13398 5.33325H25.8673C26.3092 5.33325 26.6673 5.69143 26.6673 6.13325Z" stroke="var(--stroke-0, #EC9A37)" stroke-width="1.5" stroke-linecap="round" stroke-linejoin="round"/>
<path id="Vector_3" d="M22.666 5.33341V2.66675" stroke="var(--stroke-0, #EC9A37)" stroke-width="1.5" stroke-linecap="round" stroke-linejoin="round"/>
<path id="Vector_4" d="M16 5.33333V2.66667" stroke="var(--stroke-0, #EC9A37)" stroke-width="1.5" stroke-linecap="round" stroke-linejoin="round"/>
<path id="Vector_5" d="M9.33398 5.33341V2.66675" stroke="var(--stroke-0, #EC9A37)" stroke-width="1.5" stroke-linecap="round" stroke-linejoin="round"/>
<path id="Vector_6" d="M9.33398 26.6667V29.3334" stroke="var(--stroke-0, #EC9A37)" stroke-width="1.5" stroke-linecap="round" stroke-linejoin="round"/>
<path id="Vector_7" d="M16 26.6667V29.3333" stroke="var(--stroke-0, #EC9A37)" stroke-width="1.5" stroke-linecap="round" stroke-linejoin="round"/>
<path id="Vector_8" d="M22.666 26.6667V29.3334" stroke="var(--stroke-0, #EC9A37)" stroke-width="1.5" stroke-linecap="round" stroke-linejoin="round"/>
<path id="Vector_9" d="M26.666 22.6667H29.3327" stroke="var(--stroke-0, #EC9A37)" stroke-width="1.5" stroke-linecap="round" stroke-linejoin="round"/>
<path id="Vector_10" d="M26.666 16H29.3327" stroke="var(--stroke-0, #EC9A37)" stroke-width="1.5" stroke-linecap="round" stroke-linejoin="round"/>
<path id="Vector_11" d="M26.666 9.33325H29.3327" stroke="var(--stroke-0, #EC9A37)" stroke-width="1.5" stroke-linecap="round" stroke-linejoin="round"/>
<path id="Vector_12" d="M5.33268 22.6667H2.66602" stroke="var(--stroke-0, #EC9A37)" stroke-width="1.5" stroke-linecap="round" stroke-linejoin="round"/>
<path id="Vector_13" d="M5.33268 16H2.66602" stroke="var(--stroke-0, #EC9A37)" stroke-width="1.5" stroke-linecap="round" stroke-linejoin="round"/>
<path id="Vector_14" d="M5.33268 9.33325H2.66602" stroke="var(--stroke-0, #EC9A37)" stroke-width="1.5" stroke-linecap="round" stroke-linejoin="round"/>
</g>
</svg>
