<svg preserveAspectRatio="none" width="100%" height="100%" overflow="visible" style="display: block;" viewBox="0 0 48 48" fill="none" xmlns="http://www.w3.org/2000/svg">
<g id="Frame">
<path id="Vector" d="M42 14.7052V33.2931C42 33.7289 41.7638 34.1303 41.3828 34.3421L24.5828 43.6753C24.2204 43.8767 23.7796 43.8767 23.4172 43.6753L6.61726 34.3421C6.23632 34.1303 6.00004 33.7289 6.00004 33.2931L6 14.7052C6 14.2694 6.23628 13.8679 6.61724 13.6562L23.4172 4.32288C23.7796 4.12154 24.2204 4.12154 24.5828 4.32288L41.3828 13.6562C41.7636 13.8679 42 14.2694 42 14.7052Z" stroke="var(--stroke-0, #F26949)" stroke-width="1.5" stroke-linecap="round" stroke-linejoin="round"/>
<path id="Vector_2" d="M7.05859 14.5863L23.4189 23.6753C23.7813 23.8767 24.2221 23.8767 24.5845 23.6753L41.0017 14.5547" stroke="var(--stroke-0, #F26949)" stroke-width="1.5" stroke-linecap="round" stroke-linejoin="round"/>
<path id="Vector_3" d="M24 42V24" stroke="var(--stroke-0, #F26949)" stroke-width="1.5" stroke-linecap="round" stroke-linejoin="round"/>
</g>
</svg>
