<svg preserveAspectRatio="none" width="100%" height="100%" overflow="visible" style="display: block;" viewBox="0 0 32 32" fill="none" xmlns="http://www.w3.org/2000/svg">
<g id="Frame">
<path id="Vector" d="M9.33398 18.668C7.12485 18.668 5.33398 20.4588 5.33398 22.668C5.33398 24.8772 7.12485 26.668 9.33398 26.668C9.8015 26.668 10.2503 26.5877 10.6673 26.4404" stroke="var(--stroke-0, #F26949)" stroke-width="1.5" stroke-linecap="round" stroke-linejoin="round"/>
<path id="Vector_2" d="M5.68452 20.8045C3.89836 19.9427 2.66602 18.1144 2.66602 15.9984C2.66602 14.3828 3.38432 12.9351 4.519 11.957" stroke="var(--stroke-0, #F26949)" stroke-width="1.5" stroke-linecap="round" stroke-linejoin="round"/>
<path id="Vector_3" d="M4.56071 11.8522C4.20653 11.3228 4 10.6861 4 10.0013C4 8.16036 5.49239 6.66797 7.33333 6.66797C8.08388 6.66797 8.77649 6.91602 9.33365 7.33464" stroke="var(--stroke-0, #F26949)" stroke-width="1.5" stroke-linecap="round" stroke-linejoin="round"/>
<path id="Vector_4" d="M9.6509 7.42174C9.44764 6.99084 9.33398 6.50934 9.33398 6.0013C9.33398 4.16036 10.8264 2.66797 12.6673 2.66797C14.5083 2.66797 16.0007 4.16036 16.0007 6.0013V26.668" stroke="var(--stroke-0, #F26949)" stroke-width="1.5" stroke-linecap="round" stroke-linejoin="round"/>
<path id="Vector_5" d="M10.666 26.668C10.666 28.1408 11.8599 29.3346 13.3327 29.3346C14.8055 29.3346 15.9993 28.1408 15.9993 26.668" stroke="var(--stroke-0, #F26949)" stroke-width="1.5" stroke-linecap="round" stroke-linejoin="round"/>
<path id="Vector_6" d="M16 9.33203C16 11.5412 17.7908 13.332 20 13.332" stroke="var(--stroke-0, #F26949)" stroke-width="1.5" stroke-linecap="round" stroke-linejoin="round"/>
<path id="Vector_7" d="M22.6673 18.668C24.8765 18.668 26.6673 20.4588 26.6673 22.668C26.6673 24.8772 24.8765 26.668 22.6673 26.668C22.1999 26.668 21.7511 26.5877 21.334 26.4404" stroke="var(--stroke-0, #F26949)" stroke-width="1.5" stroke-linecap="round" stroke-linejoin="round"/>
<path id="Vector_8" d="M26.3145 20.8045C28.1006 19.9427 29.333 18.1144 29.333 15.9984C29.333 14.3828 28.6146 12.9351 27.4799 11.957" stroke="var(--stroke-0, #F26949)" stroke-width="1.5" stroke-linecap="round" stroke-linejoin="round"/>
<path id="Vector_9" d="M27.4389 11.8522C27.7931 11.3228 27.9996 10.6861 27.9996 10.0013C27.9996 8.16036 26.5072 6.66797 24.6663 6.66797C23.9157 6.66797 23.2231 6.91602 22.666 7.33464" stroke="var(--stroke-0, #F26949)" stroke-width="1.5" stroke-linecap="round" stroke-linejoin="round"/>
<path id="Vector_10" d="M16 6.0013C16 4.16036 17.4924 2.66797 19.3333 2.66797C21.1743 2.66797 22.6667 4.16036 22.6667 6.0013C22.6667 6.50934 22.5531 6.99084 22.3497 7.42174" stroke="var(--stroke-0, #F26949)" stroke-width="1.5" stroke-linecap="round" stroke-linejoin="round"/>
<path id="Vector_11" d="M21.3333 26.668C21.3333 28.1408 20.1395 29.3346 18.6667 29.3346C17.1939 29.3346 16 28.1408 16 26.668" stroke="var(--stroke-0, #F26949)" stroke-width="1.5" stroke-linecap="round" stroke-linejoin="round"/>
</g>
</svg>
