<svg preserveAspectRatio="none" width="100%" height="100%" overflow="visible" style="display: block;" viewBox="0 0 32 32" fill="none" xmlns="http://www.w3.org/2000/svg">
<g id="Frame">
<path id="Vector" d="M28.6673 18.6667L26.6673 12.0001C26.6673 12.0001 26.0007 9.33341 23.334 9.33341C23.334 9.33341 23.334 6.66675 20.6673 6.66675C18.0007 6.66675 18.0007 9.33341 18.0007 9.33341H14.0007C14.0007 9.33341 14.0007 6.66675 11.334 6.66675C8.66732 6.66675 8.66732 9.33341 8.66732 9.33341C6.00065 9.33341 5.33398 12.0001 5.33398 12.0001L3.33398 18.6667" stroke="var(--stroke-0, #EC9A37)" stroke-width="1.5" stroke-linecap="round" stroke-linejoin="round"/>
<path id="Vector_2" d="M7.99935 26.6667C10.9449 26.6667 13.3327 24.2788 13.3327 21.3333C13.3327 18.3879 10.9449 16 7.99935 16C5.05383 16 2.66602 18.3879 2.66602 21.3333C2.66602 24.2788 5.05383 26.6667 7.99935 26.6667Z" stroke="var(--stroke-0, #EC9A37)" stroke-width="1.5" stroke-linecap="round" stroke-linejoin="round"/>
<path id="Vector_3" d="M23.9993 26.6667C26.9448 26.6667 29.3327 24.2788 29.3327 21.3333C29.3327 18.3879 26.9448 16 23.9993 16C21.0539 16 18.666 18.3879 18.666 21.3333C18.666 24.2788 21.0539 26.6667 23.9993 26.6667Z" stroke="var(--stroke-0, #EC9A37)" stroke-width="1.5" stroke-linecap="round" stroke-linejoin="round"/>
<path id="Vector_4" d="M16.0007 21.3333C17.4735 21.3333 18.6673 20.1395 18.6673 18.6667C18.6673 17.1939 17.4735 16 16.0007 16C14.5279 16 13.334 17.1939 13.334 18.6667C13.334 20.1395 14.5279 21.3333 16.0007 21.3333Z" stroke="var(--stroke-0, #EC9A37)" stroke-width="1.5" stroke-linecap="round" stroke-linejoin="round"/>
</g>
</svg>
