<svg preserveAspectRatio="none" width="100%" height="100%" overflow="visible" style="display: block;" viewBox="0 0 28 28" fill="none" xmlns="http://www.w3.org/2000/svg">
<g id="Frame">
<path id="Vector" d="M8.16797 22.1667V12.8333C8.16797 11.5447 9.21264 10.5 10.5013 10.5H23.3346C24.6233 10.5 25.668 11.5447 25.668 12.8333V22.1667C25.668 23.4554 24.6233 24.5 23.3346 24.5H10.5013C9.21264 24.5 8.16797 23.4554 8.16797 22.1667Z" stroke="var(--stroke-0, #EC9A37)" stroke-width="1.5"/>
<path id="Vector_2" d="M7.58203 18.6655H4.66536C3.3767 18.6655 2.33203 17.6209 2.33203 16.3322V6.99886C2.33203 5.7102 3.3767 4.66553 4.66536 4.66553H17.4987C18.7874 4.66553 19.832 5.7102 19.832 6.99886V10.4989" stroke="var(--stroke-0, #EC9A37)" stroke-width="1.5"/>
<path id="Vector_3" d="M11.668 14H12.8346" stroke="var(--stroke-0, #EC9A37)" stroke-width="1.5" stroke-linecap="round" stroke-linejoin="round"/>
<path id="Vector_4" d="M5.83203 8.16553H6.9987" stroke="var(--stroke-0, #EC9A37)" stroke-width="1.5" stroke-linecap="round" stroke-linejoin="round"/>
</g>
</svg>
