<svg preserveAspectRatio="none" width="100%" height="100%" overflow="visible" style="display: block;" viewBox="0 0 28 28" fill="none" xmlns="http://www.w3.org/2000/svg">
<g id="Frame">
<path id="Vector" d="M19.8333 14.5833C20.1554 14.5833 20.4167 14.3221 20.4167 14C20.4167 13.6779 20.1554 13.4167 19.8333 13.4167C19.5112 13.4167 19.25 13.6779 19.25 14C19.25 14.3221 19.5112 14.5833 19.8333 14.5833Z" fill="var(--fill-0, #EC9A37)" stroke="var(--stroke-0, #EC9A37)" stroke-width="1.5" stroke-linecap="round" stroke-linejoin="round"/>
<path id="Vector_2" d="M14.0013 14.5832C14.3234 14.5832 14.5846 14.322 14.5846 13.9998C14.5846 13.6777 14.3234 13.4165 14.0013 13.4165C13.6792 13.4165 13.418 13.6777 13.418 13.9998C13.418 14.322 13.6792 14.5832 14.0013 14.5832Z" fill="var(--fill-0, #EC9A37)" stroke="var(--stroke-0, #EC9A37)" stroke-width="1.5" stroke-linecap="round" stroke-linejoin="round"/>
<path id="Vector_3" d="M8.16536 14.5832C8.48753 14.5832 8.7487 14.322 8.7487 13.9998C8.7487 13.6777 8.48753 13.4165 8.16536 13.4165C7.8432 13.4165 7.58203 13.6777 7.58203 13.9998C7.58203 14.322 7.8432 14.5832 8.16536 14.5832Z" fill="var(--fill-0, #EC9A37)" stroke="var(--stroke-0, #EC9A37)" stroke-width="1.5" stroke-linecap="round" stroke-linejoin="round"/>
<path id="Vector_4" d="M13.9987 25.6668C20.442 25.6668 25.6654 20.4434 25.6654 14.0002C25.6654 7.55684 20.442 2.3335 13.9987 2.3335C7.55537 2.3335 2.33203 7.55684 2.33203 14.0002C2.33203 16.1251 2.90016 18.1174 3.89282 19.8335L2.91536 25.0835L8.16536 24.1061C9.88138 25.0987 11.8737 25.6668 13.9987 25.6668Z" stroke="var(--stroke-0, #EC9A37)" stroke-width="1.5" stroke-linecap="round" stroke-linejoin="round"/>
</g>
</svg>
