<svg preserveAspectRatio="none" width="100%" height="100%" overflow="visible" style="display: block;" viewBox="0 0 28 28" fill="none" xmlns="http://www.w3.org/2000/svg">
<g id="Frame">
<path id="Vector" d="M23.3346 14.0011V6.70776C23.3346 6.52211 23.2609 6.34406 23.1297 6.21278L19.4563 2.5395C19.325 2.40822 19.147 2.33447 18.9614 2.33447H5.36797C4.98137 2.33447 4.66797 2.64787 4.66797 3.03447V24.9678C4.66797 25.3544 4.98137 25.6678 5.36797 25.6678H12.8346" stroke="var(--stroke-0, #EC9A37)" stroke-width="1.5" stroke-linecap="round" stroke-linejoin="round"/>
<path id="Vector_2" d="M9.33203 11.6667H18.6654M9.33203 7H13.9987M9.33203 16.3333H12.832" stroke="var(--stroke-0, #EC9A37)" stroke-width="1.5" stroke-linecap="round" stroke-linejoin="round"/>
<path id="Vector_3" d="M19.0219 19.9655L20.0825 17.7166C20.2187 17.4278 20.6121 17.4278 20.7482 17.7166L21.8088 19.9655L24.1808 20.3284C24.4852 20.3749 24.6064 20.7665 24.3861 20.991L22.6701 22.7403L23.075 25.2117C23.127 25.529 22.8088 25.7711 22.5365 25.6212L20.4154 24.4537L18.2942 25.6212C18.0219 25.7711 17.7037 25.529 17.7557 25.2117L18.1607 22.7403L16.4446 20.991C16.2243 20.7665 16.3456 20.3749 16.6499 20.3284L19.0219 19.9655Z" stroke="var(--stroke-0, #EC9A37)" stroke-width="1.5" stroke-linecap="round" stroke-linejoin="round"/>
<path id="Vector_4" d="M18.668 2.33447V6.30114C18.668 6.68774 18.9813 7.00114 19.368 7.00114H23.3346" stroke="var(--stroke-0, #EC9A37)" stroke-width="1.5" stroke-linecap="round" stroke-linejoin="round"/>
</g>
</svg>
