<svg preserveAspectRatio="none" width="100%" height="100%" overflow="visible" style="display: block;" viewBox="0 0 28 28" fill="none" xmlns="http://www.w3.org/2000/svg">
<g id="Frame">
<path id="Vector" d="M4.66797 7V14C4.66797 14 4.66797 17.5 12.8346 17.5C21.0013 17.5 21.0013 14 21.0013 14V7" stroke="var(--stroke-0, #EC9A37)" stroke-width="1.5" stroke-linecap="round" stroke-linejoin="round"/>
<path id="Vector_2" d="M12.8346 3.5C21.0013 3.5 21.0013 7 21.0013 7C21.0013 7 21.0013 10.5 12.8346 10.5C4.66797 10.5 4.66797 7 4.66797 7C4.66797 7 4.66797 3.5 12.8346 3.5Z" stroke="var(--stroke-0, #EC9A37)" stroke-width="1.5" stroke-linecap="round" stroke-linejoin="round"/>
<path id="Vector_3" d="M12.8346 24.5C4.66797 24.5 4.66797 21 4.66797 21V14" stroke="var(--stroke-0, #EC9A37)" stroke-width="1.5" stroke-linecap="round" stroke-linejoin="round"/>
<path id="Vector_4" d="M20.1899 19.9655L21.2505 17.7165C21.3866 17.4278 21.78 17.4278 21.9162 17.7165L22.9768 19.9655L25.3488 20.3283C25.6531 20.3749 25.7743 20.7664 25.5541 20.991L23.838 22.7403L24.243 25.2117C24.295 25.529 23.9767 25.7711 23.7044 25.6212L21.5833 24.4537L19.4622 25.6212C19.1899 25.7711 18.8717 25.529 18.9237 25.2117L19.3286 22.7403L17.6126 20.991C17.3923 20.7664 17.5135 20.3749 17.8179 20.3283L20.1899 19.9655Z" stroke="var(--stroke-0, #EC9A37)" stroke-width="1.5" stroke-linecap="round" stroke-linejoin="round"/>
</g>
</svg>
