<svg width="586" height="419" viewBox="0 0 586 419" fill="none" xmlns="http://www.w3.org/2000/svg">
<g clip-path="url(#clip0_716_5093)">
<rect width="586" height="419" rx="16" fill="#CFECE7"/>
<g filter="url(#filter0_dd_716_5093)">
<rect x="157" y="99.0078" width="438" height="409" rx="16" fill="white"/>
<g clip-path="url(#clip1_716_5093)">
<mask id="mask0_716_5093" style="mask-type:luminance" maskUnits="userSpaceOnUse" x="517" y="121" width="55" height="57">
<path d="M572 149.008C572 133.544 559.688 121.008 544.5 121.008C529.312 121.008 517 133.544 517 149.008C517 164.472 529.312 177.008 544.5 177.008C559.688 177.008 572 164.472 572 149.008Z" fill="white"/>
</mask>
<g mask="url(#mask0_716_5093)">
<path d="M572 149.008C572 133.544 559.688 121.008 544.5 121.008C529.312 121.008 517 133.544 517 149.008C517 164.472 529.312 177.008 544.5 177.008C559.688 177.008 572 164.472 572 149.008Z" fill="#AFE0D6"/>
<path d="M544.5 192.454C554.904 192.454 563.339 183.866 563.339 173.272C563.339 162.678 554.904 154.09 544.5 154.09C534.095 154.09 525.66 162.678 525.66 173.272C525.66 183.866 534.095 192.454 544.5 192.454Z" fill="#0542A7"/>
<path d="M544.499 154.088C550.539 154.088 555.436 149.102 555.436 142.952C555.436 136.802 550.539 131.816 544.499 131.816C538.459 131.816 533.562 136.802 533.562 142.952C533.562 149.102 538.459 154.088 544.499 154.088Z" fill="#0542A7"/>
</g>
</g>
<g clip-path="url(#clip2_716_5093)">
<mask id="mask1_716_5093" style="mask-type:luminance" maskUnits="userSpaceOnUse" x="517" y="191" width="55" height="56">
<path d="M572 218.508C572 203.32 559.688 191.008 544.5 191.008C529.312 191.008 517 203.32 517 218.508C517 233.696 529.312 246.008 544.5 246.008C559.688 246.008 572 233.696 572 218.508Z" fill="white"/>
</mask>
<g mask="url(#mask1_716_5093)">
<path d="M572 218.508C572 203.32 559.688 191.008 544.5 191.008C529.312 191.008 517 203.32 517 218.508C517 233.696 529.312 246.008 544.5 246.008C559.688 246.008 572 233.696 572 218.508Z" fill="#E5A27C"/>
<path d="M544.5 261.179C554.904 261.179 563.339 252.744 563.339 242.339C563.339 231.935 554.904 223.5 544.5 223.5C534.095 223.5 525.66 231.935 525.66 242.339C525.66 252.744 534.095 261.179 544.5 261.179Z" fill="#D5E4FB"/>
<path d="M544.499 223.498C550.539 223.498 555.436 218.602 555.436 212.562C555.436 206.522 550.539 201.625 544.499 201.625C538.459 201.625 533.562 206.522 533.562 212.562C533.562 218.602 538.459 223.498 544.499 223.498Z" fill="#D5E4FB"/>
</g>
</g>
<g clip-path="url(#clip3_716_5093)">
<mask id="mask2_716_5093" style="mask-type:luminance" maskUnits="userSpaceOnUse" x="517" y="260" width="55" height="57">
<path d="M572 288.008C572 272.544 559.688 260.008 544.5 260.008C529.312 260.008 517 272.544 517 288.008C517 303.472 529.312 316.008 544.5 316.008C559.688 316.008 572 303.472 572 288.008Z" fill="white"/>
</mask>
<g mask="url(#mask2_716_5093)">
<path d="M572 288.008C572 272.544 559.688 260.008 544.5 260.008C529.312 260.008 517 272.544 517 288.008C517 303.472 529.312 316.008 544.5 316.008C559.688 316.008 572 303.472 572 288.008Z" fill="#5880C4"/>
<path d="M544.5 331.454C554.904 331.454 563.339 322.866 563.339 312.272C563.339 301.678 554.904 293.09 544.5 293.09C534.095 293.09 525.66 301.678 525.66 312.272C525.66 322.866 534.095 331.454 544.5 331.454Z" fill="#F2F4FB"/>
<path d="M544.499 293.088C550.539 293.088 555.436 288.102 555.436 281.952C555.436 275.802 550.539 270.816 544.499 270.816C538.459 270.816 533.562 275.802 533.562 281.952C533.562 288.102 538.459 293.088 544.499 293.088Z" fill="#F2F4FB"/>
</g>
</g>
<g clip-path="url(#clip4_716_5093)">
<rect x="175.131" y="119.008" width="326" height="197" rx="10" fill="#D5E4FB"/>
<circle cx="343.339" cy="326.406" r="80.3198" fill="#5880C4"/>
<circle cx="343.339" cy="199.459" r="46.6273" fill="#5880C4"/>
</g>
<rect x="268.34" y="333.508" width="44" height="44" rx="3.5" fill="white"/>
<rect x="268.34" y="333.508" width="44" height="44" rx="3.5" stroke="#AFE0D6"/>
<path d="M281.84 347.008L299.84 365.008" stroke="#011853" stroke-width="1.5" stroke-linecap="round" stroke-linejoin="round"/>
<path d="M287.84 353.008C287.84 355.769 290.078 358.008 292.84 358.008M293.84 354.508V349.008C293.84 347.351 292.497 346.008 290.84 346.008C289.183 346.008 287.84 347.351 287.84 349.008V349.508" stroke="#011853" stroke-width="1.5" stroke-linecap="round" stroke-linejoin="round"/>
<path d="M283.84 354.008V355.008C283.84 358.874 286.974 362.008 290.84 362.008C294.706 362.008 297.84 358.874 297.84 355.008V354.008" stroke="#011853" stroke-width="1.5" stroke-linecap="round" stroke-linejoin="round"/>
<path d="M290.84 362.008V366.008M290.84 366.008H287.84M290.84 366.008H293.84" stroke="#011853" stroke-width="1.5" stroke-linecap="round" stroke-linejoin="round"/>
<rect x="321.34" y="333.508" width="44" height="44" rx="3.5" fill="white"/>
<rect x="321.34" y="333.508" width="44" height="44" rx="3.5" stroke="#AFE0D6"/>
<path d="M346.34 355.508V359.908C346.34 360.239 346.071 360.508 345.74 360.508H334.94C334.608 360.508 334.34 360.239 334.34 359.908V351.108C334.34 350.776 334.608 350.508 334.94 350.508H345.74C346.071 350.508 346.34 350.776 346.34 351.108V355.508ZM346.34 355.508L351.356 351.328C351.747 351.002 352.34 351.28 352.34 351.789V359.227C352.34 359.736 351.747 360.013 351.356 359.688L346.34 355.508Z" stroke="#011853" stroke-width="1.5" stroke-linecap="round" stroke-linejoin="round"/>
<rect x="373.84" y="333.008" width="45" height="45" rx="4" fill="#AFE0D6"/>
<g clip-path="url(#clip5_716_5093)">
<path d="M390.603 357.922L392.951 354.445C395.905 353.466 398.254 353.385 400.729 354.445L403.105 357.91L406.871 359.617L409.523 356.965C410.32 356.168 410.289 354.881 409.382 354.212C407.117 352.541 402.672 349.849 397.547 349.849C392.166 349.849 387.123 352.557 384.526 354.226C383.523 354.87 383.435 356.243 384.278 357.086L386.813 359.62L390.603 357.922Z" stroke="#011853" stroke-width="1.5" stroke-linecap="round" stroke-linejoin="round"/>
</g>
</g>
<rect x="32.8398" y="226.008" width="209" height="48" rx="8" fill="#F2F2F2"/>
<rect x="40.8398" y="234.008" width="32" height="32" rx="8" fill="white"/>
<g clip-path="url(#clip6_716_5093)">
<path d="M52.4535 257.508L52.4535 255.365C52.2291 253.132 49.5898 251.937 49.5898 248.508C49.5898 245.08 51.6354 242.466 55.7263 242.508C58.6719 242.539 61.4535 244.223 61.4535 247.651L63.0898 250.222C63.0898 251.937 61.4535 251.937 61.4535 251.937C61.4535 251.937 61.8625 256.222 58.1807 256.222V257.508" stroke="#AFE0D6" stroke-width="1.5" stroke-linecap="round" stroke-linejoin="round"/>
<path d="M55.5898 250.008C56.4183 250.008 57.0898 249.336 57.0898 248.508C57.0898 247.679 56.4183 247.008 55.5898 247.008C55.3166 247.008 55.0605 247.081 54.8398 247.208C54.3915 247.468 54.0898 247.953 54.0898 248.508C54.0898 249.063 54.3915 249.548 54.8398 249.807C55.0605 249.935 55.3166 250.008 55.5898 250.008Z" stroke="#AFE0D6" stroke-width="1.5" stroke-linecap="round" stroke-linejoin="round"/>
<path d="M55.5898 250.758C56.8325 250.758 57.8398 249.75 57.8398 248.508C57.8398 247.265 56.8325 246.258 55.5898 246.258C54.3472 246.258 53.3398 247.265 53.3398 248.508C53.3398 249.75 54.3472 250.758 55.5898 250.758Z" stroke="#AFE0D6" stroke-width="1.5" stroke-linecap="round" stroke-linejoin="round" stroke-dasharray="0.3 2"/>
</g>
<path d="M82.8148 255.008V245.908H83.9068V254.137H88.1448V255.008H82.8148ZM89.7093 255.008V248.456H90.8013V255.008H89.7093ZM90.2553 247.065C90.0386 247.065 89.8566 246.995 89.7093 246.857C89.5706 246.709 89.5013 246.527 89.5013 246.311C89.5013 246.094 89.5706 245.921 89.7093 245.791C89.8566 245.652 90.0386 245.583 90.2553 245.583C90.4633 245.583 90.641 245.652 90.7883 245.791C90.9356 245.921 91.0093 246.094 91.0093 246.311C91.0093 246.527 90.9356 246.709 90.7883 246.857C90.641 246.995 90.4633 247.065 90.2553 247.065ZM95.6144 255.164C94.9817 255.164 94.427 255.016 93.9504 254.722C93.4737 254.418 93.1054 254.007 92.8454 253.487C92.5854 252.967 92.4554 252.377 92.4554 251.719C92.4554 251.06 92.5854 250.475 92.8454 249.964C93.1054 249.444 93.4737 249.036 93.9504 248.742C94.4357 248.447 94.9947 248.3 95.6274 248.3C96.1647 248.3 96.6327 248.408 97.0314 248.625C97.4387 248.841 97.7507 249.145 97.9674 249.535V245.648H99.0594V255.008H98.0714L97.9804 253.929C97.8417 254.145 97.664 254.349 97.4474 254.54C97.2307 254.722 96.9707 254.873 96.6674 254.995C96.364 255.107 96.013 255.164 95.6144 255.164ZM95.7444 254.215C96.1777 254.215 96.559 254.111 96.8884 253.903C97.2177 253.695 97.4734 253.409 97.6554 253.045C97.8374 252.672 97.9284 252.234 97.9284 251.732C97.9284 251.238 97.8374 250.804 97.6554 250.432C97.4734 250.059 97.2177 249.769 96.8884 249.561C96.559 249.353 96.1777 249.249 95.7444 249.249C95.3197 249.249 94.9427 249.353 94.6134 249.561C94.284 249.769 94.0284 250.059 93.8464 250.432C93.6644 250.804 93.5734 251.238 93.5734 251.732C93.5734 252.234 93.6644 252.672 93.8464 253.045C94.0284 253.409 94.284 253.695 94.6134 253.903C94.9427 254.111 95.3197 254.215 95.7444 254.215ZM103.752 255.164C103.136 255.164 102.59 255.021 102.114 254.735C101.646 254.449 101.277 254.05 101.009 253.539C100.74 253.019 100.606 252.416 100.606 251.732C100.606 251.038 100.736 250.436 100.996 249.925C101.264 249.413 101.637 249.015 102.114 248.729C102.599 248.443 103.154 248.3 103.778 248.3C104.419 248.3 104.961 248.443 105.403 248.729C105.853 249.015 106.196 249.392 106.43 249.86C106.672 250.319 106.794 250.826 106.794 251.381C106.794 251.467 106.794 251.558 106.794 251.654C106.794 251.749 106.789 251.857 106.781 251.979H101.425V251.134H105.728C105.702 250.536 105.502 250.068 105.13 249.73C104.766 249.392 104.306 249.223 103.752 249.223C103.379 249.223 103.032 249.309 102.712 249.483C102.4 249.647 102.148 249.894 101.958 250.224C101.767 250.544 101.672 250.947 101.672 251.433V251.797C101.672 252.334 101.767 252.785 101.958 253.149C102.157 253.513 102.413 253.786 102.725 253.968C103.045 254.15 103.388 254.241 103.752 254.241C104.211 254.241 104.588 254.141 104.883 253.942C105.186 253.734 105.403 253.456 105.533 253.11H106.612C106.508 253.5 106.326 253.851 106.066 254.163C105.806 254.475 105.481 254.722 105.091 254.904C104.709 255.077 104.263 255.164 103.752 255.164ZM108.267 255.008V248.456H109.255L109.333 249.704C109.481 249.409 109.667 249.158 109.892 248.95C110.126 248.742 110.404 248.581 110.724 248.469C111.054 248.356 111.426 248.3 111.842 248.3V249.444H111.439C111.162 249.444 110.898 249.483 110.646 249.561C110.395 249.63 110.17 249.747 109.97 249.912C109.78 250.076 109.628 250.302 109.515 250.588C109.411 250.865 109.359 251.212 109.359 251.628V255.008H108.267ZM115.211 255.164C114.682 255.164 114.24 255.073 113.885 254.891C113.53 254.7 113.265 254.453 113.092 254.15C112.919 253.838 112.832 253.5 112.832 253.136C112.832 252.694 112.945 252.321 113.17 252.018C113.404 251.706 113.729 251.472 114.145 251.316C114.57 251.151 115.068 251.069 115.64 251.069H117.369C117.369 250.661 117.304 250.323 117.174 250.055C117.053 249.777 116.871 249.569 116.628 249.431C116.394 249.292 116.099 249.223 115.744 249.223C115.328 249.223 114.968 249.327 114.665 249.535C114.362 249.743 114.175 250.05 114.106 250.458H112.988C113.04 249.99 113.196 249.6 113.456 249.288C113.725 248.967 114.063 248.724 114.47 248.56C114.877 248.386 115.302 248.3 115.744 248.3C116.351 248.3 116.853 248.412 117.252 248.638C117.659 248.854 117.963 249.162 118.162 249.561C118.361 249.951 118.461 250.414 118.461 250.952V255.008H117.486L117.421 253.851C117.334 254.033 117.222 254.206 117.083 254.371C116.953 254.527 116.797 254.665 116.615 254.787C116.433 254.899 116.225 254.99 115.991 255.06C115.766 255.129 115.506 255.164 115.211 255.164ZM115.38 254.241C115.683 254.241 115.956 254.18 116.199 254.059C116.45 253.929 116.663 253.755 116.836 253.539C117.009 253.313 117.139 253.066 117.226 252.798C117.321 252.529 117.369 252.247 117.369 251.953V251.914H115.731C115.306 251.914 114.964 251.966 114.704 252.07C114.444 252.165 114.258 252.304 114.145 252.486C114.032 252.659 113.976 252.858 113.976 253.084C113.976 253.318 114.028 253.521 114.132 253.695C114.245 253.868 114.405 254.002 114.613 254.098C114.83 254.193 115.085 254.241 115.38 254.241ZM119.708 255.008V254.111L123.335 249.366H119.773V248.456H124.583V249.353L120.943 254.098H124.648V255.008H119.708ZM128.691 258.024C128.102 258.024 127.578 257.946 127.118 257.79C126.668 257.642 126.317 257.413 126.065 257.101C125.814 256.789 125.688 256.403 125.688 255.944C125.688 255.744 125.727 255.532 125.805 255.307C125.892 255.081 126.035 254.86 126.234 254.644C126.442 254.427 126.733 254.232 127.105 254.059L127.859 254.501C127.4 254.691 127.101 254.908 126.962 255.151C126.824 255.402 126.754 255.632 126.754 255.84C126.754 256.126 126.837 256.364 127.001 256.555C127.166 256.745 127.396 256.888 127.69 256.984C127.985 257.079 128.319 257.127 128.691 257.127C129.064 257.127 129.385 257.075 129.653 256.971C129.922 256.867 130.13 256.719 130.277 256.529C130.425 256.338 130.498 256.113 130.498 255.853C130.498 255.549 130.386 255.294 130.16 255.086C129.935 254.886 129.506 254.769 128.873 254.735C128.362 254.7 127.933 254.652 127.586 254.592C127.24 254.531 126.954 254.462 126.728 254.384C126.503 254.297 126.312 254.202 126.156 254.098C126.009 253.994 125.875 253.885 125.753 253.773V253.474L127.014 252.226L127.963 252.564L126.663 253.734L126.832 253.279C126.928 253.348 127.019 253.413 127.105 253.474C127.192 253.534 127.309 253.586 127.456 253.63C127.604 253.673 127.807 253.712 128.067 253.747C128.336 253.781 128.687 253.816 129.12 253.851C129.718 253.894 130.195 253.998 130.55 254.163C130.914 254.327 131.174 254.548 131.33 254.826C131.495 255.103 131.577 255.432 131.577 255.814C131.577 256.186 131.473 256.537 131.265 256.867C131.066 257.205 130.754 257.482 130.329 257.699C129.905 257.915 129.359 258.024 128.691 258.024ZM128.678 252.954C128.132 252.954 127.664 252.85 127.274 252.642C126.893 252.434 126.603 252.156 126.403 251.81C126.204 251.454 126.104 251.06 126.104 250.627C126.104 250.193 126.204 249.803 126.403 249.457C126.611 249.11 126.906 248.833 127.287 248.625C127.669 248.408 128.132 248.3 128.678 248.3C129.224 248.3 129.688 248.408 130.069 248.625C130.451 248.833 130.741 249.11 130.94 249.457C131.14 249.803 131.239 250.193 131.239 250.627C131.239 251.06 131.14 251.454 130.94 251.81C130.741 252.156 130.451 252.434 130.069 252.642C129.688 252.85 129.224 252.954 128.678 252.954ZM128.678 252.057C129.146 252.057 129.515 251.935 129.783 251.693C130.052 251.45 130.186 251.095 130.186 250.627C130.186 250.167 130.052 249.816 129.783 249.574C129.515 249.331 129.146 249.21 128.678 249.21C128.219 249.21 127.846 249.331 127.56 249.574C127.283 249.816 127.144 250.167 127.144 250.627C127.144 251.095 127.283 251.45 127.56 251.693C127.838 251.935 128.21 252.057 128.678 252.057ZM129.744 249.379L129.419 248.456H132.097V249.275L129.744 249.379ZM136.024 255.164C135.418 255.164 134.872 255.025 134.386 254.748C133.901 254.462 133.52 254.063 133.242 253.552C132.965 253.032 132.826 252.429 132.826 251.745C132.826 251.043 132.965 250.436 133.242 249.925C133.528 249.405 133.914 249.006 134.399 248.729C134.893 248.443 135.444 248.3 136.05 248.3C136.674 248.3 137.225 248.443 137.701 248.729C138.187 249.006 138.568 249.405 138.845 249.925C139.131 250.436 139.274 251.038 139.274 251.732C139.274 252.425 139.131 253.032 138.845 253.552C138.559 254.063 138.174 254.462 137.688 254.748C137.203 255.025 136.648 255.164 136.024 255.164ZM136.037 254.228C136.41 254.228 136.757 254.137 137.077 253.955C137.398 253.764 137.658 253.482 137.857 253.11C138.057 252.737 138.156 252.278 138.156 251.732C138.156 251.177 138.057 250.718 137.857 250.354C137.667 249.981 137.411 249.704 137.09 249.522C136.778 249.331 136.432 249.236 136.05 249.236C135.686 249.236 135.34 249.331 135.01 249.522C134.69 249.704 134.43 249.981 134.23 250.354C134.04 250.718 133.944 251.177 133.944 251.732C133.944 252.278 134.04 252.737 134.23 253.11C134.43 253.482 134.685 253.764 134.997 253.955C135.318 254.137 135.665 254.228 136.037 254.228ZM147.132 255.164C146.516 255.164 145.97 255.021 145.494 254.735C145.026 254.449 144.657 254.05 144.389 253.539C144.12 253.019 143.986 252.416 143.986 251.732C143.986 251.038 144.116 250.436 144.376 249.925C144.644 249.413 145.017 249.015 145.494 248.729C145.979 248.443 146.534 248.3 147.158 248.3C147.799 248.3 148.341 248.443 148.783 248.729C149.233 249.015 149.576 249.392 149.81 249.86C150.052 250.319 150.174 250.826 150.174 251.381C150.174 251.467 150.174 251.558 150.174 251.654C150.174 251.749 150.169 251.857 150.161 251.979H144.805V251.134H149.108C149.082 250.536 148.882 250.068 148.51 249.73C148.146 249.392 147.686 249.223 147.132 249.223C146.759 249.223 146.412 249.309 146.092 249.483C145.78 249.647 145.528 249.894 145.338 250.224C145.147 250.544 145.052 250.947 145.052 251.433V251.797C145.052 252.334 145.147 252.785 145.338 253.149C145.537 253.513 145.793 253.786 146.105 253.968C146.425 254.15 146.768 254.241 147.132 254.241C147.591 254.241 147.968 254.141 148.263 253.942C148.566 253.734 148.783 253.456 148.913 253.11H149.992C149.888 253.5 149.706 253.851 149.446 254.163C149.186 254.475 148.861 254.722 148.471 254.904C148.089 255.077 147.643 255.164 147.132 255.164ZM154.117 255.164C153.571 255.164 153.095 255.073 152.687 254.891C152.289 254.709 151.968 254.457 151.725 254.137C151.491 253.807 151.348 253.422 151.296 252.98H152.414C152.458 253.205 152.549 253.413 152.687 253.604C152.826 253.794 153.012 253.95 153.246 254.072C153.489 254.184 153.784 254.241 154.13 254.241C154.434 254.241 154.685 254.197 154.884 254.111C155.084 254.015 155.231 253.89 155.326 253.734C155.43 253.578 155.482 253.409 155.482 253.227C155.482 252.958 155.417 252.754 155.287 252.616C155.166 252.477 154.984 252.369 154.741 252.291C154.499 252.204 154.204 252.13 153.857 252.07C153.571 252.018 153.29 251.948 153.012 251.862C152.735 251.775 152.488 251.662 152.271 251.524C152.055 251.376 151.881 251.199 151.751 250.991C151.63 250.783 151.569 250.527 151.569 250.224C151.569 249.851 151.665 249.522 151.855 249.236C152.046 248.941 152.319 248.711 152.674 248.547C153.038 248.382 153.459 248.3 153.935 248.3C154.637 248.3 155.205 248.469 155.638 248.807C156.072 249.145 156.327 249.634 156.405 250.276H155.326C155.283 249.946 155.14 249.691 154.897 249.509C154.663 249.318 154.338 249.223 153.922 249.223C153.515 249.223 153.203 249.305 152.986 249.47C152.778 249.634 152.674 249.851 152.674 250.12C152.674 250.293 152.731 250.449 152.843 250.588C152.965 250.718 153.138 250.83 153.363 250.926C153.597 251.021 153.883 251.099 154.221 251.16C154.655 251.238 155.049 251.342 155.404 251.472C155.76 251.602 156.046 251.797 156.262 252.057C156.488 252.308 156.6 252.668 156.6 253.136C156.6 253.543 156.496 253.898 156.288 254.202C156.089 254.505 155.803 254.743 155.43 254.917C155.058 255.081 154.62 255.164 154.117 255.164ZM160.455 255.008C160.065 255.008 159.727 254.947 159.441 254.826C159.155 254.704 158.934 254.501 158.778 254.215C158.63 253.92 158.557 253.526 158.557 253.032V249.379H157.413V248.456H158.557L158.7 246.87H159.649V248.456H161.547V249.379H159.649V253.032C159.649 253.439 159.731 253.716 159.896 253.864C160.06 254.002 160.351 254.072 160.767 254.072H161.469V255.008H160.455ZM162.972 255.008V248.456H163.96L164.038 249.704C164.185 249.409 164.371 249.158 164.597 248.95C164.831 248.742 165.108 248.581 165.429 248.469C165.758 248.356 166.131 248.3 166.547 248.3V249.444H166.144C165.866 249.444 165.602 249.483 165.351 249.561C165.099 249.63 164.874 249.747 164.675 249.912C164.484 250.076 164.332 250.302 164.22 250.588C164.116 250.865 164.064 251.212 164.064 251.628V255.008H162.972ZM169.915 255.164C169.386 255.164 168.944 255.073 168.589 254.891C168.234 254.7 167.969 254.453 167.796 254.15C167.623 253.838 167.536 253.5 167.536 253.136C167.536 252.694 167.649 252.321 167.874 252.018C168.108 251.706 168.433 251.472 168.849 251.316C169.274 251.151 169.772 251.069 170.344 251.069H172.073C172.073 250.661 172.008 250.323 171.878 250.055C171.757 249.777 171.575 249.569 171.332 249.431C171.098 249.292 170.803 249.223 170.448 249.223C170.032 249.223 169.672 249.327 169.369 249.535C169.066 249.743 168.879 250.05 168.81 250.458H167.692C167.744 249.99 167.9 249.6 168.16 249.288C168.429 248.967 168.767 248.724 169.174 248.56C169.581 248.386 170.006 248.3 170.448 248.3C171.055 248.3 171.557 248.412 171.956 248.638C172.363 248.854 172.667 249.162 172.866 249.561C173.065 249.951 173.165 250.414 173.165 250.952V255.008H172.19L172.125 253.851C172.038 254.033 171.926 254.206 171.787 254.371C171.657 254.527 171.501 254.665 171.319 254.787C171.137 254.899 170.929 254.99 170.695 255.06C170.47 255.129 170.21 255.164 169.915 255.164ZM170.084 254.241C170.387 254.241 170.66 254.18 170.903 254.059C171.154 253.929 171.367 253.755 171.54 253.539C171.713 253.313 171.843 253.066 171.93 252.798C172.025 252.529 172.073 252.247 172.073 251.953V251.914H170.435C170.01 251.914 169.668 251.966 169.408 252.07C169.148 252.165 168.962 252.304 168.849 252.486C168.736 252.659 168.68 252.858 168.68 253.084C168.68 253.318 168.732 253.521 168.836 253.695C168.949 253.868 169.109 254.002 169.317 254.098C169.534 254.193 169.789 254.241 170.084 254.241ZM177.251 255.008C176.861 255.008 176.523 254.947 176.237 254.826C175.951 254.704 175.73 254.501 175.574 254.215C175.426 253.92 175.353 253.526 175.353 253.032V249.379H174.209V248.456H175.353L175.496 246.87H176.445V248.456H178.343V249.379H176.445V253.032C176.445 253.439 176.527 253.716 176.692 253.864C176.856 254.002 177.147 254.072 177.563 254.072H178.265V255.008H177.251ZM182.463 255.164C181.847 255.164 181.301 255.021 180.825 254.735C180.357 254.449 179.988 254.05 179.72 253.539C179.451 253.019 179.317 252.416 179.317 251.732C179.317 251.038 179.447 250.436 179.707 249.925C179.975 249.413 180.348 249.015 180.825 248.729C181.31 248.443 181.865 248.3 182.489 248.3C183.13 248.3 183.672 248.443 184.114 248.729C184.564 249.015 184.907 249.392 185.141 249.86C185.383 250.319 185.505 250.826 185.505 251.381C185.505 251.467 185.505 251.558 185.505 251.654C185.505 251.749 185.5 251.857 185.492 251.979H180.136V251.134H184.439C184.413 250.536 184.213 250.068 183.841 249.73C183.477 249.392 183.017 249.223 182.463 249.223C182.09 249.223 181.743 249.309 181.423 249.483C181.111 249.647 180.859 249.894 180.669 250.224C180.478 250.544 180.383 250.947 180.383 251.433V251.797C180.383 252.334 180.478 252.785 180.669 253.149C180.868 253.513 181.124 253.786 181.436 253.968C181.756 254.15 182.099 254.241 182.463 254.241C182.922 254.241 183.299 254.141 183.594 253.942C183.897 253.734 184.114 253.456 184.244 253.11H185.323C185.219 253.5 185.037 253.851 184.777 254.163C184.517 254.475 184.192 254.722 183.802 254.904C183.42 255.077 182.974 255.164 182.463 255.164ZM181.163 247.897L181.046 247.117L183.659 245.453L183.815 246.389L181.163 247.897ZM189.527 258.024C188.938 258.024 188.414 257.946 187.954 257.79C187.504 257.642 187.153 257.413 186.901 257.101C186.65 256.789 186.524 256.403 186.524 255.944C186.524 255.744 186.563 255.532 186.641 255.307C186.728 255.081 186.871 254.86 187.07 254.644C187.278 254.427 187.569 254.232 187.941 254.059L188.695 254.501C188.236 254.691 187.937 254.908 187.798 255.151C187.66 255.402 187.59 255.632 187.59 255.84C187.59 256.126 187.673 256.364 187.837 256.555C188.002 256.745 188.232 256.888 188.526 256.984C188.821 257.079 189.155 257.127 189.527 257.127C189.9 257.127 190.221 257.075 190.489 256.971C190.758 256.867 190.966 256.719 191.113 256.529C191.261 256.338 191.334 256.113 191.334 255.853C191.334 255.549 191.222 255.294 190.996 255.086C190.771 254.886 190.342 254.769 189.709 254.735C189.198 254.7 188.769 254.652 188.422 254.592C188.076 254.531 187.79 254.462 187.564 254.384C187.339 254.297 187.148 254.202 186.992 254.098C186.845 253.994 186.711 253.885 186.589 253.773V253.474L187.85 252.226L188.799 252.564L187.499 253.734L187.668 253.279C187.764 253.348 187.855 253.413 187.941 253.474C188.028 253.534 188.145 253.586 188.292 253.63C188.44 253.673 188.643 253.712 188.903 253.747C189.172 253.781 189.523 253.816 189.956 253.851C190.554 253.894 191.031 253.998 191.386 254.163C191.75 254.327 192.01 254.548 192.166 254.826C192.331 255.103 192.413 255.432 192.413 255.814C192.413 256.186 192.309 256.537 192.101 256.867C191.902 257.205 191.59 257.482 191.165 257.699C190.741 257.915 190.195 258.024 189.527 258.024ZM189.514 252.954C188.968 252.954 188.5 252.85 188.11 252.642C187.729 252.434 187.439 252.156 187.239 251.81C187.04 251.454 186.94 251.06 186.94 250.627C186.94 250.193 187.04 249.803 187.239 249.457C187.447 249.11 187.742 248.833 188.123 248.625C188.505 248.408 188.968 248.3 189.514 248.3C190.06 248.3 190.524 248.408 190.905 248.625C191.287 248.833 191.577 249.11 191.776 249.457C191.976 249.803 192.075 250.193 192.075 250.627C192.075 251.06 191.976 251.454 191.776 251.81C191.577 252.156 191.287 252.434 190.905 252.642C190.524 252.85 190.06 252.954 189.514 252.954ZM189.514 252.057C189.982 252.057 190.351 251.935 190.619 251.693C190.888 251.45 191.022 251.095 191.022 250.627C191.022 250.167 190.888 249.816 190.619 249.574C190.351 249.331 189.982 249.21 189.514 249.21C189.055 249.21 188.682 249.331 188.396 249.574C188.119 249.816 187.98 250.167 187.98 250.627C187.98 251.095 188.119 251.45 188.396 251.693C188.674 251.935 189.046 252.057 189.514 252.057ZM190.58 249.379L190.255 248.456H192.933V249.275L190.58 249.379ZM194.293 255.008V248.456H195.385V255.008H194.293ZM194.839 247.065C194.623 247.065 194.441 246.995 194.293 246.857C194.155 246.709 194.085 246.527 194.085 246.311C194.085 246.094 194.155 245.921 194.293 245.791C194.441 245.652 194.623 245.583 194.839 245.583C195.047 245.583 195.225 245.652 195.372 245.791C195.52 245.921 195.593 246.094 195.593 246.311C195.593 246.527 195.52 246.709 195.372 246.857C195.225 246.995 195.047 247.065 194.839 247.065ZM200.263 255.164C199.648 255.164 199.093 255.021 198.599 254.735C198.114 254.449 197.733 254.05 197.455 253.539C197.178 253.019 197.039 252.421 197.039 251.745C197.039 251.051 197.178 250.449 197.455 249.938C197.733 249.426 198.114 249.028 198.599 248.742C199.093 248.447 199.648 248.3 200.263 248.3C201.043 248.3 201.693 248.503 202.213 248.911C202.733 249.309 203.063 249.847 203.201 250.523H202.083C201.997 250.115 201.784 249.799 201.446 249.574C201.108 249.348 200.71 249.236 200.25 249.236C199.878 249.236 199.531 249.331 199.21 249.522C198.89 249.704 198.634 249.981 198.443 250.354C198.253 250.726 198.157 251.186 198.157 251.732C198.157 252.139 198.214 252.503 198.326 252.824C198.439 253.136 198.591 253.396 198.781 253.604C198.972 253.812 199.193 253.972 199.444 254.085C199.704 254.189 199.973 254.241 200.25 254.241C200.562 254.241 200.844 254.193 201.095 254.098C201.347 253.994 201.559 253.842 201.732 253.643C201.906 253.443 202.023 253.209 202.083 252.941H203.201C203.063 253.599 202.729 254.137 202.2 254.553C201.68 254.96 201.035 255.164 200.263 255.164ZM207.677 255.164C207.07 255.164 206.524 255.025 206.039 254.748C205.553 254.462 205.172 254.063 204.895 253.552C204.617 253.032 204.479 252.429 204.479 251.745C204.479 251.043 204.617 250.436 204.895 249.925C205.181 249.405 205.566 249.006 206.052 248.729C206.546 248.443 207.096 248.3 207.703 248.3C208.327 248.3 208.877 248.443 209.354 248.729C209.839 249.006 210.22 249.405 210.498 249.925C210.784 250.436 210.927 251.038 210.927 251.732C210.927 252.425 210.784 253.032 210.498 253.552C210.212 254.063 209.826 254.462 209.341 254.748C208.855 255.025 208.301 255.164 207.677 255.164ZM207.69 254.228C208.062 254.228 208.409 254.137 208.73 253.955C209.05 253.764 209.31 253.482 209.51 253.11C209.709 252.737 209.809 252.278 209.809 251.732C209.809 251.177 209.709 250.718 209.51 250.354C209.319 249.981 209.063 249.704 208.743 249.522C208.431 249.331 208.084 249.236 207.703 249.236C207.339 249.236 206.992 249.331 206.663 249.522C206.342 249.704 206.082 249.981 205.883 250.354C205.692 250.718 205.597 251.177 205.597 251.732C205.597 252.278 205.692 252.737 205.883 253.11C206.082 253.482 206.338 253.764 206.65 253.955C206.97 254.137 207.317 254.228 207.69 254.228Z" fill="#011853"/>
<rect x="20.3398" y="132.832" width="253" height="48" rx="8" fill="#F2F2F2"/>
<rect x="28.3398" y="140.832" width="32" height="32" rx="8" fill="white"/>
<g clip-path="url(#clip7_716_5093)">
<path d="M39.9535 164.332L39.9535 162.189C39.7291 159.956 37.0898 158.761 37.0898 155.332C37.0898 151.904 39.1354 149.29 43.2263 149.333C46.1719 149.363 48.9535 151.047 48.9535 154.475L50.5898 157.047C50.5898 158.761 48.9535 158.761 48.9535 158.761C48.9535 158.761 49.3625 163.046 45.6807 163.046V164.332" stroke="#AFE0D6" stroke-width="1.5" stroke-linecap="round" stroke-linejoin="round"/>
<path d="M43.0898 156.832C43.9183 156.832 44.5898 156.16 44.5898 155.332C44.5898 154.504 43.9183 153.832 43.0898 153.832C42.8166 153.832 42.5605 153.905 42.3398 154.033C41.8915 154.292 41.5898 154.777 41.5898 155.332C41.5898 155.887 41.8915 156.372 42.3398 156.631C42.5605 156.759 42.8166 156.832 43.0898 156.832Z" stroke="#AFE0D6" stroke-width="1.5" stroke-linecap="round" stroke-linejoin="round"/>
<path d="M43.0898 157.582C44.3325 157.582 45.3398 156.575 45.3398 155.332C45.3398 154.089 44.3325 153.082 43.0898 153.082C41.8472 153.082 40.8398 154.089 40.8398 155.332C40.8398 156.575 41.8472 157.582 43.0898 157.582Z" stroke="#AFE0D6" stroke-width="1.5" stroke-linecap="round" stroke-linejoin="round" stroke-dasharray="0.3 2"/>
</g>
<path d="M72.4468 161.832V153.629H69.7298V152.732H76.2558V153.629H73.5388V161.832H72.4468ZM76.8006 161.832V155.28H77.7886L77.8666 156.528C78.014 156.233 78.2003 155.982 78.4256 155.774C78.6596 155.566 78.937 155.406 79.2576 155.293C79.587 155.18 79.9596 155.124 80.3756 155.124V156.268H79.9726C79.6953 156.268 79.431 156.307 79.1796 156.385C78.9283 156.454 78.703 156.571 78.5036 156.736C78.313 156.901 78.1613 157.126 78.0486 157.412C77.9446 157.689 77.8926 158.036 77.8926 158.452V161.832H76.8006ZM83.7441 161.988C83.2155 161.988 82.7735 161.897 82.4181 161.715C82.0628 161.524 81.7985 161.277 81.6251 160.974C81.4518 160.662 81.3651 160.324 81.3651 159.96C81.3651 159.518 81.4778 159.145 81.7031 158.842C81.9371 158.53 82.2621 158.296 82.6781 158.14C83.1028 157.975 83.6011 157.893 84.1731 157.893H85.9021C85.9021 157.486 85.8371 157.148 85.7071 156.879C85.5858 156.602 85.4038 156.394 85.1611 156.255C84.9271 156.116 84.6325 156.047 84.2771 156.047C83.8611 156.047 83.5015 156.151 83.1981 156.359C82.8948 156.567 82.7085 156.875 82.6391 157.282H81.5211C81.5731 156.814 81.7291 156.424 81.9891 156.112C82.2578 155.791 82.5958 155.549 83.0031 155.384C83.4105 155.211 83.8351 155.124 84.2771 155.124C84.8838 155.124 85.3865 155.237 85.7851 155.462C86.1925 155.679 86.4958 155.986 86.6951 156.385C86.8945 156.775 86.9941 157.239 86.9941 157.776V161.832H86.0191L85.9541 160.675C85.8675 160.857 85.7548 161.03 85.6161 161.195C85.4861 161.351 85.3301 161.49 85.1481 161.611C84.9661 161.724 84.7581 161.815 84.5241 161.884C84.2988 161.953 84.0388 161.988 83.7441 161.988ZM83.9131 161.065C84.2165 161.065 84.4895 161.004 84.7321 160.883C84.9835 160.753 85.1958 160.58 85.3691 160.363C85.5425 160.138 85.6725 159.891 85.7591 159.622C85.8545 159.353 85.9021 159.072 85.9021 158.777V158.738H84.2641C83.8395 158.738 83.4971 158.79 83.2371 158.894C82.9771 158.989 82.7908 159.128 82.6781 159.31C82.5655 159.483 82.5091 159.683 82.5091 159.908C82.5091 160.142 82.5611 160.346 82.6651 160.519C82.7778 160.692 82.9381 160.827 83.1461 160.922C83.3628 161.017 83.6185 161.065 83.9131 161.065ZM88.6834 161.832V155.28H89.6714L89.7234 156.424C89.9314 156.017 90.2261 155.7 90.6074 155.475C90.9974 155.241 91.4394 155.124 91.9334 155.124C92.4448 155.124 92.8868 155.228 93.2594 155.436C93.6321 155.635 93.9224 155.943 94.1304 156.359C94.3384 156.766 94.4424 157.286 94.4424 157.919V161.832H93.3504V158.036C93.3504 157.377 93.2031 156.883 92.9084 156.554C92.6224 156.225 92.2151 156.06 91.6864 156.06C91.3224 156.06 90.9974 156.151 90.7114 156.333C90.4254 156.506 90.1958 156.762 90.0224 157.1C89.8578 157.429 89.7754 157.841 89.7754 158.335V161.832H88.6834ZM98.6183 161.988C98.0723 161.988 97.5956 161.897 97.1883 161.715C96.7896 161.533 96.4689 161.282 96.2263 160.961C95.9923 160.632 95.8493 160.246 95.7973 159.804H96.9153C96.9586 160.029 97.0496 160.237 97.1883 160.428C97.3269 160.619 97.5133 160.775 97.7473 160.896C97.9899 161.009 98.2846 161.065 98.6313 161.065C98.9346 161.065 99.1859 161.022 99.3853 160.935C99.5846 160.84 99.7319 160.714 99.8273 160.558C99.9313 160.402 99.9833 160.233 99.9833 160.051C99.9833 159.782 99.9183 159.579 99.7883 159.44C99.6669 159.301 99.4849 159.193 99.2423 159.115C98.9996 159.028 98.7049 158.955 98.3583 158.894C98.0723 158.842 97.7906 158.773 97.5133 158.686C97.2359 158.599 96.9889 158.487 96.7723 158.348C96.5556 158.201 96.3823 158.023 96.2523 157.815C96.1309 157.607 96.0703 157.351 96.0703 157.048C96.0703 156.675 96.1656 156.346 96.3563 156.06C96.5469 155.765 96.8199 155.536 97.1753 155.371C97.5393 155.206 97.9596 155.124 98.4363 155.124C99.1383 155.124 99.7059 155.293 100.139 155.631C100.573 155.969 100.828 156.459 100.906 157.1H99.8273C99.7839 156.771 99.6409 156.515 99.3983 156.333C99.1643 156.142 98.8393 156.047 98.4233 156.047C98.0159 156.047 97.7039 156.129 97.4873 156.294C97.2793 156.459 97.1753 156.675 97.1753 156.944C97.1753 157.117 97.2316 157.273 97.3443 157.412C97.4656 157.542 97.6389 157.655 97.8643 157.75C98.0983 157.845 98.3843 157.923 98.7223 157.984C99.1556 158.062 99.5499 158.166 99.9053 158.296C100.261 158.426 100.547 158.621 100.763 158.881C100.989 159.132 101.101 159.492 101.101 159.96C101.101 160.367 100.997 160.723 100.789 161.026C100.59 161.329 100.304 161.568 99.9313 161.741C99.5586 161.906 99.1209 161.988 98.6183 161.988ZM103.038 161.832V154.266C103.038 153.85 103.107 153.512 103.246 153.252C103.384 152.983 103.588 152.788 103.857 152.667C104.134 152.537 104.472 152.472 104.871 152.472H105.612V153.408H105.04C104.719 153.408 104.485 153.473 104.338 153.603C104.199 153.733 104.13 153.963 104.13 154.292V161.832H103.038ZM102.037 156.203V155.28H105.781V156.203H102.037ZM109.711 161.988C109.095 161.988 108.549 161.845 108.073 161.559C107.605 161.273 107.236 160.874 106.968 160.363C106.699 159.843 106.565 159.241 106.565 158.556C106.565 157.863 106.695 157.26 106.955 156.749C107.223 156.238 107.596 155.839 108.073 155.553C108.558 155.267 109.113 155.124 109.737 155.124C110.378 155.124 110.92 155.267 111.362 155.553C111.812 155.839 112.155 156.216 112.389 156.684C112.631 157.143 112.753 157.65 112.753 158.205C112.753 158.292 112.753 158.383 112.753 158.478C112.753 158.573 112.748 158.682 112.74 158.803H107.384V157.958H111.687C111.661 157.36 111.461 156.892 111.089 156.554C110.725 156.216 110.265 156.047 109.711 156.047C109.338 156.047 108.991 156.134 108.671 156.307C108.359 156.472 108.107 156.719 107.917 157.048C107.726 157.369 107.631 157.772 107.631 158.257V158.621C107.631 159.158 107.726 159.609 107.917 159.973C108.116 160.337 108.372 160.61 108.684 160.792C109.004 160.974 109.347 161.065 109.711 161.065C110.17 161.065 110.547 160.965 110.842 160.766C111.145 160.558 111.362 160.281 111.492 159.934H112.571C112.467 160.324 112.285 160.675 112.025 160.987C111.765 161.299 111.44 161.546 111.05 161.728C110.668 161.901 110.222 161.988 109.711 161.988ZM114.226 161.832V155.28H115.214L115.292 156.528C115.44 156.233 115.626 155.982 115.851 155.774C116.085 155.566 116.363 155.406 116.683 155.293C117.013 155.18 117.385 155.124 117.801 155.124V156.268H117.398C117.121 156.268 116.857 156.307 116.605 156.385C116.354 156.454 116.129 156.571 115.929 156.736C115.739 156.901 115.587 157.126 115.474 157.412C115.37 157.689 115.318 158.036 115.318 158.452V161.832H114.226ZM121.67 161.988C121.054 161.988 120.508 161.845 120.032 161.559C119.564 161.273 119.195 160.874 118.927 160.363C118.658 159.843 118.524 159.241 118.524 158.556C118.524 157.863 118.654 157.26 118.914 156.749C119.182 156.238 119.555 155.839 120.032 155.553C120.517 155.267 121.072 155.124 121.696 155.124C122.337 155.124 122.879 155.267 123.321 155.553C123.771 155.839 124.114 156.216 124.348 156.684C124.59 157.143 124.712 157.65 124.712 158.205C124.712 158.292 124.712 158.383 124.712 158.478C124.712 158.573 124.707 158.682 124.699 158.803H119.343V157.958H123.646C123.62 157.36 123.42 156.892 123.048 156.554C122.684 156.216 122.224 156.047 121.67 156.047C121.297 156.047 120.95 156.134 120.63 156.307C120.318 156.472 120.066 156.719 119.876 157.048C119.685 157.369 119.59 157.772 119.59 158.257V158.621C119.59 159.158 119.685 159.609 119.876 159.973C120.075 160.337 120.331 160.61 120.643 160.792C120.963 160.974 121.306 161.065 121.67 161.065C122.129 161.065 122.506 160.965 122.801 160.766C123.104 160.558 123.321 160.281 123.451 159.934H124.53C124.426 160.324 124.244 160.675 123.984 160.987C123.724 161.299 123.399 161.546 123.009 161.728C122.627 161.901 122.181 161.988 121.67 161.988ZM126.185 161.832V155.28H127.173L127.225 156.424C127.433 156.017 127.728 155.7 128.109 155.475C128.499 155.241 128.941 155.124 129.435 155.124C129.947 155.124 130.389 155.228 130.761 155.436C131.134 155.635 131.424 155.943 131.632 156.359C131.84 156.766 131.944 157.286 131.944 157.919V161.832H130.852V158.036C130.852 157.377 130.705 156.883 130.41 156.554C130.124 156.225 129.717 156.06 129.188 156.06C128.824 156.06 128.499 156.151 128.213 156.333C127.927 156.506 127.698 156.762 127.524 157.1C127.36 157.429 127.277 157.841 127.277 158.335V161.832H126.185ZM136.601 161.988C135.986 161.988 135.431 161.845 134.937 161.559C134.452 161.273 134.071 160.874 133.793 160.363C133.516 159.843 133.377 159.245 133.377 158.569C133.377 157.876 133.516 157.273 133.793 156.762C134.071 156.251 134.452 155.852 134.937 155.566C135.431 155.271 135.986 155.124 136.601 155.124C137.381 155.124 138.031 155.328 138.551 155.735C139.071 156.134 139.401 156.671 139.539 157.347H138.421C138.335 156.94 138.122 156.623 137.784 156.398C137.446 156.173 137.048 156.06 136.588 156.06C136.216 156.06 135.869 156.155 135.548 156.346C135.228 156.528 134.972 156.805 134.781 157.178C134.591 157.551 134.495 158.01 134.495 158.556C134.495 158.963 134.552 159.327 134.664 159.648C134.777 159.96 134.929 160.22 135.119 160.428C135.31 160.636 135.531 160.796 135.782 160.909C136.042 161.013 136.311 161.065 136.588 161.065C136.9 161.065 137.182 161.017 137.433 160.922C137.685 160.818 137.897 160.666 138.07 160.467C138.244 160.268 138.361 160.034 138.421 159.765H139.539C139.401 160.424 139.067 160.961 138.538 161.377C138.018 161.784 137.373 161.988 136.601 161.988ZM141.194 161.832V155.28H142.286V161.832H141.194ZM141.74 153.889C141.523 153.889 141.341 153.82 141.194 153.681C141.055 153.534 140.986 153.352 140.986 153.135C140.986 152.918 141.055 152.745 141.194 152.615C141.341 152.476 141.523 152.407 141.74 152.407C141.948 152.407 142.125 152.476 142.273 152.615C142.42 152.745 142.494 152.918 142.494 153.135C142.494 153.352 142.42 153.534 142.273 153.681C142.125 153.82 141.948 153.889 141.74 153.889ZM146.345 161.988C145.816 161.988 145.374 161.897 145.019 161.715C144.663 161.524 144.399 161.277 144.226 160.974C144.052 160.662 143.966 160.324 143.966 159.96C143.966 159.518 144.078 159.145 144.304 158.842C144.538 158.53 144.863 158.296 145.279 158.14C145.703 157.975 146.202 157.893 146.774 157.893H148.503C148.503 157.486 148.438 157.148 148.308 156.879C148.186 156.602 148.004 156.394 147.762 156.255C147.528 156.116 147.233 156.047 146.878 156.047C146.462 156.047 146.102 156.151 145.799 156.359C145.495 156.567 145.309 156.875 145.24 157.282H144.122C144.174 156.814 144.33 156.424 144.59 156.112C144.858 155.791 145.196 155.549 145.604 155.384C146.011 155.211 146.436 155.124 146.878 155.124C147.484 155.124 147.987 155.237 148.386 155.462C148.793 155.679 149.096 155.986 149.296 156.385C149.495 156.775 149.595 157.239 149.595 157.776V161.832H148.62L148.555 160.675C148.468 160.857 148.355 161.03 148.217 161.195C148.087 161.351 147.931 161.49 147.749 161.611C147.567 161.724 147.359 161.815 147.125 161.884C146.899 161.953 146.639 161.988 146.345 161.988ZM146.514 161.065C146.817 161.065 147.09 161.004 147.333 160.883C147.584 160.753 147.796 160.58 147.97 160.363C148.143 160.138 148.273 159.891 148.36 159.622C148.455 159.353 148.503 159.072 148.503 158.777V158.738H146.865C146.44 158.738 146.098 158.79 145.838 158.894C145.578 158.989 145.391 159.128 145.279 159.31C145.166 159.483 145.11 159.683 145.11 159.908C145.11 160.142 145.162 160.346 145.266 160.519C145.378 160.692 145.539 160.827 145.747 160.922C145.963 161.017 146.219 161.065 146.514 161.065ZM157.623 161.988C156.99 161.988 156.436 161.841 155.959 161.546C155.482 161.243 155.114 160.831 154.854 160.311C154.594 159.791 154.464 159.202 154.464 158.543C154.464 157.884 154.594 157.299 154.854 156.788C155.114 156.268 155.482 155.861 155.959 155.566C156.444 155.271 157.003 155.124 157.636 155.124C158.173 155.124 158.641 155.232 159.04 155.449C159.447 155.666 159.759 155.969 159.976 156.359V152.472H161.068V161.832H160.08L159.989 160.753C159.85 160.97 159.673 161.173 159.456 161.364C159.239 161.546 158.979 161.698 158.676 161.819C158.373 161.932 158.022 161.988 157.623 161.988ZM157.753 161.039C158.186 161.039 158.568 160.935 158.897 160.727C159.226 160.519 159.482 160.233 159.664 159.869C159.846 159.496 159.937 159.059 159.937 158.556C159.937 158.062 159.846 157.629 159.664 157.256C159.482 156.883 159.226 156.593 158.897 156.385C158.568 156.177 158.186 156.073 157.753 156.073C157.328 156.073 156.951 156.177 156.622 156.385C156.293 156.593 156.037 156.883 155.855 157.256C155.673 157.629 155.582 158.062 155.582 158.556C155.582 159.059 155.673 159.496 155.855 159.869C156.037 160.233 156.293 160.519 156.622 160.727C156.951 160.935 157.328 161.039 157.753 161.039ZM165.761 161.988C165.145 161.988 164.599 161.845 164.123 161.559C163.655 161.273 163.286 160.874 163.018 160.363C162.749 159.843 162.615 159.241 162.615 158.556C162.615 157.863 162.745 157.26 163.005 156.749C163.273 156.238 163.646 155.839 164.123 155.553C164.608 155.267 165.163 155.124 165.787 155.124C166.428 155.124 166.97 155.267 167.412 155.553C167.862 155.839 168.205 156.216 168.439 156.684C168.681 157.143 168.803 157.65 168.803 158.205C168.803 158.292 168.803 158.383 168.803 158.478C168.803 158.573 168.798 158.682 168.79 158.803H163.434V157.958H167.737C167.711 157.36 167.511 156.892 167.139 156.554C166.775 156.216 166.315 156.047 165.761 156.047C165.388 156.047 165.041 156.134 164.721 156.307C164.409 156.472 164.157 156.719 163.967 157.048C163.776 157.369 163.681 157.772 163.681 158.257V158.621C163.681 159.158 163.776 159.609 163.967 159.973C164.166 160.337 164.422 160.61 164.734 160.792C165.054 160.974 165.397 161.065 165.761 161.065C166.22 161.065 166.597 160.965 166.892 160.766C167.195 160.558 167.412 160.281 167.542 159.934H168.621C168.517 160.324 168.335 160.675 168.075 160.987C167.815 161.299 167.49 161.546 167.1 161.728C166.718 161.901 166.272 161.988 165.761 161.988ZM176.68 161.988C176.065 161.988 175.51 161.845 175.016 161.559C174.531 161.273 174.15 160.874 173.872 160.363C173.595 159.843 173.456 159.245 173.456 158.569C173.456 157.876 173.595 157.273 173.872 156.762C174.15 156.251 174.531 155.852 175.016 155.566C175.51 155.271 176.065 155.124 176.68 155.124C177.46 155.124 178.11 155.328 178.63 155.735C179.15 156.134 179.48 156.671 179.618 157.347H178.5C178.414 156.94 178.201 156.623 177.863 156.398C177.525 156.173 177.127 156.06 176.667 156.06C176.295 156.06 175.948 156.155 175.627 156.346C175.307 156.528 175.051 156.805 174.86 157.178C174.67 157.551 174.574 158.01 174.574 158.556C174.574 158.963 174.631 159.327 174.743 159.648C174.856 159.96 175.008 160.22 175.198 160.428C175.389 160.636 175.61 160.796 175.861 160.909C176.121 161.013 176.39 161.065 176.667 161.065C176.979 161.065 177.261 161.017 177.512 160.922C177.764 160.818 177.976 160.666 178.149 160.467C178.323 160.268 178.44 160.034 178.5 159.765H179.618C179.48 160.424 179.146 160.961 178.617 161.377C178.097 161.784 177.452 161.988 176.68 161.988ZM184.094 161.988C183.487 161.988 182.941 161.849 182.456 161.572C181.97 161.286 181.589 160.887 181.312 160.376C181.034 159.856 180.896 159.254 180.896 158.569C180.896 157.867 181.034 157.26 181.312 156.749C181.598 156.229 181.983 155.83 182.469 155.553C182.963 155.267 183.513 155.124 184.12 155.124C184.744 155.124 185.294 155.267 185.771 155.553C186.256 155.83 186.637 156.229 186.915 156.749C187.201 157.26 187.344 157.863 187.344 158.556C187.344 159.249 187.201 159.856 186.915 160.376C186.629 160.887 186.243 161.286 185.758 161.572C185.272 161.849 184.718 161.988 184.094 161.988ZM184.107 161.052C184.479 161.052 184.826 160.961 185.147 160.779C185.467 160.588 185.727 160.307 185.927 159.934C186.126 159.561 186.226 159.102 186.226 158.556C186.226 158.001 186.126 157.542 185.927 157.178C185.736 156.805 185.48 156.528 185.16 156.346C184.848 156.155 184.501 156.06 184.12 156.06C183.756 156.06 183.409 156.155 183.08 156.346C182.759 156.528 182.499 156.805 182.3 157.178C182.109 157.542 182.014 158.001 182.014 158.556C182.014 159.102 182.109 159.561 182.3 159.934C182.499 160.307 182.755 160.588 183.067 160.779C183.387 160.961 183.734 161.052 184.107 161.052ZM188.875 161.832V155.28H189.863L189.915 156.424C190.123 156.017 190.418 155.7 190.799 155.475C191.189 155.241 191.631 155.124 192.125 155.124C192.636 155.124 193.078 155.228 193.451 155.436C193.824 155.635 194.114 155.943 194.322 156.359C194.53 156.766 194.634 157.286 194.634 157.919V161.832H193.542V158.036C193.542 157.377 193.395 156.883 193.1 156.554C192.814 156.225 192.407 156.06 191.878 156.06C191.514 156.06 191.189 156.151 190.903 156.333C190.617 156.506 190.387 156.762 190.214 157.1C190.049 157.429 189.967 157.841 189.967 158.335V161.832H188.875ZM199.265 161.988C198.658 161.988 198.112 161.849 197.627 161.572C197.141 161.286 196.76 160.887 196.483 160.376C196.205 159.856 196.067 159.254 196.067 158.569C196.067 157.867 196.205 157.26 196.483 156.749C196.769 156.229 197.154 155.83 197.64 155.553C198.134 155.267 198.684 155.124 199.291 155.124C199.915 155.124 200.465 155.267 200.942 155.553C201.427 155.83 201.808 156.229 202.086 156.749C202.372 157.26 202.515 157.863 202.515 158.556C202.515 159.249 202.372 159.856 202.086 160.376C201.8 160.887 201.414 161.286 200.929 161.572C200.443 161.849 199.889 161.988 199.265 161.988ZM199.278 161.052C199.65 161.052 199.997 160.961 200.318 160.779C200.638 160.588 200.898 160.307 201.098 159.934C201.297 159.561 201.397 159.102 201.397 158.556C201.397 158.001 201.297 157.542 201.098 157.178C200.907 156.805 200.651 156.528 200.331 156.346C200.019 156.155 199.672 156.06 199.291 156.06C198.927 156.06 198.58 156.155 198.251 156.346C197.93 156.528 197.67 156.805 197.471 157.178C197.28 157.542 197.185 158.001 197.185 158.556C197.185 159.102 197.28 159.561 197.471 159.934C197.67 160.307 197.926 160.588 198.238 160.779C198.558 160.961 198.905 161.052 199.278 161.052ZM206.997 161.988C206.381 161.988 205.827 161.845 205.333 161.559C204.847 161.273 204.466 160.874 204.189 160.363C203.911 159.843 203.773 159.245 203.773 158.569C203.773 157.876 203.911 157.273 204.189 156.762C204.466 156.251 204.847 155.852 205.333 155.566C205.827 155.271 206.381 155.124 206.997 155.124C207.777 155.124 208.427 155.328 208.947 155.735C209.467 156.134 209.796 156.671 209.935 157.347H208.817C208.73 156.94 208.518 156.623 208.18 156.398C207.842 156.173 207.443 156.06 206.984 156.06C206.611 156.06 206.264 156.155 205.944 156.346C205.623 156.528 205.367 156.805 205.177 157.178C204.986 157.551 204.891 158.01 204.891 158.556C204.891 158.963 204.947 159.327 205.06 159.648C205.172 159.96 205.324 160.22 205.515 160.428C205.705 160.636 205.926 160.796 206.178 160.909C206.438 161.013 206.706 161.065 206.984 161.065C207.296 161.065 207.577 161.017 207.829 160.922C208.08 160.818 208.292 160.666 208.466 160.467C208.639 160.268 208.756 160.034 208.817 159.765H209.935C209.796 160.424 209.462 160.961 208.934 161.377C208.414 161.784 207.768 161.988 206.997 161.988ZM211.589 161.832V155.28H212.681V161.832H211.589ZM212.135 153.889C211.919 153.889 211.737 153.82 211.589 153.681C211.451 153.534 211.381 153.352 211.381 153.135C211.381 152.918 211.451 152.745 211.589 152.615C211.737 152.476 211.919 152.407 212.135 152.407C212.343 152.407 212.521 152.476 212.668 152.615C212.816 152.745 212.889 152.918 212.889 153.135C212.889 153.352 212.816 153.534 212.668 153.681C212.521 153.82 212.343 153.889 212.135 153.889ZM214.608 161.832V155.28H215.596L215.661 156.216C215.869 155.878 216.147 155.614 216.493 155.423C216.849 155.224 217.234 155.124 217.65 155.124C217.988 155.124 218.292 155.172 218.56 155.267C218.838 155.354 219.08 155.492 219.288 155.683C219.496 155.865 219.665 156.099 219.795 156.385C220.021 155.986 220.328 155.679 220.718 155.462C221.117 155.237 221.542 155.124 221.992 155.124C222.495 155.124 222.933 155.228 223.305 155.436C223.687 155.635 223.977 155.943 224.176 156.359C224.384 156.766 224.488 157.286 224.488 157.919V161.832H223.409V158.036C223.409 157.377 223.275 156.883 223.006 156.554C222.738 156.225 222.361 156.06 221.875 156.06C221.537 156.06 221.234 156.151 220.965 156.333C220.697 156.506 220.484 156.762 220.328 157.1C220.172 157.438 220.094 157.854 220.094 158.348V161.832H219.002V158.036C219.002 157.377 218.868 156.883 218.599 156.554C218.331 156.225 217.949 156.06 217.455 156.06C217.126 156.06 216.827 156.151 216.558 156.333C216.298 156.506 216.09 156.762 215.934 157.1C215.778 157.438 215.7 157.854 215.7 158.348V161.832H214.608ZM226.29 161.832V155.28H227.382V161.832H226.29ZM226.836 153.889C226.62 153.889 226.438 153.82 226.29 153.681C226.152 153.534 226.082 153.352 226.082 153.135C226.082 152.918 226.152 152.745 226.29 152.615C226.438 152.476 226.62 152.407 226.836 152.407C227.044 152.407 227.222 152.476 227.369 152.615C227.517 152.745 227.59 152.918 227.59 153.135C227.59 153.352 227.517 153.534 227.369 153.681C227.222 153.82 227.044 153.889 226.836 153.889ZM232.182 161.988C231.567 161.988 231.021 161.845 230.544 161.559C230.076 161.273 229.708 160.874 229.439 160.363C229.171 159.843 229.036 159.241 229.036 158.556C229.036 157.863 229.166 157.26 229.426 156.749C229.695 156.238 230.068 155.839 230.544 155.553C231.03 155.267 231.584 155.124 232.208 155.124C232.85 155.124 233.391 155.267 233.833 155.553C234.284 155.839 234.626 156.216 234.86 156.684C235.103 157.143 235.224 157.65 235.224 158.205C235.224 158.292 235.224 158.383 235.224 158.478C235.224 158.573 235.22 158.682 235.211 158.803H229.855V157.958H234.158C234.132 157.36 233.933 156.892 233.56 156.554C233.196 156.216 232.737 156.047 232.182 156.047C231.81 156.047 231.463 156.134 231.142 156.307C230.83 156.472 230.579 156.719 230.388 157.048C230.198 157.369 230.102 157.772 230.102 158.257V158.621C230.102 159.158 230.198 159.609 230.388 159.973C230.588 160.337 230.843 160.61 231.155 160.792C231.476 160.974 231.818 161.065 232.182 161.065C232.642 161.065 233.019 160.965 233.313 160.766C233.617 160.558 233.833 160.281 233.963 159.934H235.042C234.938 160.324 234.756 160.675 234.496 160.987C234.236 161.299 233.911 161.546 233.521 161.728C233.14 161.901 232.694 161.988 232.182 161.988ZM236.698 161.832V155.28H237.686L237.738 156.424C237.946 156.017 238.241 155.7 238.622 155.475C239.012 155.241 239.454 155.124 239.948 155.124C240.459 155.124 240.901 155.228 241.274 155.436C241.647 155.635 241.937 155.943 242.145 156.359C242.353 156.766 242.457 157.286 242.457 157.919V161.832H241.365V158.036C241.365 157.377 241.218 156.883 240.923 156.554C240.637 156.225 240.23 156.06 239.701 156.06C239.337 156.06 239.012 156.151 238.726 156.333C238.44 156.506 238.21 156.762 238.037 157.1C237.872 157.429 237.79 157.841 237.79 158.335V161.832H236.698ZM246.737 161.832C246.347 161.832 246.009 161.771 245.723 161.65C245.437 161.529 245.216 161.325 245.06 161.039C244.913 160.744 244.839 160.35 244.839 159.856V156.203H243.695V155.28H244.839L244.982 153.694H245.931V155.28H247.829V156.203H245.931V159.856C245.931 160.263 246.013 160.541 246.178 160.688C246.343 160.827 246.633 160.896 247.049 160.896H247.751V161.832H246.737ZM252.001 161.988C251.394 161.988 250.848 161.849 250.363 161.572C249.878 161.286 249.496 160.887 249.219 160.376C248.942 159.856 248.803 159.254 248.803 158.569C248.803 157.867 248.942 157.26 249.219 156.749C249.505 156.229 249.891 155.83 250.376 155.553C250.87 155.267 251.42 155.124 252.027 155.124C252.651 155.124 253.201 155.267 253.678 155.553C254.163 155.83 254.545 156.229 254.822 156.749C255.108 157.26 255.251 157.863 255.251 158.556C255.251 159.249 255.108 159.856 254.822 160.376C254.536 160.887 254.15 161.286 253.665 161.572C253.18 161.849 252.625 161.988 252.001 161.988ZM252.014 161.052C252.387 161.052 252.733 160.961 253.054 160.779C253.375 160.588 253.635 160.307 253.834 159.934C254.033 159.561 254.133 159.102 254.133 158.556C254.133 158.001 254.033 157.542 253.834 157.178C253.643 156.805 253.388 156.528 253.067 156.346C252.755 156.155 252.408 156.06 252.027 156.06C251.663 156.06 251.316 156.155 250.987 156.346C250.666 156.528 250.406 156.805 250.207 157.178C250.016 157.542 249.921 158.001 249.921 158.556C249.921 159.102 250.016 159.561 250.207 159.934C250.406 160.307 250.662 160.588 250.974 160.779C251.295 160.961 251.641 161.052 252.014 161.052Z" fill="#011853"/>
<rect x="84.8398" y="45.0078" width="254" height="48" rx="8" fill="#F2F2F2"/>
<rect x="92.8398" y="53.0078" width="32" height="32" rx="8" fill="white"/>
<path d="M112.84 63.1547C112.84 63.7562 112.602 64.3338 112.178 64.7611C111.202 65.7451 110.255 66.7711 109.242 67.7193C109.01 67.9335 108.642 67.9257 108.419 67.7018L105.501 64.7611C104.619 63.8722 104.619 62.4372 105.501 61.5484C106.392 60.6508 107.843 60.6508 108.734 61.5484L108.84 61.6553L108.946 61.5484C109.373 61.1179 109.954 60.875 110.562 60.875C111.17 60.875 111.751 61.1178 112.178 61.5484C112.602 61.9757 112.84 62.5533 112.84 63.1547Z" stroke="#AFE0D6" stroke-width="1.5" stroke-linejoin="round"/>
<path d="M114.84 76.875L118.664 73.0507C118.777 72.9382 118.84 72.7856 118.84 72.6265V67.375C118.84 66.5466 118.168 65.875 117.34 65.875C116.511 65.875 115.84 66.5466 115.84 67.375V71.875" stroke="#AFE0D6" stroke-width="1.5" stroke-linecap="round" stroke-linejoin="round"/>
<path d="M114.84 72.8751L115.698 72.017C115.789 71.9261 115.84 71.8029 115.84 71.6745C115.84 71.491 115.736 71.3233 115.572 71.2412L115.129 71.0198C114.359 70.6348 113.429 70.7857 112.821 71.3944L111.926 72.2893C111.551 72.6644 111.34 73.1731 111.34 73.7035V76.8751" stroke="#AFE0D6" stroke-width="1.5" stroke-linecap="round" stroke-linejoin="round"/>
<path d="M102.84 76.875L99.0156 73.0507C98.9031 72.9382 98.8398 72.7856 98.8398 72.6265V67.375C98.8398 66.5466 99.5114 65.875 100.34 65.875C101.168 65.875 101.84 66.5466 101.84 67.375V71.875" stroke="#AFE0D6" stroke-width="1.5" stroke-linecap="round" stroke-linejoin="round"/>
<path d="M102.84 72.8751L101.982 72.017C101.891 71.9261 101.84 71.8029 101.84 71.6745C101.84 71.491 101.944 71.3233 102.108 71.2412L102.551 71.0198C103.32 70.6348 104.25 70.7857 104.859 71.3944L105.754 72.2893C106.129 72.6644 106.34 73.1731 106.34 73.7035V76.8751" stroke="#AFE0D6" stroke-width="1.5" stroke-linecap="round" stroke-linejoin="round"/>
<path d="M137.714 73.1638C137.047 73.1638 136.466 73.0425 135.972 72.7998C135.478 72.5571 135.097 72.2191 134.828 71.7858C134.559 71.3525 134.425 70.8498 134.425 70.2778H135.569C135.569 70.6331 135.651 70.9625 135.816 71.2658C135.981 71.5605 136.219 71.7988 136.531 71.9808C136.852 72.1541 137.246 72.2408 137.714 72.2408C138.121 72.2408 138.468 72.1758 138.754 72.0458C139.049 71.9071 139.27 71.7208 139.417 71.4868C139.573 71.2528 139.651 70.9885 139.651 70.6938C139.651 70.3385 139.573 70.0525 139.417 69.8358C139.27 69.6105 139.066 69.4285 138.806 69.2898C138.546 69.1511 138.243 69.0298 137.896 68.9258C137.558 68.8131 137.203 68.6961 136.83 68.5748C136.111 68.3321 135.582 68.0288 135.244 67.6648C134.906 67.3008 134.737 66.8285 134.737 66.2478C134.737 65.7538 134.85 65.3205 135.075 64.9478C135.309 64.5751 135.638 64.2848 136.063 64.0768C136.496 63.8601 137.008 63.7518 137.597 63.7518C138.178 63.7518 138.68 63.8601 139.105 64.0768C139.538 64.2935 139.876 64.5925 140.119 64.9738C140.362 65.3465 140.483 65.7798 140.483 66.2738H139.339C139.339 66.0225 139.274 65.7755 139.144 65.5328C139.014 65.2901 138.815 65.0908 138.546 64.9348C138.286 64.7701 137.957 64.6878 137.558 64.6878C137.229 64.6791 136.934 64.7355 136.674 64.8568C136.423 64.9695 136.223 65.1341 136.076 65.3508C135.937 65.5675 135.868 65.8318 135.868 66.1438C135.868 66.4385 135.929 66.6768 136.05 66.8588C136.18 67.0408 136.362 67.1968 136.596 67.3268C136.839 67.4481 137.12 67.5608 137.441 67.6648C137.762 67.7688 138.117 67.8858 138.507 68.0158C138.949 68.1631 139.339 68.3451 139.677 68.5618C140.024 68.7698 140.292 69.0385 140.483 69.3678C140.682 69.6971 140.782 70.1175 140.782 70.6288C140.782 71.0621 140.665 71.4738 140.431 71.8638C140.206 72.2451 139.868 72.5571 139.417 72.7998C138.966 73.0425 138.399 73.1638 137.714 73.1638ZM145.216 73.1638C144.609 73.1638 144.063 73.0251 143.578 72.7478C143.093 72.4618 142.711 72.0631 142.434 71.5518C142.157 71.0318 142.018 70.4295 142.018 69.7448C142.018 69.0428 142.157 68.4361 142.434 67.9248C142.72 67.4048 143.106 67.0061 143.591 66.7288C144.085 66.4428 144.635 66.2998 145.242 66.2998C145.866 66.2998 146.416 66.4428 146.893 66.7288C147.378 67.0061 147.76 67.4048 148.037 67.9248C148.323 68.4361 148.466 69.0385 148.466 69.7318C148.466 70.4251 148.323 71.0318 148.037 71.5518C147.751 72.0631 147.365 72.4618 146.88 72.7478C146.395 73.0251 145.84 73.1638 145.216 73.1638ZM145.229 72.2278C145.602 72.2278 145.948 72.1368 146.269 71.9548C146.59 71.7641 146.85 71.4825 147.049 71.1098C147.248 70.7371 147.348 70.2778 147.348 69.7318C147.348 69.1771 147.248 68.7178 147.049 68.3538C146.858 67.9811 146.603 67.7038 146.282 67.5218C145.97 67.3311 145.623 67.2358 145.242 67.2358C144.878 67.2358 144.531 67.3311 144.202 67.5218C143.881 67.7038 143.621 67.9811 143.422 68.3538C143.231 68.7178 143.136 69.1771 143.136 69.7318C143.136 70.2778 143.231 70.7371 143.422 71.1098C143.621 71.4825 143.877 71.7641 144.189 71.9548C144.51 72.1368 144.856 72.2278 145.229 72.2278ZM149.997 75.8678V66.4558H150.985L151.076 67.5218C151.215 67.3138 151.392 67.1188 151.609 66.9368C151.826 66.7461 152.086 66.5945 152.389 66.4818C152.692 66.3605 153.039 66.2998 153.429 66.2998C154.07 66.2998 154.625 66.4515 155.093 66.7548C155.57 67.0581 155.938 67.4698 156.198 67.9898C156.467 68.5011 156.601 69.0861 156.601 69.7448C156.601 70.4035 156.467 70.9928 156.198 71.5128C155.938 72.0241 155.57 72.4271 155.093 72.7218C154.616 73.0165 154.057 73.1638 153.416 73.1638C152.887 73.1638 152.419 73.0555 152.012 72.8388C151.613 72.6221 151.306 72.3188 151.089 71.9288V75.8678H149.997ZM153.299 72.2148C153.724 72.2148 154.101 72.1108 154.43 71.9028C154.759 71.6948 155.015 71.4088 155.197 71.0448C155.388 70.6721 155.483 70.2345 155.483 69.7318C155.483 69.2378 155.388 68.8045 155.197 68.4318C155.015 68.0591 154.759 67.7688 154.43 67.5608C154.101 67.3528 153.724 67.2488 153.299 67.2488C152.866 67.2488 152.484 67.3528 152.155 67.5608C151.826 67.7688 151.57 68.0591 151.388 68.4318C151.206 68.8045 151.115 69.2378 151.115 69.7318C151.115 70.2345 151.206 70.6721 151.388 71.0448C151.57 71.4088 151.826 71.6948 152.155 71.9028C152.484 72.1108 152.866 72.2148 153.299 72.2148ZM161.06 73.1638C160.453 73.1638 159.907 73.0251 159.422 72.7478C158.936 72.4618 158.555 72.0631 158.278 71.5518C158 71.0318 157.862 70.4295 157.862 69.7448C157.862 69.0428 158 68.4361 158.278 67.9248C158.564 67.4048 158.949 67.0061 159.435 66.7288C159.929 66.4428 160.479 66.2998 161.086 66.2998C161.71 66.2998 162.26 66.4428 162.737 66.7288C163.222 67.0061 163.603 67.4048 163.881 67.9248C164.167 68.4361 164.31 69.0385 164.31 69.7318C164.31 70.4251 164.167 71.0318 163.881 71.5518C163.595 72.0631 163.209 72.4618 162.724 72.7478C162.238 73.0251 161.684 73.1638 161.06 73.1638ZM161.073 72.2278C161.445 72.2278 161.792 72.1368 162.113 71.9548C162.433 71.7641 162.693 71.4825 162.893 71.1098C163.092 70.7371 163.192 70.2778 163.192 69.7318C163.192 69.1771 163.092 68.7178 162.893 68.3538C162.702 67.9811 162.446 67.7038 162.126 67.5218C161.814 67.3311 161.467 67.2358 161.086 67.2358C160.722 67.2358 160.375 67.3311 160.046 67.5218C159.725 67.7038 159.465 67.9811 159.266 68.3538C159.075 68.7178 158.98 69.1771 158.98 69.7318C158.98 70.2778 159.075 70.7371 159.266 71.1098C159.465 71.4825 159.721 71.7641 160.033 71.9548C160.353 72.1368 160.7 72.2278 161.073 72.2278ZM165.841 73.0078V66.4558H166.829L166.907 67.7038C167.054 67.4091 167.24 67.1578 167.466 66.9498C167.7 66.7418 167.977 66.5815 168.298 66.4688C168.627 66.3561 169 66.2998 169.416 66.2998V67.4438H169.013C168.735 67.4438 168.471 67.4828 168.22 67.5608C167.968 67.6301 167.743 67.7471 167.544 67.9118C167.353 68.0765 167.201 68.3018 167.089 68.5878C166.985 68.8651 166.933 69.2118 166.933 69.6278V73.0078H165.841ZM173.226 73.0078C172.836 73.0078 172.498 72.9471 172.212 72.8258C171.926 72.7045 171.705 72.5008 171.549 72.2148C171.402 71.9201 171.328 71.5258 171.328 71.0318V67.3788H170.184V66.4558H171.328L171.471 64.8698H172.42V66.4558H174.318V67.3788H172.42V71.0318C172.42 71.4391 172.503 71.7165 172.667 71.8638C172.832 72.0025 173.122 72.0718 173.538 72.0718H174.24V73.0078H173.226ZM178.438 73.1638C177.823 73.1638 177.277 73.0208 176.8 72.7348C176.332 72.4488 175.964 72.0501 175.695 71.5388C175.427 71.0188 175.292 70.4165 175.292 69.7318C175.292 69.0385 175.422 68.4361 175.682 67.9248C175.951 67.4135 176.324 67.0148 176.8 66.7288C177.286 66.4428 177.84 66.2998 178.464 66.2998C179.106 66.2998 179.647 66.4428 180.089 66.7288C180.54 67.0148 180.882 67.3918 181.116 67.8598C181.359 68.3191 181.48 68.8261 181.48 69.3808C181.48 69.4675 181.48 69.5585 181.48 69.6538C181.48 69.7491 181.476 69.8575 181.467 69.9788H176.111V69.1338H180.414C180.388 68.5358 180.189 68.0678 179.816 67.7298C179.452 67.3918 178.993 67.2228 178.438 67.2228C178.066 67.2228 177.719 67.3095 177.398 67.4828C177.086 67.6475 176.835 67.8945 176.644 68.2238C176.454 68.5445 176.358 68.9475 176.358 69.4328V69.7968C176.358 70.3341 176.454 70.7848 176.644 71.1488C176.844 71.5128 177.099 71.7858 177.411 71.9678C177.732 72.1498 178.074 72.2408 178.438 72.2408C178.898 72.2408 179.275 72.1411 179.569 71.9418C179.873 71.7338 180.089 71.4565 180.219 71.1098H181.298C181.194 71.4998 181.012 71.8508 180.752 72.1628C180.492 72.4748 180.167 72.7218 179.777 72.9038C179.396 73.0771 178.95 73.1638 178.438 73.1638ZM189.28 73.1638C188.665 73.1638 188.119 73.0208 187.642 72.7348C187.174 72.4488 186.806 72.0501 186.537 71.5388C186.268 71.0188 186.134 70.4165 186.134 69.7318C186.134 69.0385 186.264 68.4361 186.524 67.9248C186.793 67.4135 187.165 67.0148 187.642 66.7288C188.127 66.4428 188.682 66.2998 189.306 66.2998C189.947 66.2998 190.489 66.4428 190.931 66.7288C191.382 67.0148 191.724 67.3918 191.958 67.8598C192.201 68.3191 192.322 68.8261 192.322 69.3808C192.322 69.4675 192.322 69.5585 192.322 69.6538C192.322 69.7491 192.318 69.8575 192.309 69.9788H186.953V69.1338H191.256C191.23 68.5358 191.031 68.0678 190.658 67.7298C190.294 67.3918 189.835 67.2228 189.28 67.2228C188.907 67.2228 188.561 67.3095 188.24 67.4828C187.928 67.6475 187.677 67.8945 187.486 68.2238C187.295 68.5445 187.2 68.9475 187.2 69.4328V69.7968C187.2 70.3341 187.295 70.7848 187.486 71.1488C187.685 71.5128 187.941 71.7858 188.253 71.9678C188.574 72.1498 188.916 72.2408 189.28 72.2408C189.739 72.2408 190.116 72.1411 190.411 71.9418C190.714 71.7338 190.931 71.4565 191.061 71.1098H192.14C192.036 71.4998 191.854 71.8508 191.594 72.1628C191.334 72.4748 191.009 72.7218 190.619 72.9038C190.238 73.0771 189.791 73.1638 189.28 73.1638ZM193.796 73.0078V66.4558H194.784L194.836 67.5998C195.044 67.1925 195.338 66.8761 195.72 66.6508C196.11 66.4168 196.552 66.2998 197.046 66.2998C197.557 66.2998 197.999 66.4038 198.372 66.6118C198.744 66.8111 199.035 67.1188 199.243 67.5348C199.451 67.9421 199.555 68.4621 199.555 69.0948V73.0078H198.463V69.2118C198.463 68.5531 198.315 68.0591 198.021 67.7298C197.735 67.4005 197.327 67.2358 196.799 67.2358C196.435 67.2358 196.11 67.3268 195.824 67.5088C195.538 67.6821 195.308 67.9378 195.135 68.2758C194.97 68.6051 194.888 69.0168 194.888 69.5108V73.0078H193.796ZM207.288 73.0078C206.898 73.0078 206.56 72.9471 206.274 72.8258C205.988 72.7045 205.767 72.5008 205.611 72.2148C205.463 71.9201 205.39 71.5258 205.39 71.0318V67.3788H204.246V66.4558H205.39L205.533 64.8698H206.482V66.4558H208.38V67.3788H206.482V71.0318C206.482 71.4391 206.564 71.7165 206.729 71.8638C206.893 72.0025 207.184 72.0718 207.6 72.0718H208.302V73.0078H207.288ZM212.552 73.1638C211.945 73.1638 211.399 73.0251 210.914 72.7478C210.428 72.4618 210.047 72.0631 209.77 71.5518C209.492 71.0318 209.354 70.4295 209.354 69.7448C209.354 69.0428 209.492 68.4361 209.77 67.9248C210.056 67.4048 210.441 67.0061 210.927 66.7288C211.421 66.4428 211.971 66.2998 212.578 66.2998C213.202 66.2998 213.752 66.4428 214.229 66.7288C214.714 67.0061 215.095 67.4048 215.373 67.9248C215.659 68.4361 215.802 69.0385 215.802 69.7318C215.802 70.4251 215.659 71.0318 215.373 71.5518C215.087 72.0631 214.701 72.4618 214.216 72.7478C213.73 73.0251 213.176 73.1638 212.552 73.1638ZM212.565 72.2278C212.937 72.2278 213.284 72.1368 213.605 71.9548C213.925 71.7641 214.185 71.4825 214.385 71.1098C214.584 70.7371 214.684 70.2778 214.684 69.7318C214.684 69.1771 214.584 68.7178 214.385 68.3538C214.194 67.9811 213.938 67.7038 213.618 67.5218C213.306 67.3311 212.959 67.2358 212.578 67.2358C212.214 67.2358 211.867 67.3311 211.538 67.5218C211.217 67.7038 210.957 67.9811 210.758 68.3538C210.567 68.7178 210.472 69.1771 210.472 69.7318C210.472 70.2778 210.567 70.7371 210.758 71.1098C210.957 71.4825 211.213 71.7641 211.525 71.9548C211.845 72.1368 212.192 72.2278 212.565 72.2278ZM217.333 73.0078V66.4558H218.321L218.386 67.3918C218.594 67.0538 218.871 66.7895 219.218 66.5988C219.573 66.3995 219.959 66.2998 220.375 66.2998C220.713 66.2998 221.016 66.3475 221.285 66.4428C221.562 66.5295 221.805 66.6681 222.013 66.8588C222.221 67.0408 222.39 67.2748 222.52 67.5608C222.745 67.1621 223.053 66.8545 223.443 66.6378C223.842 66.4125 224.266 66.2998 224.717 66.2998C225.22 66.2998 225.657 66.4038 226.03 66.6118C226.411 66.8111 226.702 67.1188 226.901 67.5348C227.109 67.9421 227.213 68.4621 227.213 69.0948V73.0078H226.134V69.2118C226.134 68.5531 226 68.0591 225.731 67.7298C225.462 67.4005 225.085 67.2358 224.6 67.2358C224.262 67.2358 223.959 67.3268 223.69 67.5088C223.421 67.6821 223.209 67.9378 223.053 68.2758C222.897 68.6138 222.819 69.0298 222.819 69.5238V73.0078H221.727V69.2118C221.727 68.5531 221.593 68.0591 221.324 67.7298C221.055 67.4005 220.674 67.2358 220.18 67.2358C219.851 67.2358 219.552 67.3268 219.283 67.5088C219.023 67.6821 218.815 67.9378 218.659 68.2758C218.503 68.6138 218.425 69.0298 218.425 69.5238V73.0078H217.333ZM231.043 73.1638C230.514 73.1638 230.072 73.0728 229.717 72.8908C229.362 72.7001 229.097 72.4531 228.924 72.1498C228.751 71.8378 228.664 71.4998 228.664 71.1358C228.664 70.6938 228.777 70.3211 229.002 70.0178C229.236 69.7058 229.561 69.4718 229.977 69.3158C230.402 69.1511 230.9 69.0688 231.472 69.0688H233.201C233.201 68.6615 233.136 68.3235 233.006 68.0548C232.885 67.7775 232.703 67.5695 232.46 67.4308C232.226 67.2921 231.931 67.2228 231.576 67.2228C231.16 67.2228 230.8 67.3268 230.497 67.5348C230.194 67.7428 230.007 68.0505 229.938 68.4578H228.82C228.872 67.9898 229.028 67.5998 229.288 67.2878C229.557 66.9671 229.895 66.7245 230.302 66.5598C230.709 66.3865 231.134 66.2998 231.576 66.2998C232.183 66.2998 232.685 66.4125 233.084 66.6378C233.491 66.8545 233.795 67.1621 233.994 67.5608C234.193 67.9508 234.293 68.4145 234.293 68.9518V73.0078H233.318L233.253 71.8508C233.166 72.0328 233.054 72.2061 232.915 72.3708C232.785 72.5268 232.629 72.6655 232.447 72.7868C232.265 72.8995 232.057 72.9905 231.823 73.0598C231.598 73.1291 231.338 73.1638 231.043 73.1638ZM231.212 72.2408C231.515 72.2408 231.788 72.1801 232.031 72.0588C232.282 71.9288 232.495 71.7555 232.668 71.5388C232.841 71.3135 232.971 71.0665 233.058 70.7978C233.153 70.5291 233.201 70.2475 233.201 69.9528V69.9138H231.563C231.138 69.9138 230.796 69.9658 230.536 70.0698C230.276 70.1651 230.09 70.3038 229.977 70.4858C229.864 70.6591 229.808 70.8585 229.808 71.0838C229.808 71.3178 229.86 71.5215 229.964 71.6948C230.077 71.8681 230.237 72.0025 230.445 72.0978C230.662 72.1931 230.917 72.2408 231.212 72.2408ZM242.321 73.1638C241.689 73.1638 241.134 73.0165 240.657 72.7218C240.181 72.4185 239.812 72.0068 239.552 71.4868C239.292 70.9668 239.162 70.3775 239.162 69.7188C239.162 69.0601 239.292 68.4751 239.552 67.9638C239.812 67.4438 240.181 67.0365 240.657 66.7418C241.143 66.4471 241.702 66.2998 242.334 66.2998C242.872 66.2998 243.34 66.4081 243.738 66.6248C244.146 66.8415 244.458 67.1448 244.674 67.5348V63.6478H245.766V73.0078H244.778L244.687 71.9288C244.549 72.1455 244.371 72.3491 244.154 72.5398C243.938 72.7218 243.678 72.8735 243.374 72.9948C243.071 73.1075 242.72 73.1638 242.321 73.1638ZM242.451 72.2148C242.885 72.2148 243.266 72.1108 243.595 71.9028C243.925 71.6948 244.18 71.4088 244.362 71.0448C244.544 70.6721 244.635 70.2345 244.635 69.7318C244.635 69.2378 244.544 68.8045 244.362 68.4318C244.18 68.0591 243.925 67.7688 243.595 67.5608C243.266 67.3528 242.885 67.2488 242.451 67.2488C242.027 67.2488 241.65 67.3528 241.32 67.5608C240.991 67.7688 240.735 68.0591 240.553 68.4318C240.371 68.8045 240.28 69.2378 240.28 69.7318C240.28 70.2345 240.371 70.6721 240.553 71.0448C240.735 71.4088 240.991 71.6948 241.32 71.9028C241.65 72.1108 242.027 72.2148 242.451 72.2148ZM250.459 73.1638C249.843 73.1638 249.297 73.0208 248.821 72.7348C248.353 72.4488 247.984 72.0501 247.716 71.5388C247.447 71.0188 247.313 70.4165 247.313 69.7318C247.313 69.0385 247.443 68.4361 247.703 67.9248C247.971 67.4135 248.344 67.0148 248.821 66.7288C249.306 66.4428 249.861 66.2998 250.485 66.2998C251.126 66.2998 251.668 66.4428 252.11 66.7288C252.56 67.0148 252.903 67.3918 253.137 67.8598C253.379 68.3191 253.501 68.8261 253.501 69.3808C253.501 69.4675 253.501 69.5585 253.501 69.6538C253.501 69.7491 253.496 69.8575 253.488 69.9788H248.132V69.1338H252.435C252.409 68.5358 252.209 68.0678 251.837 67.7298C251.473 67.3918 251.013 67.2228 250.459 67.2228C250.086 67.2228 249.739 67.3095 249.419 67.4828C249.107 67.6475 248.855 67.8945 248.665 68.2238C248.474 68.5445 248.379 68.9475 248.379 69.4328V69.7968C248.379 70.3341 248.474 70.7848 248.665 71.1488C248.864 71.5128 249.12 71.7858 249.432 71.9678C249.752 72.1498 250.095 72.2408 250.459 72.2408C250.918 72.2408 251.295 72.1411 251.59 71.9418C251.893 71.7338 252.11 71.4565 252.24 71.1098H253.319C253.215 71.4998 253.033 71.8508 252.773 72.1628C252.513 72.4748 252.188 72.7218 251.798 72.9038C251.416 73.0771 250.97 73.1638 250.459 73.1638ZM261.314 73.1638C260.681 73.1638 260.126 73.0165 259.65 72.7218C259.173 72.4185 258.805 72.0068 258.545 71.4868C258.285 70.9668 258.155 70.3775 258.155 69.7188C258.155 69.0601 258.285 68.4751 258.545 67.9638C258.805 67.4438 259.173 67.0365 259.65 66.7418C260.135 66.4471 260.694 66.2998 261.327 66.2998C261.864 66.2998 262.332 66.4081 262.731 66.6248C263.138 66.8415 263.45 67.1448 263.667 67.5348V63.6478H264.759V73.0078H263.771L263.68 71.9288C263.541 72.1455 263.363 72.3491 263.147 72.5398C262.93 72.7218 262.67 72.8735 262.367 72.9948C262.063 73.1075 261.712 73.1638 261.314 73.1638ZM261.444 72.2148C261.877 72.2148 262.258 72.1108 262.588 71.9028C262.917 71.6948 263.173 71.4088 263.355 71.0448C263.537 70.6721 263.628 70.2345 263.628 69.7318C263.628 69.2378 263.537 68.8045 263.355 68.4318C263.173 68.0591 262.917 67.7688 262.588 67.5608C262.258 67.3528 261.877 67.2488 261.444 67.2488C261.019 67.2488 260.642 67.3528 260.313 67.5608C259.983 67.7688 259.728 68.0591 259.546 68.4318C259.364 68.8045 259.273 69.2378 259.273 69.7318C259.273 70.2345 259.364 70.6721 259.546 71.0448C259.728 71.4088 259.983 71.6948 260.313 71.9028C260.642 72.1108 261.019 72.2148 261.444 72.2148ZM269.451 73.1638C268.836 73.1638 268.29 73.0208 267.813 72.7348C267.345 72.4488 266.977 72.0501 266.708 71.5388C266.439 71.0188 266.305 70.4165 266.305 69.7318C266.305 69.0385 266.435 68.4361 266.695 67.9248C266.964 67.4135 267.336 67.0148 267.813 66.7288C268.298 66.4428 268.853 66.2998 269.477 66.2998C270.118 66.2998 270.66 66.4428 271.102 66.7288C271.553 67.0148 271.895 67.3918 272.129 67.8598C272.372 68.3191 272.493 68.8261 272.493 69.3808C272.493 69.4675 272.493 69.5585 272.493 69.6538C272.493 69.7491 272.489 69.8575 272.48 69.9788H267.124V69.1338H271.427C271.401 68.5358 271.202 68.0678 270.829 67.7298C270.465 67.3918 270.006 67.2228 269.451 67.2228C269.078 67.2228 268.732 67.3095 268.411 67.4828C268.099 67.6475 267.848 67.8945 267.657 68.2238C267.466 68.5445 267.371 68.9475 267.371 69.4328V69.7968C267.371 70.3341 267.466 70.7848 267.657 71.1488C267.856 71.5128 268.112 71.7858 268.424 71.9678C268.745 72.1498 269.087 72.2408 269.451 72.2408C269.91 72.2408 270.287 72.1411 270.582 71.9418C270.885 71.7338 271.102 71.4565 271.232 71.1098H272.311C272.207 71.4998 272.025 71.8508 271.765 72.1628C271.505 72.4748 271.18 72.7218 270.79 72.9038C270.409 73.0771 269.962 73.1638 269.451 73.1638ZM276.918 73.1638C276.302 73.1638 275.748 73.0208 275.254 72.7348C274.768 72.4488 274.387 72.0501 274.11 71.5388C273.832 71.0188 273.694 70.4208 273.694 69.7448C273.694 69.0515 273.832 68.4491 274.11 67.9378C274.387 67.4265 274.768 67.0278 275.254 66.7418C275.748 66.4471 276.302 66.2998 276.918 66.2998C277.698 66.2998 278.348 66.5035 278.868 66.9108C279.388 67.3095 279.717 67.8468 279.856 68.5228H278.738C278.651 68.1155 278.439 67.7991 278.101 67.5738C277.763 67.3485 277.364 67.2358 276.905 67.2358C276.532 67.2358 276.185 67.3311 275.865 67.5218C275.544 67.7038 275.288 67.9811 275.098 68.3538C274.907 68.7265 274.812 69.1858 274.812 69.7318C274.812 70.1391 274.868 70.5031 274.981 70.8238C275.093 71.1358 275.245 71.3958 275.436 71.6038C275.626 71.8118 275.847 71.9721 276.099 72.0848C276.359 72.1888 276.627 72.2408 276.905 72.2408C277.217 72.2408 277.498 72.1931 277.75 72.0978C278.001 71.9938 278.213 71.8421 278.387 71.6428C278.56 71.4435 278.677 71.2095 278.738 70.9408H279.856C279.717 71.5995 279.383 72.1368 278.855 72.5528C278.335 72.9601 277.689 73.1638 276.918 73.1638ZM281.51 73.0078V66.4558H282.602V73.0078H281.51ZM282.056 65.0648C281.839 65.0648 281.657 64.9955 281.51 64.8568C281.371 64.7095 281.302 64.5275 281.302 64.3108C281.302 64.0941 281.371 63.9208 281.51 63.7908C281.657 63.6521 281.839 63.5828 282.056 63.5828C282.264 63.5828 282.442 63.6521 282.589 63.7908C282.736 63.9208 282.81 64.0941 282.81 64.3108C282.81 64.5275 282.736 64.7095 282.589 64.8568C282.442 64.9955 282.264 65.0648 282.056 65.0648ZM286.999 73.1638C286.453 73.1638 285.976 73.0728 285.569 72.8908C285.17 72.7088 284.85 72.4575 284.607 72.1368C284.373 71.8075 284.23 71.4218 284.178 70.9798H285.296C285.339 71.2051 285.43 71.4131 285.569 71.6038C285.708 71.7945 285.894 71.9505 286.128 72.0718C286.371 72.1845 286.665 72.2408 287.012 72.2408C287.315 72.2408 287.567 72.1975 287.766 72.1108C287.965 72.0155 288.113 71.8898 288.208 71.7338C288.312 71.5778 288.364 71.4088 288.364 71.2268C288.364 70.9581 288.299 70.7545 288.169 70.6158C288.048 70.4771 287.866 70.3688 287.623 70.2908C287.38 70.2041 287.086 70.1305 286.739 70.0698C286.453 70.0178 286.171 69.9485 285.894 69.8618C285.617 69.7751 285.37 69.6625 285.153 69.5238C284.936 69.3765 284.763 69.1988 284.633 68.9908C284.512 68.7828 284.451 68.5271 284.451 68.2238C284.451 67.8511 284.546 67.5218 284.737 67.2358C284.928 66.9411 285.201 66.7115 285.556 66.5468C285.92 66.3821 286.34 66.2998 286.817 66.2998C287.519 66.2998 288.087 66.4688 288.52 66.8068C288.953 67.1448 289.209 67.6345 289.287 68.2758H288.208C288.165 67.9465 288.022 67.6908 287.779 67.5088C287.545 67.3181 287.22 67.2228 286.804 67.2228C286.397 67.2228 286.085 67.3051 285.868 67.4698C285.66 67.6345 285.556 67.8511 285.556 68.1198C285.556 68.2931 285.612 68.4491 285.725 68.5878C285.846 68.7178 286.02 68.8305 286.245 68.9258C286.479 69.0211 286.765 69.0991 287.103 69.1598C287.536 69.2378 287.931 69.3418 288.286 69.4718C288.641 69.6018 288.927 69.7968 289.144 70.0568C289.369 70.3081 289.482 70.6678 289.482 71.1358C289.482 71.5431 289.378 71.8985 289.17 72.2018C288.971 72.5051 288.685 72.7435 288.312 72.9168C287.939 73.0815 287.502 73.1638 286.999 73.1638ZM291.159 73.0078V66.4558H292.251V73.0078H291.159ZM291.705 65.0648C291.488 65.0648 291.306 64.9955 291.159 64.8568C291.02 64.7095 290.951 64.5275 290.951 64.3108C290.951 64.0941 291.02 63.9208 291.159 63.7908C291.306 63.6521 291.488 63.5828 291.705 63.5828C291.913 63.5828 292.09 63.6521 292.238 63.7908C292.385 63.9208 292.459 64.0941 292.459 64.3108C292.459 64.5275 292.385 64.7095 292.238 64.8568C292.09 64.9955 291.913 65.0648 291.705 65.0648ZM297.103 73.1638C296.496 73.1638 295.95 73.0251 295.465 72.7478C294.979 72.4618 294.598 72.0631 294.321 71.5518C294.043 71.0318 293.905 70.4295 293.905 69.7448C293.905 69.0428 294.043 68.4361 294.321 67.9248C294.607 67.4048 294.992 67.0061 295.478 66.7288C295.972 66.4428 296.522 66.2998 297.129 66.2998C297.753 66.2998 298.303 66.4428 298.78 66.7288C299.265 67.0061 299.646 67.4048 299.924 67.9248C300.21 68.4361 300.353 69.0385 300.353 69.7318C300.353 70.4251 300.21 71.0318 299.924 71.5518C299.638 72.0631 299.252 72.4618 298.767 72.7478C298.281 73.0251 297.727 73.1638 297.103 73.1638ZM297.116 72.2278C297.488 72.2278 297.835 72.1368 298.156 71.9548C298.476 71.7641 298.736 71.4825 298.936 71.1098C299.135 70.7371 299.235 70.2778 299.235 69.7318C299.235 69.1771 299.135 68.7178 298.936 68.3538C298.745 67.9811 298.489 67.7038 298.169 67.5218C297.857 67.3311 297.51 67.2358 297.129 67.2358C296.765 67.2358 296.418 67.3311 296.089 67.5218C295.768 67.7038 295.508 67.9811 295.309 68.3538C295.118 68.7178 295.023 69.1771 295.023 69.7318C295.023 70.2778 295.118 70.7371 295.309 71.1098C295.508 71.4825 295.764 71.7641 296.076 71.9548C296.396 72.1368 296.743 72.2278 297.116 72.2278ZM301.884 73.0078V66.4558H302.872L302.924 67.5998C303.132 67.1925 303.426 66.8761 303.808 66.6508C304.198 66.4168 304.64 66.2998 305.134 66.2998C305.645 66.2998 306.087 66.4038 306.46 66.6118C306.832 66.8111 307.123 67.1188 307.331 67.5348C307.539 67.9421 307.643 68.4621 307.643 69.0948V73.0078H306.551V69.2118C306.551 68.5531 306.403 68.0591 306.109 67.7298C305.823 67.4005 305.415 67.2358 304.887 67.2358C304.523 67.2358 304.198 67.3268 303.912 67.5088C303.626 67.6821 303.396 67.9378 303.223 68.2758C303.058 68.6051 302.976 69.0168 302.976 69.5108V73.0078H301.884ZM312.221 73.1638C311.606 73.1638 311.06 73.0208 310.583 72.7348C310.115 72.4488 309.747 72.0501 309.478 71.5388C309.21 71.0188 309.075 70.4165 309.075 69.7318C309.075 69.0385 309.205 68.4361 309.465 67.9248C309.734 67.4135 310.107 67.0148 310.583 66.7288C311.069 66.4428 311.623 66.2998 312.247 66.2998C312.889 66.2998 313.43 66.4428 313.872 66.7288C314.323 67.0148 314.665 67.3918 314.899 67.8598C315.142 68.3191 315.263 68.8261 315.263 69.3808C315.263 69.4675 315.263 69.5585 315.263 69.6538C315.263 69.7491 315.259 69.8575 315.25 69.9788H309.894V69.1338H314.197C314.171 68.5358 313.972 68.0678 313.599 67.7298C313.235 67.3918 312.776 67.2228 312.221 67.2228C311.849 67.2228 311.502 67.3095 311.181 67.4828C310.869 67.6475 310.618 67.8945 310.427 68.2238C310.237 68.5445 310.141 68.9475 310.141 69.4328V69.7968C310.141 70.3341 310.237 70.7848 310.427 71.1488C310.627 71.5128 310.882 71.7858 311.194 71.9678C311.515 72.1498 311.857 72.2408 312.221 72.2408C312.681 72.2408 313.058 72.1411 313.352 71.9418C313.656 71.7338 313.872 71.4565 314.002 71.1098H315.081C314.977 71.4998 314.795 71.8508 314.535 72.1628C314.275 72.4748 313.95 72.7218 313.56 72.9038C313.179 73.0771 312.733 73.1638 312.221 73.1638ZM319.207 73.1638C318.661 73.1638 318.184 73.0728 317.777 72.8908C317.378 72.7088 317.058 72.4575 316.815 72.1368C316.581 71.8075 316.438 71.4218 316.386 70.9798H317.504C317.547 71.2051 317.638 71.4131 317.777 71.6038C317.916 71.7945 318.102 71.9505 318.336 72.0718C318.579 72.1845 318.873 72.2408 319.22 72.2408C319.523 72.2408 319.775 72.1975 319.974 72.1108C320.173 72.0155 320.321 71.8898 320.416 71.7338C320.52 71.5778 320.572 71.4088 320.572 71.2268C320.572 70.9581 320.507 70.7545 320.377 70.6158C320.256 70.4771 320.074 70.3688 319.831 70.2908C319.588 70.2041 319.294 70.1305 318.947 70.0698C318.661 70.0178 318.379 69.9485 318.102 69.8618C317.825 69.7751 317.578 69.6625 317.361 69.5238C317.144 69.3765 316.971 69.1988 316.841 68.9908C316.72 68.7828 316.659 68.5271 316.659 68.2238C316.659 67.8511 316.754 67.5218 316.945 67.2358C317.136 66.9411 317.409 66.7115 317.764 66.5468C318.128 66.3821 318.548 66.2998 319.025 66.2998C319.727 66.2998 320.295 66.4688 320.728 66.8068C321.161 67.1448 321.417 67.6345 321.495 68.2758H320.416C320.373 67.9465 320.23 67.6908 319.987 67.5088C319.753 67.3181 319.428 67.2228 319.012 67.2228C318.605 67.2228 318.293 67.3051 318.076 67.4698C317.868 67.6345 317.764 67.8511 317.764 68.1198C317.764 68.2931 317.82 68.4491 317.933 68.5878C318.054 68.7178 318.228 68.8305 318.453 68.9258C318.687 69.0211 318.973 69.0991 319.311 69.1598C319.744 69.2378 320.139 69.3418 320.494 69.4718C320.849 69.6018 321.135 69.7968 321.352 70.0568C321.577 70.3081 321.69 70.6678 321.69 71.1358C321.69 71.5431 321.586 71.8985 321.378 72.2018C321.179 72.5051 320.893 72.7435 320.52 72.9168C320.147 73.0815 319.71 73.1638 319.207 73.1638Z" fill="#011853"/>
</g>
<defs>
<filter id="filter0_dd_716_5093" x="127" y="79.0078" width="498" height="469" filterUnits="userSpaceOnUse" color-interpolation-filters="sRGB">
<feFlood flood-opacity="0" result="BackgroundImageFix"/>
<feColorMatrix in="SourceAlpha" type="matrix" values="0 0 0 0 0 0 0 0 0 0 0 0 0 0 0 0 0 0 127 0" result="hardAlpha"/>
<feOffset dy="4"/>
<feGaussianBlur stdDeviation="2"/>
<feComposite in2="hardAlpha" operator="out"/>
<feColorMatrix type="matrix" values="0 0 0 0 0.67451 0 0 0 0 0.694118 0 0 0 0 0.733333 0 0 0 0.2 0"/>
<feBlend mode="normal" in2="BackgroundImageFix" result="effect1_dropShadow_716_5093"/>
<feColorMatrix in="SourceAlpha" type="matrix" values="0 0 0 0 0 0 0 0 0 0 0 0 0 0 0 0 0 0 127 0" result="hardAlpha"/>
<feOffset dy="10"/>
<feGaussianBlur stdDeviation="15"/>
<feComposite in2="hardAlpha" operator="out"/>
<feColorMatrix type="matrix" values="0 0 0 0 0.672988 0 0 0 0 0.695397 0 0 0 0 0.734238 0 0 0 0.35 0"/>
<feBlend mode="normal" in2="effect1_dropShadow_716_5093" result="effect2_dropShadow_716_5093"/>
<feBlend mode="normal" in="SourceGraphic" in2="effect2_dropShadow_716_5093" result="shape"/>
</filter>
<clipPath id="clip0_716_5093">
<rect width="586" height="419" rx="16" fill="white"/>
</clipPath>
<clipPath id="clip1_716_5093">
<rect width="55" height="56" fill="white" transform="translate(517 121.008)"/>
</clipPath>
<clipPath id="clip2_716_5093">
<rect width="55" height="55" fill="white" transform="translate(517 191.008)"/>
</clipPath>
<clipPath id="clip3_716_5093">
<rect width="55" height="56" fill="white" transform="translate(517 260.008)"/>
</clipPath>
<clipPath id="clip4_716_5093">
<rect x="175.131" y="119.008" width="326" height="197" rx="10" fill="white"/>
</clipPath>
<clipPath id="clip5_716_5093">
<rect width="24" height="24" fill="white" transform="translate(413.811 355.508) rotate(135)"/>
</clipPath>
<clipPath id="clip6_716_5093">
<rect width="18" height="18" fill="white" transform="translate(47.3398 241.008)"/>
</clipPath>
<clipPath id="clip7_716_5093">
<rect width="18" height="18" fill="white" transform="translate(34.8398 147.832)"/>
</clipPath>
</defs>
</svg>
