<svg width="586" height="419" viewBox="0 0 586 419" fill="none" xmlns="http://www.w3.org/2000/svg">
<g clip-path="url(#clip0_716_4956)">
<rect width="586" height="419" rx="16" fill="#CFECE7"/>
<g filter="url(#filter0_di_716_4956)">
<path d="M610.658 76.4727H78.8648C67.9617 76.4727 59.123 85.116 59.123 95.7781V420.351C59.123 431.013 67.9617 439.656 78.8648 439.656H610.658C621.561 439.656 630.399 431.013 630.399 420.351V95.7781C630.399 85.116 621.561 76.4727 610.658 76.4727Z" fill="white"/>
<path d="M562.225 182.777H84.2804C81.7665 182.777 79.7285 184.815 79.7285 187.329V222.606C79.7285 225.12 81.7665 227.158 84.2804 227.158H562.225C564.739 227.158 566.777 225.12 566.777 222.606V187.329C566.777 184.815 564.739 182.777 562.225 182.777Z" fill="#F2F2F2"/>
<path d="M98.8262 209.518V199.163H100.069V209.518H98.8262ZM102.219 209.518V202.062H103.344L103.403 203.364C103.64 202.901 103.975 202.54 104.409 202.284C104.853 202.018 105.356 201.885 105.918 201.885C106.5 201.885 107.003 202.003 107.427 202.24C107.851 202.466 108.181 202.817 108.418 203.29C108.655 203.753 108.773 204.345 108.773 205.065V209.518H107.53V205.199C107.53 204.449 107.363 203.887 107.027 203.512C106.702 203.138 106.238 202.95 105.637 202.95C105.222 202.95 104.853 203.054 104.527 203.261C104.202 203.457 103.94 203.749 103.743 204.133C103.556 204.508 103.462 204.977 103.462 205.539V209.518H102.219ZM110.832 209.518V202.062H112.075V209.518H110.832ZM111.454 200.479C111.207 200.479 111 200.401 110.832 200.243C110.675 200.075 110.596 199.868 110.596 199.621C110.596 199.374 110.675 199.178 110.832 199.03C111 198.871 111.207 198.793 111.454 198.793C111.691 198.793 111.893 198.871 112.06 199.03C112.228 199.178 112.312 199.374 112.312 199.621C112.312 199.868 112.228 200.075 112.06 200.243C111.893 200.401 111.691 200.479 111.454 200.479ZM117.626 209.696C116.926 209.696 116.295 209.533 115.733 209.208C115.18 208.882 114.746 208.428 114.431 207.847C114.115 207.255 113.957 206.574 113.957 205.805C113.957 205.016 114.115 204.33 114.431 203.749C114.746 203.167 115.18 202.713 115.733 202.388C116.295 202.052 116.926 201.885 117.626 201.885C118.514 201.885 119.253 202.117 119.845 202.58C120.437 203.034 120.812 203.645 120.969 204.415H119.697C119.599 203.951 119.357 203.591 118.972 203.335C118.588 203.079 118.134 202.95 117.611 202.95C117.187 202.95 116.793 203.058 116.428 203.275C116.063 203.483 115.772 203.798 115.555 204.222C115.338 204.647 115.23 205.169 115.23 205.79C115.23 206.253 115.294 206.668 115.422 207.033C115.55 207.388 115.723 207.684 115.94 207.921C116.157 208.157 116.408 208.339 116.694 208.468C116.99 208.586 117.296 208.645 117.611 208.645C117.966 208.645 118.287 208.591 118.573 208.483C118.859 208.364 119.101 208.191 119.298 207.965C119.495 207.739 119.628 207.472 119.697 207.166H120.969C120.812 207.916 120.432 208.527 119.83 209.001C119.239 209.464 118.504 209.696 117.626 209.696ZM122.852 209.518V202.062H124.095V209.518H122.852ZM123.474 200.479C123.227 200.479 123.02 200.401 122.852 200.243C122.694 200.075 122.616 199.868 122.616 199.621C122.616 199.374 122.694 199.178 122.852 199.03C123.02 198.871 123.227 198.793 123.474 198.793C123.71 198.793 123.912 198.871 124.08 199.03C124.248 199.178 124.332 199.374 124.332 199.621C124.332 199.868 124.248 200.075 124.08 200.243C123.912 200.401 123.71 200.479 123.474 200.479ZM128.714 209.696C128.112 209.696 127.609 209.592 127.205 209.385C126.801 209.168 126.5 208.887 126.303 208.542C126.105 208.187 126.007 207.802 126.007 207.388C126.007 206.885 126.135 206.461 126.391 206.116C126.658 205.761 127.027 205.494 127.501 205.317C127.984 205.129 128.551 205.036 129.202 205.036H131.17C131.17 204.573 131.096 204.188 130.948 203.882C130.81 203.567 130.603 203.33 130.326 203.172C130.06 203.014 129.725 202.935 129.32 202.935C128.847 202.935 128.438 203.054 128.093 203.29C127.747 203.527 127.535 203.877 127.456 204.341H126.184C126.243 203.808 126.421 203.364 126.717 203.009C127.023 202.644 127.407 202.368 127.871 202.181C128.334 201.984 128.817 201.885 129.32 201.885C130.011 201.885 130.583 202.013 131.036 202.269C131.5 202.516 131.845 202.866 132.072 203.32C132.299 203.764 132.412 204.292 132.412 204.903V209.518H131.303L131.229 208.202C131.13 208.409 131.002 208.606 130.844 208.793C130.696 208.971 130.519 209.129 130.312 209.267C130.104 209.395 129.868 209.499 129.602 209.577C129.345 209.656 129.049 209.696 128.714 209.696ZM128.906 208.645C129.251 208.645 129.562 208.576 129.838 208.438C130.124 208.29 130.366 208.094 130.563 207.847C130.76 207.591 130.908 207.309 131.007 207.003C131.115 206.697 131.17 206.377 131.17 206.042V205.997H129.306C128.822 205.997 128.433 206.057 128.137 206.175C127.841 206.283 127.629 206.441 127.501 206.648C127.373 206.845 127.309 207.073 127.309 207.329C127.309 207.595 127.368 207.827 127.486 208.024C127.614 208.221 127.797 208.375 128.033 208.483C128.28 208.591 128.571 208.645 128.906 208.645ZM137.062 209.518C136.618 209.518 136.233 209.449 135.908 209.311C135.582 209.173 135.331 208.941 135.153 208.616C134.985 208.28 134.902 207.832 134.902 207.27V203.113H133.6V202.062H134.902L135.064 200.258H136.144V202.062H138.304V203.113H136.144V207.27C136.144 207.733 136.238 208.049 136.425 208.216C136.613 208.375 136.943 208.453 137.417 208.453H138.215V209.518H137.062ZM140.044 209.518V202.062H141.286V209.518H140.044ZM140.665 200.479C140.419 200.479 140.212 200.401 140.044 200.243C139.887 200.075 139.807 199.868 139.807 199.621C139.807 199.374 139.887 199.178 140.044 199.03C140.212 198.871 140.419 198.793 140.665 198.793C140.902 198.793 141.104 198.871 141.272 199.03C141.44 199.178 141.523 199.374 141.523 199.621C141.523 199.868 141.44 200.075 141.272 200.243C141.104 200.401 140.902 200.479 140.665 200.479ZM145.624 209.518L142.799 202.062H144.101L146.349 208.32L148.613 202.062H149.885L147.059 209.518H145.624ZM153.332 209.696C152.73 209.696 152.227 209.592 151.823 209.385C151.418 209.168 151.117 208.887 150.92 208.542C150.722 208.187 150.624 207.802 150.624 207.388C150.624 206.885 150.752 206.461 151.009 206.116C151.275 205.761 151.645 205.494 152.119 205.317C152.601 205.129 153.169 205.036 153.82 205.036H155.787C155.787 204.573 155.713 204.188 155.566 203.882C155.427 203.567 155.22 203.33 154.944 203.172C154.678 203.014 154.342 202.935 153.938 202.935C153.465 202.935 153.055 203.054 152.71 203.29C152.364 203.527 152.153 203.877 152.074 204.341H150.802C150.861 203.808 151.039 203.364 151.335 203.009C151.64 202.644 152.024 202.368 152.488 202.181C152.952 201.984 153.435 201.885 153.938 201.885C154.628 201.885 155.2 202.013 155.654 202.269C156.117 202.516 156.462 202.866 156.69 203.32C156.916 203.764 157.03 204.292 157.03 204.903V209.518H155.921L155.847 208.202C155.748 208.409 155.619 208.606 155.462 208.793C155.314 208.971 155.137 209.129 154.929 209.267C154.722 209.395 154.486 209.499 154.219 209.577C153.962 209.656 153.666 209.696 153.332 209.696ZM153.524 208.645C153.869 208.645 154.179 208.576 154.456 208.438C154.742 208.29 154.983 208.094 155.181 207.847C155.378 207.591 155.526 207.309 155.625 207.003C155.733 206.697 155.787 206.377 155.787 206.042V205.997H153.923C153.44 205.997 153.051 206.057 152.755 206.175C152.459 206.283 152.246 206.441 152.119 206.648C151.99 206.845 151.926 207.073 151.926 207.329C151.926 207.595 151.985 207.827 152.104 208.024C152.231 208.221 152.415 208.375 152.651 208.483C152.897 208.591 153.188 208.645 153.524 208.645ZM164.095 209.518V200.553L162.319 200.997V200.11L164.509 199.163H165.352V209.518H164.095Z" fill="#0542A7"/>
<path d="M346.581 190.172H299.924C291.754 190.172 285.131 196.795 285.131 204.965C285.131 213.136 291.754 219.759 299.924 219.759H346.581C354.751 219.759 361.374 213.136 361.374 204.965C361.374 196.795 354.751 190.172 346.581 190.172Z" fill="#5880C4"/>
<path d="M225.266 187.992H199.093C194.693 187.992 191.127 191.559 191.127 195.958V214.165C191.127 218.565 194.693 222.131 199.093 222.131H225.266C229.665 222.131 233.232 218.565 233.232 214.165V195.958C233.232 191.559 229.665 187.992 225.266 187.992Z" fill="#0542A7"/>
<path d="M202.95 209.611L206.767 199.256H208.084L211.885 209.611H210.569L207.418 200.809L204.252 209.611H202.95ZM204.696 206.948L205.051 205.942H209.74L210.095 206.948H204.696ZM216.376 209.789C215.715 209.789 215.114 209.67 214.571 209.434C214.039 209.187 213.614 208.823 213.299 208.339C212.984 207.855 212.815 207.254 212.796 206.534H214.053C214.064 206.929 214.157 207.293 214.334 207.629C214.522 207.954 214.788 208.216 215.133 208.413C215.478 208.61 215.892 208.709 216.376 208.709C216.86 208.709 217.264 208.615 217.589 208.428C217.914 208.24 218.161 207.994 218.329 207.688C218.496 207.373 218.58 207.022 218.58 206.638C218.58 206.154 218.462 205.765 218.225 205.469C217.999 205.163 217.688 204.941 217.293 204.803C216.908 204.655 216.484 204.581 216.021 204.581H215.252V203.531H216.021C216.701 203.531 217.234 203.373 217.619 203.058C218.003 202.742 218.196 202.308 218.196 201.756C218.196 201.302 218.043 200.923 217.737 200.617C217.441 200.311 216.987 200.158 216.376 200.158C215.794 200.158 215.33 200.325 214.985 200.661C214.641 200.997 214.442 201.426 214.394 201.948H213.136C213.166 201.386 213.318 200.887 213.595 200.454C213.871 200.02 214.246 199.685 214.719 199.448C215.192 199.201 215.75 199.078 216.391 199.078C217.061 199.078 217.623 199.196 218.077 199.433C218.531 199.67 218.871 199.985 219.098 200.38C219.335 200.775 219.453 201.208 219.453 201.682C219.453 202.037 219.389 202.373 219.261 202.688C219.132 202.994 218.94 203.265 218.684 203.501C218.428 203.738 218.102 203.905 217.707 204.004C218.111 204.083 218.472 204.237 218.787 204.463C219.113 204.689 219.369 204.985 219.557 205.351C219.744 205.716 219.838 206.145 219.838 206.638C219.838 207.2 219.704 207.722 219.438 208.206C219.182 208.679 218.797 209.064 218.284 209.36C217.771 209.645 217.135 209.789 216.376 209.789Z" fill="white"/>
<path d="M561.664 236.926H83.7188C81.2049 236.926 79.167 238.964 79.167 241.478V276.755C79.167 279.268 81.2049 281.306 83.7188 281.306H561.664C564.178 281.306 566.216 279.268 566.216 276.755V241.478C566.216 238.964 564.178 236.926 561.664 236.926Z" fill="#F2F4FB"/>
<path d="M227.639 242.098H201.466C197.066 242.098 193.5 245.664 193.5 250.063V268.271C193.5 272.67 197.066 276.237 201.466 276.237H227.639C232.038 276.237 235.605 272.67 235.605 268.271V250.063C235.605 245.664 232.038 242.098 227.639 242.098Z" fill="#0542A7"/>
<path d="M205.323 263.713L209.14 253.357H210.457L214.259 263.713H212.942L209.791 254.911L206.625 263.713H205.323ZM207.069 261.05L207.424 260.044H212.113L212.469 261.05H207.069ZM215.65 263.713V262.84C216.351 262.288 217.017 261.73 217.647 261.168C218.289 260.606 218.856 260.048 219.349 259.497C219.843 258.934 220.227 258.387 220.503 257.854C220.789 257.322 220.932 256.809 220.932 256.316C220.932 255.951 220.868 255.616 220.739 255.31C220.612 254.995 220.405 254.738 220.118 254.541C219.843 254.344 219.467 254.245 218.994 254.245C218.53 254.245 218.146 254.348 217.84 254.555C217.535 254.752 217.303 255.019 217.144 255.354C216.996 255.68 216.923 256.039 216.923 256.434H215.724C215.734 255.754 215.878 255.172 216.153 254.689C216.44 254.196 216.829 253.82 217.322 253.564C217.816 253.308 218.378 253.18 219.008 253.18C219.63 253.18 220.177 253.298 220.65 253.535C221.124 253.761 221.494 254.101 221.76 254.555C222.037 255.01 222.174 255.581 222.174 256.272C222.174 256.755 222.071 257.238 221.864 257.721C221.667 258.205 221.4 258.678 221.065 259.141C220.73 259.596 220.355 260.034 219.94 260.458C219.536 260.883 219.118 261.282 218.683 261.656C218.26 262.031 217.86 262.371 217.485 262.677H222.529V263.713H215.65Z" fill="white"/>
<path d="M98.9238 263.62V253.264H100.166V263.62H98.9238ZM102.317 263.62V256.164H103.441L103.501 257.466C103.737 257.003 104.073 256.642 104.507 256.386C104.95 256.12 105.453 255.986 106.016 255.986C106.597 255.986 107.1 256.105 107.524 256.341C107.948 256.568 108.279 256.918 108.516 257.392C108.752 257.855 108.871 258.447 108.871 259.167V263.62H107.628V259.3C107.628 258.55 107.46 257.988 107.125 257.614C106.8 257.239 106.336 257.052 105.734 257.052C105.32 257.052 104.95 257.155 104.625 257.362C104.299 257.559 104.038 257.85 103.841 258.235C103.653 258.609 103.56 259.078 103.56 259.64V263.62H102.317ZM110.93 263.62V256.164H112.173V263.62H110.93ZM111.551 254.581C111.305 254.581 111.098 254.502 110.93 254.344C110.772 254.177 110.693 253.97 110.693 253.723C110.693 253.476 110.772 253.279 110.93 253.131C111.098 252.973 111.305 252.895 111.551 252.895C111.788 252.895 111.99 252.973 112.158 253.131C112.326 253.279 112.41 253.476 112.41 253.723C112.41 253.97 112.326 254.177 112.158 254.344C111.99 254.502 111.788 254.581 111.551 254.581ZM117.724 263.797C117.024 263.797 116.392 263.635 115.83 263.309C115.278 262.984 114.844 262.53 114.529 261.948C114.213 261.356 114.055 260.676 114.055 259.907C114.055 259.118 114.213 258.432 114.529 257.85C114.844 257.269 115.278 256.815 115.83 256.489C116.392 256.154 117.024 255.986 117.724 255.986C118.612 255.986 119.351 256.219 119.943 256.682C120.535 257.136 120.909 257.747 121.067 258.516H119.795C119.696 258.053 119.455 257.692 119.07 257.436C118.685 257.18 118.232 257.052 117.709 257.052C117.285 257.052 116.89 257.16 116.526 257.377C116.161 257.584 115.87 257.899 115.653 258.324C115.436 258.748 115.327 259.271 115.327 259.892C115.327 260.355 115.391 260.769 115.52 261.135C115.648 261.49 115.82 261.785 116.037 262.022C116.254 262.259 116.506 262.441 116.792 262.57C117.088 262.688 117.393 262.747 117.709 262.747C118.064 262.747 118.385 262.692 118.671 262.584C118.957 262.466 119.198 262.293 119.396 262.067C119.593 261.84 119.726 261.574 119.795 261.268H121.067C120.909 262.018 120.53 262.629 119.928 263.102C119.336 263.565 118.602 263.797 117.724 263.797ZM122.95 263.62V256.164H124.193V263.62H122.95ZM123.571 254.581C123.325 254.581 123.118 254.502 122.95 254.344C122.792 254.177 122.713 253.97 122.713 253.723C122.713 253.476 122.792 253.279 122.95 253.131C123.118 252.973 123.325 252.895 123.571 252.895C123.808 252.895 124.01 252.973 124.178 253.131C124.345 253.279 124.429 253.476 124.429 253.723C124.429 253.97 124.345 254.177 124.178 254.344C124.01 254.502 123.808 254.581 123.571 254.581ZM128.812 263.797C128.21 263.797 127.707 263.694 127.303 263.487C126.898 263.269 126.598 262.988 126.4 262.643C126.203 262.288 126.104 261.904 126.104 261.49C126.104 260.987 126.233 260.562 126.489 260.217C126.755 259.862 127.125 259.596 127.599 259.418C128.082 259.231 128.649 259.137 129.3 259.137H131.267C131.267 258.674 131.193 258.29 131.045 257.984C130.907 257.668 130.7 257.432 130.424 257.273C130.158 257.115 129.823 257.037 129.418 257.037C128.945 257.037 128.535 257.155 128.19 257.392C127.845 257.628 127.633 257.979 127.554 258.442H126.282C126.341 257.91 126.519 257.466 126.815 257.111C127.12 256.745 127.505 256.47 127.968 256.282C128.432 256.085 128.915 255.986 129.418 255.986C130.108 255.986 130.681 256.115 131.134 256.371C131.598 256.618 131.943 256.967 132.17 257.421C132.397 257.865 132.51 258.393 132.51 259.004V263.62H131.401L131.327 262.303C131.228 262.51 131.1 262.707 130.942 262.895C130.794 263.072 130.616 263.231 130.409 263.368C130.202 263.497 129.966 263.601 129.699 263.679C129.443 263.758 129.147 263.797 128.812 263.797ZM129.004 262.747C129.349 262.747 129.66 262.678 129.936 262.54C130.222 262.392 130.464 262.195 130.661 261.948C130.858 261.692 131.006 261.411 131.105 261.105C131.213 260.799 131.267 260.479 131.267 260.143V260.099H129.403C128.92 260.099 128.531 260.158 128.235 260.277C127.939 260.385 127.727 260.543 127.599 260.75C127.47 260.947 127.406 261.174 127.406 261.43C127.406 261.697 127.465 261.929 127.584 262.126C127.712 262.323 127.894 262.476 128.131 262.584C128.378 262.692 128.669 262.747 129.004 262.747ZM137.159 263.62C136.715 263.62 136.331 263.55 136.005 263.413C135.68 263.275 135.428 263.043 135.251 262.717C135.083 262.382 134.999 261.933 134.999 261.371V257.214H133.698V256.164H134.999L135.162 254.359H136.242V256.164H138.402V257.214H136.242V261.371C136.242 261.834 136.336 262.151 136.523 262.318C136.711 262.476 137.041 262.555 137.514 262.555H138.313V263.62H137.159ZM140.142 263.62V256.164H141.385V263.62H140.142ZM140.763 254.581C140.516 254.581 140.309 254.502 140.142 254.344C139.984 254.177 139.905 253.97 139.905 253.723C139.905 253.476 139.984 253.279 140.142 253.131C140.309 252.973 140.516 252.895 140.763 252.895C141 252.895 141.201 252.973 141.37 253.131C141.537 253.279 141.621 253.476 141.621 253.723C141.621 253.97 141.537 254.177 141.37 254.344C141.201 254.502 141 254.581 140.763 254.581ZM145.723 263.62L142.897 256.164H144.199L146.447 262.422L148.711 256.164H149.983L147.158 263.62H145.723ZM153.429 263.797C152.827 263.797 152.324 263.694 151.92 263.487C151.516 263.269 151.214 262.988 151.018 262.643C150.821 262.288 150.722 261.904 150.722 261.49C150.722 260.987 150.85 260.562 151.106 260.217C151.373 259.862 151.742 259.596 152.216 259.418C152.699 259.231 153.266 259.137 153.917 259.137H155.885C155.885 258.674 155.811 258.29 155.663 257.984C155.525 257.668 155.318 257.432 155.041 257.273C154.775 257.115 154.439 257.037 154.035 257.037C153.562 257.037 153.152 257.155 152.808 257.392C152.463 257.628 152.25 257.979 152.171 258.442H150.899C150.958 257.91 151.136 257.466 151.432 257.111C151.738 256.745 152.123 256.47 152.586 256.282C153.049 256.085 153.532 255.986 154.035 255.986C154.726 255.986 155.297 256.115 155.751 256.371C156.215 256.618 156.561 256.967 156.787 257.421C157.013 257.865 157.127 258.393 157.127 259.004V263.62H156.018L155.944 262.303C155.845 262.51 155.717 262.707 155.559 262.895C155.411 263.072 155.234 263.231 155.027 263.368C154.819 263.497 154.583 263.601 154.317 263.679C154.06 263.758 153.765 263.797 153.429 263.797ZM153.621 262.747C153.966 262.747 154.277 262.678 154.553 262.54C154.839 262.392 155.081 262.195 155.278 261.948C155.475 261.692 155.623 261.411 155.722 261.105C155.83 260.799 155.885 260.479 155.885 260.143V260.099H154.021C153.537 260.099 153.148 260.158 152.852 260.277C152.556 260.385 152.344 260.543 152.216 260.75C152.087 260.947 152.024 261.174 152.024 261.43C152.024 261.697 152.083 261.929 152.201 262.126C152.33 262.323 152.512 262.476 152.748 262.584C152.995 262.692 153.286 262.747 153.621 262.747ZM162.89 263.62V262.747C163.591 262.195 164.257 261.638 164.887 261.075C165.529 260.513 166.096 259.956 166.588 259.404C167.082 258.842 167.467 258.294 167.742 257.762C168.029 257.229 168.171 256.716 168.171 256.223C168.171 255.858 168.107 255.523 167.979 255.217C167.851 254.902 167.644 254.645 167.358 254.448C167.082 254.251 166.707 254.152 166.233 254.152C165.77 254.152 165.385 254.256 165.079 254.463C164.774 254.66 164.542 254.926 164.384 255.261C164.236 255.587 164.162 255.947 164.162 256.341H162.964C162.974 255.661 163.118 255.079 163.393 254.596C163.68 254.103 164.069 253.728 164.562 253.471C165.055 253.215 165.618 253.087 166.248 253.087C166.869 253.087 167.417 253.205 167.89 253.442C168.364 253.668 168.733 254.009 169 254.463C169.276 254.917 169.414 255.488 169.414 256.179C169.414 256.662 169.31 257.145 169.103 257.628C168.906 258.112 168.64 258.585 168.304 259.049C167.97 259.503 167.594 259.941 167.18 260.365C166.776 260.79 166.357 261.189 165.923 261.564C165.499 261.938 165.1 262.278 164.724 262.584H169.769V263.62H162.89Z" fill="#0542A7"/>
<path d="M346.679 244.273H300.022C291.852 244.273 285.229 250.897 285.229 259.067C285.229 267.237 291.852 273.861 300.022 273.861H346.679C354.849 273.861 361.472 267.237 361.472 259.067C361.472 250.897 354.849 244.273 346.679 244.273Z" fill="#5880C4"/>
<path d="M430.099 244.273H383.443C375.273 244.273 368.649 250.897 368.649 259.067C368.649 267.237 375.273 273.861 383.443 273.861H430.099C438.27 273.861 444.893 267.237 444.893 259.067C444.893 250.897 438.27 244.273 430.099 244.273Z" fill="#5880C4"/>
<path d="M561.665 291.074H83.7198C81.2059 291.074 79.168 293.112 79.168 295.626V330.903C79.168 333.417 81.2059 335.455 83.7198 335.455H561.665C564.179 335.455 566.217 333.417 566.217 330.903V295.626C566.217 293.112 564.179 291.074 561.665 291.074Z" fill="#F2F2F2"/>
<path d="M98.9238 317.819V307.464H100.166V317.819H98.9238ZM102.317 317.819V310.363H103.441L103.501 311.665C103.737 311.202 104.073 310.841 104.507 310.585C104.95 310.319 105.453 310.186 106.016 310.186C106.597 310.186 107.1 310.304 107.524 310.541C107.948 310.767 108.279 311.118 108.516 311.591C108.752 312.054 108.871 312.646 108.871 313.366V317.819H107.628V313.499C107.628 312.749 107.46 312.187 107.125 311.813C106.8 311.439 106.336 311.251 105.734 311.251C105.32 311.251 104.95 311.354 104.625 311.561C104.299 311.758 104.038 312.05 103.841 312.434C103.653 312.809 103.56 313.277 103.56 313.84V317.819H102.317ZM110.93 317.819V310.363H112.173V317.819H110.93ZM111.551 308.78C111.305 308.78 111.098 308.702 110.93 308.544C110.772 308.376 110.693 308.169 110.693 307.922C110.693 307.675 110.772 307.478 110.93 307.33C111.098 307.172 111.305 307.094 111.551 307.094C111.788 307.094 111.99 307.172 112.158 307.33C112.326 307.478 112.41 307.675 112.41 307.922C112.41 308.169 112.326 308.376 112.158 308.544C111.99 308.702 111.788 308.78 111.551 308.78ZM117.724 317.997C117.024 317.997 116.392 317.834 115.83 317.508C115.278 317.183 114.844 316.729 114.529 316.147C114.213 315.556 114.055 314.875 114.055 314.106C114.055 313.317 114.213 312.631 114.529 312.05C114.844 311.468 115.278 311.014 115.83 310.689C116.392 310.353 117.024 310.186 117.724 310.186C118.612 310.186 119.351 310.418 119.943 310.881C120.535 311.335 120.909 311.946 121.067 312.715H119.795C119.696 312.252 119.455 311.891 119.07 311.635C118.685 311.379 118.232 311.251 117.709 311.251C117.285 311.251 116.89 311.359 116.526 311.576C116.161 311.783 115.87 312.099 115.653 312.523C115.436 312.947 115.327 313.47 115.327 314.091C115.327 314.554 115.391 314.968 115.52 315.334C115.648 315.689 115.82 315.985 116.037 316.221C116.254 316.458 116.506 316.64 116.792 316.769C117.088 316.887 117.393 316.946 117.709 316.946C118.064 316.946 118.385 316.892 118.671 316.784C118.957 316.665 119.198 316.492 119.396 316.266C119.593 316.039 119.726 315.773 119.795 315.467H121.067C120.909 316.217 120.53 316.828 119.928 317.301C119.336 317.764 118.602 317.997 117.724 317.997ZM122.95 317.819V310.363H124.193V317.819H122.95ZM123.571 308.78C123.325 308.78 123.118 308.702 122.95 308.544C122.792 308.376 122.713 308.169 122.713 307.922C122.713 307.675 122.792 307.478 122.95 307.33C123.118 307.172 123.325 307.094 123.571 307.094C123.808 307.094 124.01 307.172 124.178 307.33C124.345 307.478 124.429 307.675 124.429 307.922C124.429 308.169 124.345 308.376 124.178 308.544C124.01 308.702 123.808 308.78 123.571 308.78ZM128.812 317.997C128.21 317.997 127.707 317.893 127.303 317.686C126.898 317.469 126.598 317.187 126.4 316.843C126.203 316.488 126.104 316.103 126.104 315.689C126.104 315.186 126.233 314.761 126.489 314.417C126.755 314.062 127.125 313.795 127.599 313.618C128.082 313.43 128.649 313.337 129.3 313.337H131.267C131.267 312.873 131.193 312.489 131.045 312.183C130.907 311.868 130.7 311.631 130.424 311.473C130.158 311.314 129.823 311.236 129.418 311.236C128.945 311.236 128.535 311.354 128.19 311.591C127.845 311.828 127.633 312.178 127.554 312.641H126.282C126.341 312.109 126.519 311.665 126.815 311.31C127.12 310.945 127.505 310.669 127.968 310.481C128.432 310.285 128.915 310.186 129.418 310.186C130.108 310.186 130.681 310.314 131.134 310.57C131.598 310.817 131.943 311.167 132.17 311.621C132.397 312.064 132.51 312.592 132.51 313.203V317.819H131.401L131.327 316.502C131.228 316.71 131.1 316.906 130.942 317.094C130.794 317.272 130.616 317.43 130.409 317.568C130.202 317.696 129.966 317.8 129.699 317.878C129.443 317.957 129.147 317.997 128.812 317.997ZM129.004 316.946C129.349 316.946 129.66 316.877 129.936 316.739C130.222 316.591 130.464 316.394 130.661 316.147C130.858 315.891 131.006 315.61 131.105 315.304C131.213 314.998 131.267 314.678 131.267 314.343V314.298H129.403C128.92 314.298 128.531 314.357 128.235 314.476C127.939 314.584 127.727 314.742 127.599 314.949C127.47 315.146 127.406 315.374 127.406 315.63C127.406 315.896 127.465 316.128 127.584 316.325C127.712 316.522 127.894 316.675 128.131 316.784C128.378 316.892 128.669 316.946 129.004 316.946ZM137.159 317.819C136.715 317.819 136.331 317.75 136.005 317.612C135.68 317.474 135.428 317.242 135.251 316.917C135.083 316.581 134.999 316.133 134.999 315.57V311.413H133.698V310.363H134.999L135.162 308.558H136.242V310.363H138.402V311.413H136.242V315.57C136.242 316.034 136.336 316.35 136.523 316.517C136.711 316.675 137.041 316.754 137.514 316.754H138.313V317.819H137.159ZM140.142 317.819V310.363H141.385V317.819H140.142ZM140.763 308.78C140.516 308.78 140.309 308.702 140.142 308.544C139.984 308.376 139.905 308.169 139.905 307.922C139.905 307.675 139.984 307.478 140.142 307.33C140.309 307.172 140.516 307.094 140.763 307.094C141 307.094 141.201 307.172 141.37 307.33C141.537 307.478 141.621 307.675 141.621 307.922C141.621 308.169 141.537 308.376 141.37 308.544C141.201 308.702 141 308.78 140.763 308.78ZM145.723 317.819L142.897 310.363H144.199L146.447 316.621L148.711 310.363H149.983L147.158 317.819H145.723ZM153.429 317.997C152.827 317.997 152.324 317.893 151.92 317.686C151.516 317.469 151.214 317.187 151.018 316.843C150.821 316.488 150.722 316.103 150.722 315.689C150.722 315.186 150.85 314.761 151.106 314.417C151.373 314.062 151.742 313.795 152.216 313.618C152.699 313.43 153.266 313.337 153.917 313.337H155.885C155.885 312.873 155.811 312.489 155.663 312.183C155.525 311.868 155.318 311.631 155.041 311.473C154.775 311.314 154.439 311.236 154.035 311.236C153.562 311.236 153.152 311.354 152.808 311.591C152.463 311.828 152.25 312.178 152.171 312.641H150.899C150.958 312.109 151.136 311.665 151.432 311.31C151.738 310.945 152.123 310.669 152.586 310.481C153.049 310.285 153.532 310.186 154.035 310.186C154.726 310.186 155.297 310.314 155.751 310.57C156.215 310.817 156.561 311.167 156.787 311.621C157.013 312.064 157.127 312.592 157.127 313.203V317.819H156.018L155.944 316.502C155.845 316.71 155.717 316.906 155.559 317.094C155.411 317.272 155.234 317.43 155.027 317.568C154.819 317.696 154.583 317.8 154.317 317.878C154.06 317.957 153.765 317.997 153.429 317.997ZM153.621 316.946C153.966 316.946 154.277 316.877 154.553 316.739C154.839 316.591 155.081 316.394 155.278 316.147C155.475 315.891 155.623 315.61 155.722 315.304C155.83 314.998 155.885 314.678 155.885 314.343V314.298H154.021C153.537 314.298 153.148 314.357 152.852 314.476C152.556 314.584 152.344 314.742 152.216 314.949C152.087 315.146 152.024 315.374 152.024 315.63C152.024 315.896 152.083 316.128 152.201 316.325C152.33 316.522 152.512 316.675 152.748 316.784C152.995 316.892 153.286 316.946 153.621 316.946ZM166.278 317.997C165.618 317.997 165.016 317.878 164.473 317.642C163.94 317.395 163.517 317.03 163.201 316.547C162.885 316.063 162.718 315.462 162.698 314.742H163.955C163.965 315.137 164.059 315.501 164.236 315.837C164.424 316.162 164.69 316.424 165.035 316.621C165.381 316.818 165.795 316.917 166.278 316.917C166.761 316.917 167.165 316.823 167.491 316.636C167.816 316.448 168.063 316.202 168.23 315.896C168.399 315.581 168.482 315.23 168.482 314.846C168.482 314.362 168.364 313.973 168.127 313.677C167.9 313.371 167.59 313.149 167.195 313.011C166.81 312.863 166.387 312.789 165.923 312.789H165.153V311.739H165.923C166.603 311.739 167.136 311.581 167.52 311.266C167.905 310.95 168.097 310.516 168.097 309.964C168.097 309.51 167.945 309.131 167.639 308.825C167.343 308.518 166.89 308.366 166.278 308.366C165.696 308.366 165.233 308.533 164.887 308.869C164.542 309.205 164.345 309.634 164.295 310.156H163.038C163.067 309.594 163.221 309.095 163.496 308.662C163.773 308.228 164.147 307.893 164.621 307.656C165.094 307.409 165.652 307.286 166.292 307.286C166.964 307.286 167.526 307.404 167.979 307.641C168.433 307.878 168.773 308.193 169 308.588C169.236 308.983 169.355 309.416 169.355 309.89C169.355 310.245 169.291 310.58 169.162 310.896C169.035 311.202 168.843 311.473 168.585 311.709C168.329 311.946 168.004 312.113 167.609 312.212C168.014 312.291 168.374 312.444 168.689 312.671C169.014 312.897 169.272 313.193 169.458 313.559C169.646 313.924 169.739 314.353 169.739 314.846C169.739 315.408 169.606 315.93 169.34 316.414C169.084 316.887 168.699 317.272 168.186 317.568C167.674 317.853 167.038 317.997 166.278 317.997Z" fill="#0542A7"/>
<path d="M227.639 296.199H201.466C197.066 296.199 193.5 299.766 193.5 304.165V322.372C193.5 326.772 197.066 330.338 201.466 330.338H227.639C232.038 330.338 235.605 326.772 235.605 322.372V304.165C235.605 299.766 232.038 296.199 227.639 296.199Z" fill="#0542A7"/>
<path d="M207.599 317.816L211.415 307.461H212.732L216.534 317.816H215.217L212.066 309.014L208.9 317.816H207.599ZM209.344 315.154L209.699 314.148H214.389L214.744 315.154H209.344ZM218.78 317.816V308.852L217.005 309.295V308.408L219.194 307.461H220.038V317.816H218.78Z" fill="white"/>
<path d="M435.79 298.473H389.133C380.963 298.473 374.34 305.096 374.34 313.266C374.34 321.436 380.963 328.06 389.133 328.06H435.79C443.96 328.06 450.583 321.436 450.583 313.266C450.583 305.096 443.96 298.473 435.79 298.473Z" fill="#5880C4"/>
<path d="M519.21 298.473H472.553C464.383 298.473 457.76 305.096 457.76 313.266C457.76 321.436 464.383 328.06 472.553 328.06H519.21C527.38 328.06 534.003 321.436 534.003 313.266C534.003 305.096 527.38 298.473 519.21 298.473Z" fill="#5880C4"/>
<mask id="mask0_716_4956" style="mask-type:luminance" maskUnits="userSpaceOnUse" x="78" y="345" width="488" height="45">
<path d="M561.102 345.23H83.1573C80.6434 345.23 78.6055 347.268 78.6055 349.782V385.059C78.6055 387.573 80.6434 389.611 83.1573 389.611H561.102C563.616 389.611 565.654 387.573 565.654 385.059V349.782C565.654 347.268 563.616 345.23 561.102 345.23Z" fill="white"/>
</mask>
<g mask="url(#mask0_716_4956)">
<path d="M561.102 345.23H83.1573C80.6434 345.23 78.6055 347.268 78.6055 349.782V385.059C78.6055 387.573 80.6434 389.611 83.1573 389.611H561.102C563.616 389.611 565.654 387.573 565.654 385.059V349.782C565.654 347.268 563.616 345.23 561.102 345.23Z" fill="#F2F4FB"/>
<path d="M98.9238 372.44V362.085H100.166V372.44H98.9238ZM102.317 372.44V364.984H103.441L103.501 366.286C103.737 365.823 104.073 365.462 104.507 365.206C104.95 364.94 105.453 364.807 106.016 364.807C106.597 364.807 107.1 364.925 107.524 365.162C107.948 365.388 108.279 365.739 108.516 366.212C108.752 366.675 108.871 367.267 108.871 367.987V372.44H107.628V368.12C107.628 367.371 107.46 366.808 107.125 366.434C106.8 366.06 106.336 365.872 105.734 365.872C105.32 365.872 104.95 365.975 104.625 366.182C104.299 366.379 104.038 366.671 103.841 367.055C103.653 367.43 103.56 367.899 103.56 368.461V372.44H102.317ZM110.93 372.44V364.984H112.173V372.44H110.93ZM111.551 363.401C111.305 363.401 111.098 363.323 110.93 363.165C110.772 362.997 110.693 362.79 110.693 362.543C110.693 362.296 110.772 362.099 110.93 361.952C111.098 361.793 111.305 361.715 111.551 361.715C111.788 361.715 111.99 361.793 112.158 361.952C112.326 362.099 112.41 362.296 112.41 362.543C112.41 362.79 112.326 362.997 112.158 363.165C111.99 363.323 111.788 363.401 111.551 363.401ZM117.724 372.618C117.024 372.618 116.392 372.455 115.83 372.129C115.278 371.804 114.844 371.35 114.529 370.768C114.213 370.177 114.055 369.496 114.055 368.727C114.055 367.938 114.213 367.252 114.529 366.671C114.844 366.089 115.278 365.635 115.83 365.31C116.392 364.974 117.024 364.807 117.724 364.807C118.612 364.807 119.351 365.039 119.943 365.502C120.535 365.956 120.909 366.567 121.067 367.336H119.795C119.696 366.873 119.455 366.512 119.07 366.256C118.685 366 118.232 365.872 117.709 365.872C117.285 365.872 116.89 365.98 116.526 366.197C116.161 366.404 115.87 366.72 115.653 367.144C115.436 367.569 115.327 368.091 115.327 368.712C115.327 369.175 115.391 369.59 115.52 369.955C115.648 370.31 115.82 370.606 116.037 370.842C116.254 371.079 116.506 371.261 116.792 371.39C117.088 371.508 117.393 371.567 117.709 371.567C118.064 371.567 118.385 371.513 118.671 371.405C118.957 371.286 119.198 371.113 119.396 370.887C119.593 370.66 119.726 370.394 119.795 370.088H121.067C120.909 370.838 120.53 371.449 119.928 371.922C119.336 372.386 118.602 372.618 117.724 372.618ZM122.95 372.44V364.984H124.193V372.44H122.95ZM123.571 363.401C123.325 363.401 123.118 363.323 122.95 363.165C122.792 362.997 122.713 362.79 122.713 362.543C122.713 362.296 122.792 362.099 122.95 361.952C123.118 361.793 123.325 361.715 123.571 361.715C123.808 361.715 124.01 361.793 124.178 361.952C124.345 362.099 124.429 362.296 124.429 362.543C124.429 362.79 124.345 362.997 124.178 363.165C124.01 363.323 123.808 363.401 123.571 363.401ZM128.812 372.618C128.21 372.618 127.707 372.514 127.303 372.307C126.898 372.09 126.598 371.809 126.4 371.464C126.203 371.109 126.104 370.724 126.104 370.31C126.104 369.807 126.233 369.382 126.489 369.038C126.755 368.683 127.125 368.416 127.599 368.239C128.082 368.051 128.649 367.958 129.3 367.958H131.267C131.267 367.495 131.193 367.11 131.045 366.804C130.907 366.489 130.7 366.252 130.424 366.094C130.158 365.936 129.823 365.857 129.418 365.857C128.945 365.857 128.535 365.975 128.19 366.212C127.845 366.449 127.633 366.799 127.554 367.262H126.282C126.341 366.73 126.519 366.286 126.815 365.931C127.12 365.566 127.505 365.29 127.968 365.103C128.432 364.906 128.915 364.807 129.418 364.807C130.108 364.807 130.681 364.935 131.134 365.191C131.598 365.438 131.943 365.788 132.17 366.242C132.397 366.685 132.51 367.213 132.51 367.825V372.44H131.401L131.327 371.124C131.228 371.331 131.1 371.528 130.942 371.715C130.794 371.893 130.616 372.051 130.409 372.189C130.202 372.317 129.966 372.421 129.699 372.499C129.443 372.578 129.147 372.618 128.812 372.618ZM129.004 371.567C129.349 371.567 129.66 371.498 129.936 371.36C130.222 371.212 130.464 371.015 130.661 370.768C130.858 370.512 131.006 370.231 131.105 369.925C131.213 369.619 131.267 369.299 131.267 368.964V368.919H129.403C128.92 368.919 128.531 368.978 128.235 369.097C127.939 369.205 127.727 369.363 127.599 369.57C127.47 369.767 127.406 369.995 127.406 370.251C127.406 370.517 127.465 370.749 127.584 370.946C127.712 371.143 127.894 371.296 128.131 371.405C128.378 371.513 128.669 371.567 129.004 371.567ZM137.159 372.44C136.715 372.44 136.331 372.371 136.005 372.233C135.68 372.095 135.428 371.863 135.251 371.538C135.083 371.202 134.999 370.754 134.999 370.192V366.035H133.698V364.984H134.999L135.162 363.179H136.242V364.984H138.402V366.035H136.242V370.192C136.242 370.655 136.336 370.971 136.523 371.138C136.711 371.296 137.041 371.375 137.514 371.375H138.313V372.44H137.159ZM140.142 372.44V364.984H141.385V372.44H140.142ZM140.763 363.401C140.516 363.401 140.309 363.323 140.142 363.165C139.984 362.997 139.905 362.79 139.905 362.543C139.905 362.296 139.984 362.099 140.142 361.952C140.309 361.793 140.516 361.715 140.763 361.715C141 361.715 141.201 361.793 141.37 361.952C141.537 362.099 141.621 362.296 141.621 362.543C141.621 362.79 141.537 362.997 141.37 363.165C141.201 363.323 141 363.401 140.763 363.401ZM145.723 372.44L142.897 364.984H144.199L146.447 371.242L148.711 364.984H149.983L147.158 372.44H145.723ZM153.429 372.618C152.827 372.618 152.324 372.514 151.92 372.307C151.516 372.09 151.214 371.809 151.018 371.464C150.821 371.109 150.722 370.724 150.722 370.31C150.722 369.807 150.85 369.382 151.106 369.038C151.373 368.683 151.742 368.416 152.216 368.239C152.699 368.051 153.266 367.958 153.917 367.958H155.885C155.885 367.495 155.811 367.11 155.663 366.804C155.525 366.489 155.318 366.252 155.041 366.094C154.775 365.936 154.439 365.857 154.035 365.857C153.562 365.857 153.152 365.975 152.808 366.212C152.463 366.449 152.25 366.799 152.171 367.262H150.899C150.958 366.73 151.136 366.286 151.432 365.931C151.738 365.566 152.123 365.29 152.586 365.103C153.049 364.906 153.532 364.807 154.035 364.807C154.726 364.807 155.297 364.935 155.751 365.191C156.215 365.438 156.561 365.788 156.787 366.242C157.013 366.685 157.127 367.213 157.127 367.825V372.44H156.018L155.944 371.124C155.845 371.331 155.717 371.528 155.559 371.715C155.411 371.893 155.234 372.051 155.027 372.189C154.819 372.317 154.583 372.421 154.317 372.499C154.06 372.578 153.765 372.618 153.429 372.618ZM153.621 371.567C153.966 371.567 154.277 371.498 154.553 371.36C154.839 371.212 155.081 371.015 155.278 370.768C155.475 370.512 155.623 370.231 155.722 369.925C155.83 369.619 155.885 369.299 155.885 368.964V368.919H154.021C153.537 368.919 153.148 368.978 152.852 369.097C152.556 369.205 152.344 369.363 152.216 369.57C152.087 369.767 152.024 369.995 152.024 370.251C152.024 370.517 152.083 370.749 152.201 370.946C152.33 371.143 152.512 371.296 152.748 371.405C152.995 371.513 153.286 371.567 153.621 371.567ZM167.742 372.44V370.221H162.491V369.26L167.52 362.085H168.97V369.126H170.509V370.221H168.97V372.44H167.742ZM163.866 369.126H167.801V363.46L163.866 369.126Z" fill="#0542A7"/>
<path d="M227.639 350.82H201.466C197.066 350.82 193.5 354.387 193.5 358.786V376.993C193.5 381.393 197.066 384.959 201.466 384.959H227.639C232.038 384.959 235.605 381.393 235.605 376.993V358.786C235.605 354.387 232.038 350.82 227.639 350.82Z" fill="#0542A7"/>
<path d="M207.599 372.441L211.415 362.086H212.732L216.534 372.441H215.217L212.066 363.639L208.9 372.441H207.599ZM209.344 369.778L209.699 368.772H214.389L214.744 369.778H209.344ZM222.504 372.441V370.222H217.252V369.261L222.282 362.086H223.732V369.127H225.27V370.222H223.732V372.441H222.504ZM218.628 369.127H222.563V363.462L218.628 369.127Z" fill="white"/>
<path d="M550.723 353H472.204C464.033 353 457.41 359.623 457.41 367.794C457.41 375.964 464.033 382.587 472.204 382.587H550.723C558.893 382.587 565.517 375.964 565.517 367.794C565.517 359.623 558.893 353 550.723 353Z" fill="#5880C4"/>
</g>
<path d="M275.458 96.957H84.2804C81.7665 96.957 79.7285 98.995 79.7285 101.509V126.544C79.7285 129.058 81.7665 131.096 84.2804 131.096H275.458C277.972 131.096 280.01 129.058 280.01 126.544V101.509C280.01 98.995 277.972 96.957 275.458 96.957Z" fill="#AFE0D6"/>
<path d="M101.268 118.754C100.262 118.754 99.389 118.532 98.6493 118.089C97.9195 117.635 97.3574 117.009 96.9628 116.21C96.5683 115.401 96.3711 114.464 96.3711 113.399C96.3711 112.334 96.5683 111.402 96.9628 110.603C97.3574 109.794 97.9195 109.168 98.6493 108.724C99.389 108.271 100.262 108.044 101.268 108.044C102.451 108.044 103.413 108.325 104.152 108.887C104.892 109.449 105.366 110.243 105.573 111.269H104.197C104.039 110.628 103.719 110.115 103.235 109.73C102.752 109.336 102.096 109.139 101.268 109.139C100.528 109.139 99.8871 109.311 99.3446 109.656C98.8021 109.992 98.383 110.48 98.0871 111.121C97.7913 111.752 97.6433 112.512 97.6433 113.399C97.6433 114.287 97.7913 115.051 98.0871 115.692C98.383 116.323 98.8021 116.812 99.3446 117.157C99.8871 117.492 100.528 117.66 101.268 117.66C102.096 117.66 102.752 117.472 103.235 117.098C103.719 116.713 104.039 116.205 104.197 115.574H105.573C105.366 116.57 104.892 117.349 104.152 117.911C103.413 118.473 102.451 118.754 101.268 118.754ZM109.727 118.754C109.125 118.754 108.622 118.651 108.218 118.444C107.813 118.227 107.513 117.946 107.315 117.6C107.118 117.245 107.019 116.861 107.019 116.447C107.019 115.944 107.148 115.52 107.404 115.174C107.67 114.819 108.04 114.553 108.514 114.376C108.997 114.188 109.564 114.094 110.215 114.094H112.182C112.182 113.631 112.108 113.246 111.961 112.941C111.822 112.625 111.615 112.388 111.339 112.23C111.073 112.073 110.738 111.994 110.333 111.994C109.86 111.994 109.451 112.112 109.105 112.349C108.76 112.585 108.548 112.936 108.469 113.399H107.197C107.256 112.867 107.434 112.423 107.73 112.068C108.035 111.703 108.42 111.427 108.883 111.239C109.347 111.042 109.83 110.943 110.333 110.943C111.024 110.943 111.596 111.072 112.049 111.328C112.513 111.575 112.858 111.925 113.085 112.378C113.312 112.822 113.425 113.35 113.425 113.961V118.577H112.316L112.242 117.26C112.143 117.467 112.015 117.665 111.857 117.852C111.709 118.03 111.532 118.187 111.324 118.325C111.117 118.454 110.881 118.557 110.614 118.636C110.358 118.715 110.062 118.754 109.727 118.754ZM109.919 117.704C110.264 117.704 110.575 117.635 110.851 117.497C111.137 117.349 111.379 117.152 111.576 116.905C111.773 116.649 111.921 116.368 112.02 116.062C112.128 115.756 112.182 115.436 112.182 115.1V115.056H110.318C109.835 115.056 109.446 115.115 109.15 115.234C108.854 115.342 108.642 115.5 108.514 115.707C108.385 115.904 108.321 116.131 108.321 116.387C108.321 116.654 108.38 116.886 108.499 117.083C108.627 117.28 108.809 117.433 109.046 117.541C109.293 117.65 109.584 117.704 109.919 117.704ZM115.347 118.577V107.926H116.59V118.577H115.347ZM121.911 118.754C121.21 118.754 120.589 118.592 120.047 118.266C119.514 117.941 119.095 117.487 118.789 116.905C118.483 116.313 118.331 115.628 118.331 114.849C118.331 114.06 118.479 113.374 118.774 112.793C119.08 112.211 119.504 111.757 120.047 111.432C120.599 111.106 121.23 110.943 121.94 110.943C122.67 110.943 123.286 111.106 123.789 111.432C124.302 111.757 124.692 112.186 124.958 112.719C125.234 113.241 125.372 113.818 125.372 114.449C125.372 114.548 125.372 114.652 125.372 114.76C125.372 114.869 125.367 114.992 125.358 115.13H119.263V114.168H124.159C124.13 113.488 123.903 112.955 123.479 112.571C123.065 112.186 122.542 111.994 121.911 111.994C121.487 111.994 121.092 112.092 120.727 112.29C120.372 112.477 120.086 112.758 119.869 113.133C119.652 113.498 119.544 113.956 119.544 114.509V114.923C119.544 115.534 119.652 116.047 119.869 116.461C120.096 116.876 120.387 117.186 120.742 117.393C121.107 117.601 121.496 117.704 121.911 117.704C122.433 117.704 122.862 117.591 123.198 117.364C123.543 117.127 123.789 116.812 123.937 116.417H125.165C125.047 116.861 124.84 117.26 124.544 117.615C124.248 117.97 123.878 118.251 123.434 118.459C123 118.656 122.492 118.754 121.911 118.754ZM127.049 118.577V111.121H128.174L128.233 112.423C128.47 111.959 128.805 111.599 129.239 111.343C129.683 111.077 130.186 110.943 130.748 110.943C131.33 110.943 131.833 111.062 132.257 111.298C132.681 111.525 133.011 111.875 133.248 112.349C133.485 112.812 133.603 113.404 133.603 114.124V118.577H132.36V114.257C132.36 113.508 132.193 112.945 131.857 112.571C131.532 112.196 131.068 112.009 130.467 112.009C130.052 112.009 129.683 112.112 129.357 112.319C129.032 112.516 128.77 112.807 128.573 113.192C128.386 113.567 128.292 114.035 128.292 114.597V118.577H127.049ZM138.829 118.754C138.108 118.754 137.477 118.587 136.935 118.251C136.392 117.906 135.973 117.438 135.677 116.846C135.381 116.254 135.233 115.584 135.233 114.834C135.233 114.085 135.381 113.419 135.677 112.837C135.973 112.245 136.392 111.782 136.935 111.446C137.487 111.111 138.123 110.943 138.843 110.943C139.455 110.943 139.987 111.067 140.441 111.313C140.904 111.56 141.259 111.905 141.506 112.349V107.926H142.749V118.577H141.625L141.521 117.349C141.363 117.596 141.16 117.827 140.915 118.044C140.668 118.251 140.372 118.424 140.027 118.562C139.681 118.69 139.282 118.754 138.829 118.754ZM138.977 117.674C139.469 117.674 139.903 117.556 140.278 117.319C140.653 117.083 140.944 116.757 141.151 116.343C141.358 115.919 141.462 115.421 141.462 114.849C141.462 114.287 141.358 113.794 141.151 113.37C140.944 112.945 140.653 112.615 140.278 112.378C139.903 112.142 139.469 112.023 138.977 112.023C138.493 112.023 138.064 112.142 137.689 112.378C137.314 112.615 137.023 112.945 136.816 113.37C136.609 113.794 136.506 114.287 136.506 114.849C136.506 115.421 136.609 115.919 136.816 116.343C137.023 116.757 137.314 117.083 137.689 117.319C138.064 117.556 138.493 117.674 138.977 117.674ZM147.245 118.754C146.643 118.754 146.14 118.651 145.736 118.444C145.332 118.227 145.031 117.946 144.834 117.6C144.637 117.245 144.538 116.861 144.538 116.447C144.538 115.944 144.666 115.52 144.922 115.174C145.189 114.819 145.559 114.553 146.032 114.376C146.516 114.188 147.082 114.094 147.733 114.094H149.701C149.701 113.631 149.627 113.246 149.479 112.941C149.341 112.625 149.134 112.388 148.858 112.23C148.591 112.073 148.256 111.994 147.852 111.994C147.378 111.994 146.969 112.112 146.624 112.349C146.279 112.585 146.066 112.936 145.988 113.399H144.715C144.775 112.867 144.952 112.423 145.248 112.068C145.554 111.703 145.939 111.427 146.402 111.239C146.865 111.042 147.349 110.943 147.852 110.943C148.542 110.943 149.114 111.072 149.568 111.328C150.031 111.575 150.377 111.925 150.603 112.378C150.83 112.822 150.943 113.35 150.943 113.961V118.577H149.834L149.76 117.26C149.661 117.467 149.533 117.665 149.375 117.852C149.227 118.03 149.05 118.187 148.843 118.325C148.636 118.454 148.399 118.557 148.133 118.636C147.877 118.715 147.581 118.754 147.245 118.754ZM147.437 117.704C147.782 117.704 148.093 117.635 148.369 117.497C148.655 117.349 148.897 117.152 149.094 116.905C149.291 116.649 149.439 116.368 149.538 116.062C149.646 115.756 149.701 115.436 149.701 115.1V115.056H147.837C147.353 115.056 146.964 115.115 146.668 115.234C146.372 115.342 146.161 115.5 146.032 115.707C145.903 115.904 145.84 116.131 145.84 116.387C145.84 116.654 145.899 116.886 146.017 117.083C146.146 117.28 146.328 117.433 146.565 117.541C146.811 117.65 147.102 117.704 147.437 117.704ZM152.865 118.577V111.121H153.99L154.079 112.541C154.247 112.206 154.459 111.92 154.715 111.683C154.981 111.446 155.297 111.264 155.661 111.136C156.037 111.007 156.46 110.943 156.934 110.943V112.245H156.475C156.16 112.245 155.859 112.29 155.573 112.378C155.287 112.457 155.031 112.59 154.803 112.778C154.587 112.965 154.414 113.222 154.286 113.547C154.167 113.863 154.108 114.257 154.108 114.731V118.577H152.865ZM158.46 118.577V111.121H159.702V118.577H158.46ZM159.081 109.538C158.834 109.538 158.627 109.459 158.46 109.301C158.301 109.134 158.223 108.927 158.223 108.68C158.223 108.433 158.301 108.236 158.46 108.088C158.627 107.93 158.834 107.852 159.081 107.852C159.318 107.852 159.519 107.93 159.688 108.088C159.855 108.236 159.939 108.433 159.939 108.68C159.939 108.927 159.855 109.134 159.688 109.301C159.519 109.459 159.318 109.538 159.081 109.538ZM165.224 118.754C164.533 118.754 163.912 118.597 163.36 118.281C162.808 117.956 162.373 117.502 162.058 116.92C161.743 116.328 161.585 115.643 161.585 114.864C161.585 114.065 161.743 113.374 162.058 112.793C162.383 112.201 162.823 111.747 163.375 111.432C163.937 111.106 164.563 110.943 165.253 110.943C165.963 110.943 166.589 111.106 167.132 111.432C167.684 111.747 168.119 112.201 168.434 112.793C168.759 113.374 168.922 114.06 168.922 114.849C168.922 115.638 168.759 116.328 168.434 116.92C168.108 117.502 167.669 117.956 167.117 118.281C166.565 118.597 165.934 118.754 165.224 118.754ZM165.239 117.689C165.663 117.689 166.057 117.586 166.422 117.379C166.787 117.162 167.083 116.841 167.31 116.417C167.536 115.993 167.65 115.47 167.65 114.849C167.65 114.218 167.536 113.695 167.31 113.281C167.092 112.857 166.802 112.541 166.437 112.334C166.082 112.117 165.687 112.009 165.253 112.009C164.839 112.009 164.444 112.117 164.07 112.334C163.705 112.541 163.409 112.857 163.182 113.281C162.965 113.695 162.857 114.218 162.857 114.849C162.857 115.47 162.965 115.993 163.182 116.417C163.409 116.841 163.7 117.162 164.055 117.379C164.42 117.586 164.814 117.689 165.239 117.689ZM177.878 118.754C177.158 118.754 176.527 118.587 175.984 118.251C175.442 117.906 175.023 117.438 174.727 116.846C174.431 116.254 174.283 115.584 174.283 114.834C174.283 114.085 174.431 113.419 174.727 112.837C175.023 112.245 175.442 111.782 175.984 111.446C176.536 111.111 177.172 110.943 177.893 110.943C178.504 110.943 179.036 111.067 179.49 111.313C179.954 111.56 180.309 111.905 180.556 112.349V107.926H181.798V118.577H180.674L180.57 117.349C180.412 117.596 180.211 117.827 179.964 118.044C179.717 118.251 179.421 118.424 179.076 118.562C178.731 118.69 178.332 118.754 177.878 118.754ZM178.026 117.674C178.519 117.674 178.953 117.556 179.328 117.319C179.702 117.083 179.993 116.757 180.2 116.343C180.408 115.919 180.511 115.421 180.511 114.849C180.511 114.287 180.408 113.794 180.2 113.37C179.993 112.945 179.702 112.615 179.328 112.378C178.953 112.142 178.519 112.023 178.026 112.023C177.542 112.023 177.113 112.142 176.739 112.378C176.364 112.615 176.073 112.945 175.866 113.37C175.659 113.794 175.555 114.287 175.555 114.849C175.555 115.421 175.659 115.919 175.866 116.343C176.073 116.757 176.364 117.083 176.739 117.319C177.113 117.556 177.542 117.674 178.026 117.674ZM187.138 118.754C186.438 118.754 185.816 118.592 185.274 118.266C184.741 117.941 184.322 117.487 184.016 116.905C183.711 116.313 183.557 115.628 183.557 114.849C183.557 114.06 183.705 113.374 184.001 112.793C184.307 112.211 184.732 111.757 185.274 111.432C185.827 111.106 186.457 110.943 187.167 110.943C187.898 110.943 188.513 111.106 189.016 111.432C189.53 111.757 189.919 112.186 190.185 112.719C190.462 113.241 190.599 113.818 190.599 114.449C190.599 114.548 190.599 114.652 190.599 114.76C190.599 114.869 190.595 114.992 190.584 115.13H184.489V114.168H189.386C189.357 113.488 189.13 112.955 188.706 112.571C188.291 112.186 187.769 111.994 187.138 111.994C186.714 111.994 186.319 112.092 185.954 112.29C185.599 112.477 185.313 112.758 185.096 113.133C184.88 113.498 184.771 113.956 184.771 114.509V114.923C184.771 115.534 184.88 116.047 185.096 116.461C185.324 116.876 185.614 117.186 185.969 117.393C186.334 117.601 186.723 117.704 187.138 117.704C187.661 117.704 188.09 117.591 188.425 117.364C188.77 117.127 189.016 116.812 189.164 116.417H190.392C190.274 116.861 190.067 117.26 189.771 117.615C189.475 117.97 189.105 118.251 188.661 118.459C188.228 118.656 187.72 118.754 187.138 118.754ZM199.49 118.754C198.771 118.754 198.139 118.587 197.597 118.251C197.055 117.906 196.635 117.438 196.339 116.846C196.043 116.254 195.895 115.584 195.895 114.834C195.895 114.085 196.043 113.419 196.339 112.837C196.635 112.245 197.055 111.782 197.597 111.446C198.15 111.111 198.786 110.943 199.505 110.943C200.117 110.943 200.65 111.067 201.103 111.313C201.567 111.56 201.922 111.905 202.168 112.349V107.926H203.41V118.577H202.286L202.183 117.349C202.025 117.596 201.823 117.827 201.576 118.044C201.33 118.251 201.034 118.424 200.688 118.562C200.344 118.69 199.944 118.754 199.49 118.754ZM199.638 117.674C200.132 117.674 200.565 117.556 200.94 117.319C201.315 117.083 201.606 116.757 201.813 116.343C202.02 115.919 202.123 115.421 202.123 114.849C202.123 114.287 202.02 113.794 201.813 113.37C201.606 112.945 201.315 112.615 200.94 112.378C200.565 112.142 200.132 112.023 199.638 112.023C199.156 112.023 198.727 112.142 198.351 112.378C197.977 112.615 197.685 112.945 197.478 113.37C197.271 113.794 197.168 114.287 197.168 114.849C197.168 115.421 197.271 115.919 197.478 116.343C197.685 116.757 197.977 117.083 198.351 117.319C198.727 117.556 199.156 117.674 199.638 117.674ZM208.751 118.754C208.05 118.754 207.429 118.592 206.887 118.266C206.354 117.941 205.934 117.487 205.629 116.905C205.323 116.313 205.171 115.628 205.171 114.849C205.171 114.06 205.319 113.374 205.615 112.793C205.92 112.211 206.344 111.757 206.887 111.432C207.439 111.106 208.07 110.943 208.78 110.943C209.51 110.943 210.127 111.106 210.63 111.432C211.142 111.757 211.532 112.186 211.798 112.719C212.074 113.241 212.213 113.818 212.213 114.449C212.213 114.548 212.213 114.652 212.213 114.76C212.213 114.869 212.207 114.992 212.198 115.13H206.103V114.168H210.999C210.97 113.488 210.742 112.955 210.319 112.571C209.905 112.186 209.381 111.994 208.751 111.994C208.326 111.994 207.932 112.092 207.567 112.29C207.212 112.477 206.926 112.758 206.709 113.133C206.492 113.498 206.384 113.956 206.384 114.509V114.923C206.384 115.534 206.492 116.047 206.709 116.461C206.936 116.876 207.227 117.186 207.582 117.393C207.946 117.601 208.337 117.704 208.751 117.704C209.273 117.704 209.702 117.591 210.038 117.364C210.383 117.127 210.63 116.812 210.778 116.417H212.005C211.887 116.861 211.68 117.26 211.384 117.615C211.088 117.97 210.718 118.251 210.275 118.459C209.84 118.656 209.332 118.754 208.751 118.754ZM216.7 118.754C216.078 118.754 215.537 118.651 215.072 118.444C214.619 118.237 214.254 117.951 213.978 117.586C213.711 117.211 213.549 116.772 213.489 116.269H214.762C214.812 116.525 214.915 116.762 215.072 116.979C215.23 117.196 215.442 117.374 215.708 117.512C215.985 117.64 216.321 117.704 216.714 117.704C217.06 117.704 217.346 117.655 217.572 117.556C217.8 117.448 217.967 117.305 218.075 117.127C218.194 116.95 218.253 116.757 218.253 116.55C218.253 116.244 218.179 116.013 218.031 115.855C217.893 115.697 217.686 115.574 217.41 115.485C217.134 115.386 216.799 115.303 216.404 115.234C216.078 115.174 215.758 115.096 215.442 114.997C215.127 114.898 214.846 114.77 214.599 114.612C214.353 114.445 214.155 114.242 214.007 114.006C213.869 113.769 213.8 113.478 213.8 113.133C213.8 112.709 213.909 112.334 214.125 112.009C214.343 111.673 214.653 111.412 215.057 111.224C215.472 111.037 215.951 110.943 216.492 110.943C217.291 110.943 217.938 111.136 218.43 111.52C218.924 111.905 219.214 112.462 219.303 113.192H218.075C218.026 112.817 217.864 112.526 217.587 112.319C217.321 112.102 216.951 111.994 216.478 111.994C216.014 111.994 215.659 112.087 215.413 112.275C215.176 112.462 215.057 112.709 215.057 113.015C215.057 113.212 215.122 113.389 215.25 113.547C215.389 113.695 215.585 113.823 215.842 113.932C216.108 114.04 216.433 114.129 216.818 114.198C217.312 114.287 217.76 114.405 218.164 114.553C218.569 114.701 218.895 114.923 219.14 115.219C219.398 115.505 219.525 115.914 219.525 116.447C219.525 116.91 219.407 117.315 219.17 117.66C218.944 118.005 218.618 118.276 218.194 118.473C217.77 118.661 217.272 118.754 216.7 118.754ZM223.741 118.754C223.139 118.754 222.636 118.651 222.232 118.444C221.827 118.227 221.527 117.946 221.33 117.6C221.132 117.245 221.034 116.861 221.034 116.447C221.034 115.944 221.162 115.52 221.419 115.174C221.685 114.819 222.055 114.553 222.528 114.376C223.011 114.188 223.579 114.094 224.229 114.094H226.197C226.197 113.631 226.123 113.246 225.975 112.941C225.836 112.625 225.629 112.388 225.354 112.23C225.087 112.073 224.752 111.994 224.348 111.994C223.874 111.994 223.465 112.112 223.12 112.349C222.774 112.585 222.562 112.936 222.484 113.399H221.212C221.271 112.867 221.448 112.423 221.744 112.068C222.049 111.703 222.434 111.427 222.898 111.239C223.361 111.042 223.845 110.943 224.348 110.943C225.037 110.943 225.61 111.072 226.064 111.328C226.527 111.575 226.872 111.925 227.099 112.378C227.326 112.822 227.44 113.35 227.44 113.961V118.577H226.33L226.256 117.26C226.157 117.467 226.029 117.665 225.872 117.852C225.724 118.03 225.546 118.187 225.339 118.325C225.132 118.454 224.895 118.557 224.629 118.636C224.372 118.715 224.076 118.754 223.741 118.754ZM223.934 117.704C224.278 117.704 224.589 117.635 224.866 117.497C225.151 117.349 225.392 117.152 225.59 116.905C225.787 116.649 225.935 116.368 226.034 116.062C226.142 115.756 226.197 115.436 226.197 115.1V115.056H224.333C223.849 115.056 223.46 115.115 223.164 115.234C222.868 115.342 222.656 115.5 222.528 115.707C222.4 115.904 222.336 116.131 222.336 116.387C222.336 116.654 222.395 116.886 222.513 117.083C222.641 117.28 222.824 117.433 223.061 117.541C223.307 117.65 223.598 117.704 223.934 117.704ZM229.362 118.577V111.121H230.486L230.575 112.541C230.742 112.206 230.955 111.92 231.211 111.683C231.477 111.446 231.792 111.264 232.158 111.136C232.532 111.007 232.956 110.943 233.43 110.943V112.245H232.971C232.656 112.245 232.355 112.29 232.069 112.378C231.783 112.457 231.526 112.59 231.3 112.778C231.082 112.965 230.91 113.222 230.782 113.547C230.663 113.863 230.604 114.257 230.604 114.731V118.577H229.362ZM234.836 118.577V111.121H235.961L236.049 112.541C236.218 112.206 236.43 111.92 236.686 111.683C236.952 111.446 237.268 111.264 237.632 111.136C238.008 111.007 238.431 110.943 238.905 110.943V112.245H238.446C238.131 112.245 237.83 112.29 237.544 112.378C237.258 112.457 237.002 112.59 236.774 112.778C236.558 112.965 236.385 113.222 236.257 113.547C236.138 113.863 236.079 114.257 236.079 114.731V118.577H234.836ZM243.367 118.754C242.676 118.754 242.055 118.597 241.503 118.281C240.95 117.956 240.516 117.502 240.201 116.92C239.884 116.328 239.727 115.643 239.727 114.864C239.727 114.065 239.884 113.374 240.201 112.793C240.526 112.201 240.964 111.747 241.517 111.432C242.08 111.106 242.705 110.943 243.396 110.943C244.106 110.943 244.732 111.106 245.275 111.432C245.827 111.747 246.26 112.201 246.577 112.793C246.902 113.374 247.065 114.06 247.065 114.849C247.065 115.638 246.902 116.328 246.577 116.92C246.251 117.502 245.812 117.956 245.26 118.281C244.707 118.597 244.077 118.754 243.367 118.754ZM243.381 117.689C243.805 117.689 244.2 117.586 244.565 117.379C244.929 117.162 245.225 116.841 245.452 116.417C245.679 115.993 245.793 115.47 245.793 114.849C245.793 114.218 245.679 113.695 245.452 113.281C245.235 112.857 244.944 112.541 244.58 112.334C244.225 112.117 243.83 112.009 243.396 112.009C242.982 112.009 242.587 112.117 242.213 112.334C241.847 112.541 241.552 112.857 241.325 113.281C241.108 113.695 241 114.218 241 114.849C241 115.47 241.108 115.993 241.325 116.417C241.552 116.841 241.843 117.162 242.198 117.379C242.562 117.586 242.957 117.689 243.381 117.689ZM248.807 118.577V107.926H250.05V118.577H248.807ZM252.1 118.577V107.926H253.343V118.577H252.1ZM258.723 118.754C258.033 118.754 257.411 118.597 256.859 118.281C256.308 117.956 255.873 117.502 255.558 116.92C255.242 116.328 255.084 115.643 255.084 114.864C255.084 114.065 255.242 113.374 255.558 112.793C255.883 112.201 256.322 111.747 256.874 111.432C257.436 111.106 258.062 110.943 258.753 110.943C259.463 110.943 260.089 111.106 260.632 111.432C261.184 111.747 261.618 112.201 261.934 112.793C262.259 113.374 262.422 114.06 262.422 114.849C262.422 115.638 262.259 116.328 261.934 116.92C261.608 117.502 261.169 117.956 260.617 118.281C260.065 118.597 259.434 118.754 258.723 118.754ZM258.738 117.689C259.163 117.689 259.556 117.586 259.922 117.379C260.287 117.162 260.583 116.841 260.809 116.417C261.036 115.993 261.15 115.47 261.15 114.849C261.15 114.218 261.036 113.695 260.809 113.281C260.592 112.857 260.302 112.541 259.936 112.334C259.581 112.117 259.187 112.009 258.753 112.009C258.339 112.009 257.944 112.117 257.57 112.334C257.204 112.541 256.908 112.857 256.682 113.281C256.465 113.695 256.356 114.218 256.356 114.849C256.356 115.47 256.465 115.993 256.682 116.417C256.908 116.841 257.2 117.162 257.555 117.379C257.92 117.586 258.314 117.689 258.738 117.689Z" fill="#012C97"/>
<path d="M280.353 169.118L283.288 161.152H284.301L287.226 169.118H286.213L283.789 162.347L281.354 169.118H280.353ZM281.695 167.07L281.968 166.296H285.576L285.849 167.07H281.695ZM288.422 169.118V161.152H291.221C291.782 161.152 292.245 161.243 292.61 161.425C292.981 161.6 293.258 161.843 293.44 162.154C293.622 162.457 293.713 162.799 293.713 163.178C293.713 163.588 293.622 163.929 293.44 164.202C293.265 164.475 293.034 164.684 292.746 164.828C292.465 164.972 292.166 165.059 291.847 165.09L292.006 164.976C292.348 164.983 292.662 165.074 292.951 165.249C293.239 165.423 293.466 165.659 293.634 165.955C293.808 166.25 293.895 166.58 293.895 166.945C293.895 167.347 293.796 167.715 293.6 168.048C293.402 168.375 293.11 168.637 292.723 168.833C292.343 169.024 291.873 169.118 291.312 169.118H288.422ZM289.378 168.321H291.21C291.748 168.321 292.166 168.196 292.462 167.946C292.764 167.688 292.917 167.331 292.917 166.876C292.917 166.429 292.761 166.072 292.45 165.807C292.146 165.534 291.725 165.397 291.187 165.397H289.378V168.321ZM289.378 164.635H291.153C291.668 164.635 292.059 164.513 292.325 164.27C292.598 164.028 292.735 163.698 292.735 163.28C292.735 162.878 292.598 162.556 292.325 162.313C292.059 162.07 291.657 161.949 291.119 161.949H289.378V164.635ZM295.278 169.118V161.152H297.85C298.472 161.152 298.98 161.259 299.375 161.471C299.77 161.676 300.061 161.953 300.251 162.302C300.441 162.651 300.535 163.045 300.535 163.485C300.535 163.91 300.436 164.301 300.24 164.657C300.05 165.014 299.754 165.298 299.352 165.511C298.95 165.723 298.434 165.829 297.804 165.829H296.234V169.118H295.278ZM299.489 169.118L297.736 165.556H298.806L300.615 169.118H299.489ZM296.234 165.078H297.782C298.388 165.078 298.832 164.93 299.113 164.635C299.401 164.339 299.545 163.959 299.545 163.497C299.545 163.026 299.405 162.654 299.124 162.381C298.851 162.101 298.4 161.96 297.77 161.96H296.234V165.078Z" fill="#011853" fill-opacity="0.3"/>
<path d="M330.707 169.118V161.152H331.822L334.633 166.717L337.455 161.152H338.582V169.118H337.626V162.859L334.997 168.003H334.28L331.663 162.882V169.118H330.707ZM339.763 169.118L342.699 161.152H343.712L346.636 169.118H345.623L343.2 162.347L340.764 169.118H339.763ZM341.106 167.07L341.379 166.296H344.986L345.259 167.07H341.106ZM348.967 169.118V166.091L346.372 161.152H347.453L349.593 165.465H349.308L351.436 161.152H352.506L349.923 166.091V169.118H348.967Z" fill="#011853" fill-opacity="0.3"/>
<path d="M384.601 169.255C384.123 169.255 383.71 169.163 383.361 168.981C383.019 168.799 382.754 168.538 382.564 168.196C382.382 167.855 382.291 167.449 382.291 166.979H383.258C383.258 167.244 383.3 167.487 383.383 167.707C383.474 167.92 383.614 168.09 383.804 168.219C384.001 168.341 384.263 168.401 384.59 168.401C384.908 168.401 385.159 168.341 385.341 168.219C385.531 168.097 385.663 167.934 385.739 167.73C385.822 167.517 385.864 167.278 385.864 167.013V161.152H386.82V167.013C386.82 167.726 386.623 168.279 386.228 168.674C385.841 169.061 385.299 169.255 384.601 169.255ZM391.395 169.255C390.849 169.255 390.351 169.144 389.904 168.925C389.464 168.705 389.111 168.37 388.846 167.923C388.579 167.468 388.447 166.888 388.447 166.182V161.152H389.403V166.194C389.403 166.709 389.486 167.13 389.654 167.457C389.828 167.783 390.067 168.022 390.371 168.173C390.673 168.325 391.023 168.401 391.417 168.401C391.819 168.401 392.169 168.325 392.464 168.173C392.76 168.022 392.991 167.783 393.159 167.457C393.325 167.13 393.409 166.709 393.409 166.194V161.152H394.365V166.182C394.365 166.888 394.232 167.468 393.967 167.923C393.7 168.37 393.344 168.705 392.897 168.925C392.448 169.144 391.948 169.255 391.395 169.255ZM395.984 169.118V161.152H396.94L401.185 167.536V161.152H402.141V169.118H401.185L396.94 162.734V169.118H395.984Z" fill="#011853" fill-opacity="0.3"/>
<path d="M434.445 169.255C433.967 169.255 433.553 169.163 433.204 168.981C432.863 168.799 432.597 168.538 432.408 168.196C432.226 167.855 432.135 167.449 432.135 166.979H433.102C433.102 167.244 433.143 167.487 433.227 167.707C433.318 167.92 433.458 168.09 433.648 168.219C433.845 168.341 434.107 168.401 434.433 168.401C434.752 168.401 435.002 168.341 435.185 168.219C435.373 168.097 435.507 167.934 435.583 167.73C435.666 167.517 435.708 167.278 435.708 167.013V161.152H436.664V167.013C436.664 167.726 436.466 168.279 436.072 168.674C435.685 169.061 435.142 169.255 434.445 169.255ZM441.238 169.255C440.692 169.255 440.195 169.144 439.748 168.925C439.307 168.705 438.955 168.37 438.689 167.923C438.423 167.468 438.291 166.888 438.291 166.182V161.152H439.247V166.194C439.247 166.709 439.33 167.13 439.497 167.457C439.672 167.783 439.91 168.022 440.214 168.173C440.517 168.325 440.866 168.401 441.261 168.401C441.663 168.401 442.012 168.325 442.308 168.173C442.604 168.022 442.835 167.783 443.002 167.457C443.168 167.13 443.253 166.709 443.253 166.194V161.152H444.209V166.182C444.209 166.888 444.075 167.468 443.81 167.923C443.544 168.37 443.188 168.705 442.741 168.925C442.292 169.144 441.792 169.255 441.238 169.255ZM445.827 169.118V161.152H446.783V168.356H450.492V169.118H445.827Z" fill="#011853" fill-opacity="0.3"/>
<path d="M479.724 169.118L482.66 161.152H483.672L486.597 169.118H485.584L483.16 162.347L480.725 169.118H479.724ZM481.066 167.07L481.34 166.296H484.947L485.22 167.07H481.066ZM490.762 169.254C490.019 169.254 489.367 169.084 488.805 168.742C488.244 168.393 487.808 167.912 487.496 167.297C487.185 166.683 487.029 165.966 487.029 165.146C487.029 164.335 487.185 163.618 487.496 162.996C487.815 162.374 488.263 161.888 488.839 161.539C489.424 161.19 490.11 161.016 490.898 161.016C491.794 161.016 492.542 161.232 493.14 161.664C493.74 162.089 494.123 162.685 494.29 163.451H493.186C493.08 162.973 492.83 162.594 492.435 162.313C492.041 162.032 491.529 161.892 490.898 161.892C490.315 161.892 489.803 162.025 489.362 162.29C488.93 162.548 488.596 162.92 488.361 163.405C488.126 163.891 488.008 164.471 488.008 165.146C488.008 165.822 488.126 166.406 488.361 166.899C488.596 167.384 488.923 167.756 489.339 168.014C489.765 168.272 490.25 168.401 490.796 168.401C491.646 168.401 492.287 168.151 492.719 167.65C493.152 167.149 493.399 166.47 493.459 165.613H491.16V164.862H494.438V169.118H493.561L493.482 167.809C493.293 168.12 493.072 168.386 492.822 168.606C492.579 168.819 492.291 168.981 491.957 169.095C491.623 169.201 491.225 169.254 490.762 169.254ZM499.511 169.254C498.745 169.254 498.07 169.084 497.485 168.742C496.909 168.393 496.457 167.912 496.131 167.297C495.812 166.675 495.653 165.954 495.653 165.135C495.653 164.323 495.812 163.61 496.131 162.996C496.457 162.374 496.909 161.888 497.485 161.539C498.07 161.19 498.745 161.016 499.511 161.016C500.292 161.016 500.972 161.19 501.548 161.539C502.124 161.888 502.572 162.374 502.89 162.996C503.217 163.61 503.38 164.323 503.38 165.135C503.38 165.954 503.217 166.675 502.89 167.297C502.572 167.912 502.124 168.393 501.548 168.742C500.972 169.084 500.292 169.254 499.511 169.254ZM499.511 168.412C500.088 168.412 500.592 168.284 501.024 168.025C501.464 167.76 501.802 167.384 502.037 166.899C502.28 166.406 502.401 165.818 502.401 165.135C502.401 164.452 502.28 163.868 502.037 163.383C501.802 162.889 501.464 162.514 501.024 162.256C500.592 161.998 500.088 161.869 499.511 161.869C498.942 161.869 498.437 161.998 497.997 162.256C497.565 162.514 497.228 162.889 496.984 163.383C496.75 163.868 496.632 164.452 496.632 165.135C496.632 165.818 496.75 166.406 496.984 166.899C497.228 167.384 497.565 167.76 497.997 168.025C498.437 168.284 498.942 168.412 499.511 168.412Z" fill="#011853" fill-opacity="0.3"/>
<path d="M536.03 169.254C535.447 169.254 534.938 169.149 534.506 168.936C534.073 168.723 533.74 168.427 533.504 168.048C533.269 167.669 533.151 167.229 533.151 166.728H534.153C534.153 167.039 534.224 167.327 534.369 167.593C534.513 167.851 534.722 168.06 534.995 168.219C535.276 168.37 535.621 168.446 536.03 168.446C536.387 168.446 536.69 168.39 536.941 168.276C537.199 168.154 537.393 167.991 537.521 167.786C537.658 167.582 537.726 167.35 537.726 167.092C537.726 166.781 537.658 166.531 537.521 166.341C537.393 166.144 537.214 165.985 536.986 165.863C536.759 165.742 536.494 165.636 536.19 165.545C535.894 165.446 535.583 165.344 535.257 165.237C534.627 165.025 534.164 164.76 533.868 164.441C533.572 164.122 533.424 163.709 533.424 163.201C533.424 162.768 533.523 162.389 533.72 162.063C533.925 161.736 534.213 161.482 534.585 161.3C534.964 161.11 535.412 161.016 535.928 161.016C536.437 161.016 536.876 161.11 537.248 161.3C537.627 161.49 537.923 161.751 538.136 162.085C538.348 162.411 538.454 162.791 538.454 163.223H537.453C537.453 163.003 537.396 162.787 537.282 162.575C537.168 162.362 536.994 162.188 536.759 162.051C536.531 161.907 536.243 161.835 535.894 161.835C535.606 161.827 535.348 161.877 535.12 161.983C534.9 162.081 534.725 162.226 534.597 162.415C534.475 162.605 534.414 162.836 534.414 163.109C534.414 163.367 534.468 163.576 534.574 163.735C534.688 163.895 534.847 164.031 535.052 164.145C535.265 164.251 535.51 164.35 535.791 164.441C536.072 164.532 536.383 164.634 536.725 164.748C537.111 164.877 537.453 165.036 537.749 165.226C538.053 165.408 538.287 165.643 538.454 165.932C538.628 166.22 538.716 166.588 538.716 167.035C538.716 167.415 538.614 167.775 538.409 168.116C538.212 168.45 537.916 168.723 537.521 168.936C537.126 169.149 536.63 169.254 536.03 169.254ZM540.094 169.118V161.152H545.021V161.937H541.05V164.714H544.68V165.488H541.05V168.333H545.021V169.118H540.094ZM546.528 169.118V161.152H549.123C549.752 161.152 550.269 161.258 550.67 161.471C551.08 161.676 551.379 161.953 551.569 162.302C551.766 162.65 551.865 163.049 551.865 163.496C551.865 163.929 551.766 164.323 551.569 164.68C551.379 165.029 551.083 165.31 550.682 165.522C550.28 165.734 549.76 165.841 549.123 165.841H547.484V169.118H546.528ZM547.484 165.033H549.111C549.749 165.033 550.204 164.892 550.477 164.612C550.75 164.331 550.887 163.959 550.887 163.496C550.887 163.003 550.75 162.624 550.477 162.358C550.204 162.085 549.749 161.949 549.111 161.949H547.484V165.033Z" fill="#011853" fill-opacity="0.3"/>
</g>
</g>
<defs>
<filter id="filter0_di_716_4956" x="29.123" y="56.4727" width="631.276" height="423.184" filterUnits="userSpaceOnUse" color-interpolation-filters="sRGB">
<feFlood flood-opacity="0" result="BackgroundImageFix"/>
<feColorMatrix in="SourceAlpha" type="matrix" values="0 0 0 0 0 0 0 0 0 0 0 0 0 0 0 0 0 0 127 0" result="hardAlpha"/>
<feOffset dy="10"/>
<feGaussianBlur stdDeviation="15"/>
<feComposite in2="hardAlpha" operator="out"/>
<feColorMatrix type="matrix" values="0 0 0 0 0.672988 0 0 0 0 0.695397 0 0 0 0 0.734238 0 0 0 0.35 0"/>
<feBlend mode="normal" in2="BackgroundImageFix" result="effect1_dropShadow_716_4956"/>
<feBlend mode="normal" in="SourceGraphic" in2="effect1_dropShadow_716_4956" result="shape"/>
<feColorMatrix in="SourceAlpha" type="matrix" values="0 0 0 0 0 0 0 0 0 0 0 0 0 0 0 0 0 0 127 0" result="hardAlpha"/>
<feOffset dy="-4"/>
<feGaussianBlur stdDeviation="2"/>
<feComposite in2="hardAlpha" operator="arithmetic" k2="-1" k3="1"/>
<feColorMatrix type="matrix" values="0 0 0 0 0.67451 0 0 0 0 0.694118 0 0 0 0 0.733333 0 0 0 0.2 0"/>
<feBlend mode="normal" in2="shape" result="effect2_innerShadow_716_4956"/>
</filter>
<clipPath id="clip0_716_4956">
<rect width="586" height="419" rx="16" fill="white"/>
</clipPath>
</defs>
</svg>
